<?xml version="1.0" encoding="UTF-8" standalone="no"?>
<!-- Created with Inkscape (http://www.inkscape.org/) -->

<svg
   width="168.09425mm"
   height="47.434448mm"
   viewBox="0 0 168.09425 47.434448"
   version="1.1"
   id="svg1"
   inkscape:version="1.3.2 (091e20e, 2023-11-25, custom)"
   sodipodi:docname="lattice.svg"
   xmlns:inkscape="http://www.inkscape.org/namespaces/inkscape"
   xmlns:sodipodi="http://sodipodi.sourceforge.net/DTD/sodipodi-0.dtd"
   xmlns="http://www.w3.org/2000/svg"
   xmlns:svg="http://www.w3.org/2000/svg"
   xmlns:ns1="http://www.iki.fi/pav/software/textext/">
  <sodipodi:namedview
     id="namedview1"
     pagecolor="#ffffff"
     bordercolor="#000000"
     borderopacity="0.25"
     inkscape:showpageshadow="2"
     inkscape:pageopacity="0.0"
     inkscape:pagecheckerboard="0"
     inkscape:deskcolor="#d1d1d1"
     inkscape:document-units="mm"
     inkscape:zoom="1.0547699"
     inkscape:cx="308.59811"
     inkscape:cy="43.611408"
     inkscape:window-width="1440"
     inkscape:window-height="830"
     inkscape:window-x="-6"
     inkscape:window-y="-6"
     inkscape:window-maximized="1"
     inkscape:current-layer="layer1" />
  <defs
     id="defs1">
    <inkscape:path-effect
       effect="simplify"
       id="path-effect1"
       is_visible="true"
       lpeversion="1.3"
       threshold="100"
       steps="1"
       smooth_angles="360"
       helper_size="0"
       simplify_individual_paths="false"
       simplify_just_coalesce="false" />
  </defs>
  <g
     inkscape:label="Layer 1"
     inkscape:groupmode="layer"
     id="layer1"
     transform="translate(-52.260334,-76.68588)">
    <text
       xml:space="preserve"
       style="font-style:normal;font-variant:normal;font-weight:normal;font-stretch:normal;font-size:4.67377px;line-height:1;font-family:'Noto Serif SC';-inkscape-font-specification:'Noto Serif SC';fill:#000000;fill-opacity:1;stroke:none;stroke-width:0.368002;stroke-opacity:0"
       x="64.329536"
       y="79.183968"
       id="text1"
       transform="scale(0.98119732,1.019163)"><tspan
         sodipodi:role="line"
         id="tspan1"
         style="font-style:normal;font-variant:normal;font-weight:500;font-stretch:normal;font-size:4.67377px;font-family:'Noto Serif SC';-inkscape-font-specification:'Noto Serif SC Medium';fill:#000000;fill-opacity:1;stroke:none;stroke-width:0.368002;stroke-opacity:0"
         x="64.329536"
         y="79.183968">第一格</tspan></text>
    <path
       style="fill:#000000;fill-opacity:0;stroke:#000000;stroke-width:0.42;stroke-dasharray:none;stroke-opacity:1"
       d="m 59.897625,85.822717 h 20.70881"
       id="path1" />
    <path
       style="fill:#000000;fill-opacity:0;stroke:#000000;stroke-width:0.42;stroke-dasharray:none;stroke-opacity:1"
       d="m 60.166169,88.466395 19.90102,19.901045"
       id="path16" />
    <path
       style="fill:#000000;fill-opacity:0;stroke:#000000;stroke-width:0.42;stroke-dasharray:none;stroke-opacity:1"
       d="m 59.897625,110.7982 h 20.70881"
       id="path17" />
    <text
       xml:space="preserve"
       style="font-style:normal;font-variant:normal;font-weight:normal;font-stretch:normal;font-size:4.67377px;line-height:1;font-family:'Noto Serif SC';-inkscape-font-specification:'Noto Serif SC';fill:#000000;fill-opacity:1;stroke:none;stroke-width:0.368002;stroke-opacity:0"
       x="108.98582"
       y="79.183968"
       id="text17"
       transform="scale(0.98119732,1.019163)"><tspan
         sodipodi:role="line"
         id="tspan17"
         style="font-style:normal;font-variant:normal;font-weight:500;font-stretch:normal;font-size:4.67377px;font-family:'Noto Serif SC';-inkscape-font-specification:'Noto Serif SC Medium';fill:#000000;fill-opacity:1;stroke:none;stroke-width:0.368002;stroke-opacity:0"
         x="108.98582"
         y="79.183968">第二格</tspan></text>
    <path
       style="fill:#000000;fill-opacity:0;stroke:#000000;stroke-width:0.42;stroke-dasharray:none;stroke-opacity:1"
       d="M 103.71426,85.822717 H 124.4231"
       id="path18" />
    <path
       style="fill:#000000;fill-opacity:0;stroke:#000000;stroke-width:0.42;stroke-dasharray:none;stroke-opacity:1"
       d="M 103.71426,110.7982 H 124.4231"
       id="path39" />
    <text
       xml:space="preserve"
       style="font-style:normal;font-variant:normal;font-weight:normal;font-stretch:normal;font-size:4.67377px;line-height:1;font-family:'Noto Serif SC';-inkscape-font-specification:'Noto Serif SC';fill:#000000;fill-opacity:1;stroke:none;stroke-width:0.368002;stroke-opacity:0"
       x="153.64206"
       y="79.183968"
       id="text39"
       transform="scale(0.98119732,1.019163)"><tspan
         sodipodi:role="line"
         id="tspan39"
         style="font-style:normal;font-variant:normal;font-weight:500;font-stretch:normal;font-size:4.67377px;font-family:'Noto Serif SC';-inkscape-font-specification:'Noto Serif SC Medium';fill:#000000;fill-opacity:1;stroke:none;stroke-width:0.368002;stroke-opacity:0"
         x="153.64206"
         y="79.183968">第三格</tspan></text>
    <path
       style="fill:#000000;fill-opacity:0;stroke:#000000;stroke-width:0.42;stroke-dasharray:none;stroke-opacity:1"
       d="m 147.53092,85.822717 h 20.70882"
       id="path40" />
    <path
       style="fill:#000000;fill-opacity:0;stroke:#000000;stroke-width:0.29;stroke-dasharray:none;stroke-opacity:1"
       d="M 144.36118,89.277796 V 107.8676"
       id="path60" />
    <path
       style="fill:#000000;fill-opacity:0;stroke:#000000;stroke-width:0.42;stroke-dasharray:none;stroke-opacity:1"
       d="m 147.53092,110.7982 h 20.70882"
       id="path61" />
    <text
       xml:space="preserve"
       style="font-style:normal;font-variant:normal;font-weight:normal;font-stretch:normal;font-size:4.67377px;line-height:1;font-family:'Noto Serif SC';-inkscape-font-specification:'Noto Serif SC';fill:#000000;fill-opacity:1;stroke:none;stroke-width:0.368002;stroke-opacity:0"
       x="198.29829"
       y="79.183968"
       id="text61"
       transform="scale(0.98119732,1.019163)"><tspan
         sodipodi:role="line"
         id="tspan61"
         style="font-style:normal;font-variant:normal;font-weight:500;font-stretch:normal;font-size:4.67377px;font-family:'Noto Serif SC';-inkscape-font-specification:'Noto Serif SC Medium';fill:#000000;fill-opacity:1;stroke:none;stroke-width:0.368002;stroke-opacity:0"
         x="198.29829"
         y="79.183968">第四格</tspan></text>
    <path
       style="fill:#000000;fill-opacity:0;stroke:#000000;stroke-width:0.42;stroke-dasharray:none;stroke-opacity:1"
       d="m 191.34756,85.822717 h 20.70881"
       id="path62" />
    <path
       style="fill:#000000;fill-opacity:0;stroke:#000000;stroke-width:0.42;stroke-dasharray:none;stroke-opacity:1"
       d="M 211.51713,88.466393 191.61609,108.36744"
       id="path82" />
    <path
       style="fill:#000000;fill-opacity:0;stroke:#000000;stroke-width:0.42;stroke-dasharray:none;stroke-opacity:1"
       d="m 191.34756,110.7982 h 20.70881"
       id="path83" />
    <path
       style="fill:#000000;fill-opacity:0;stroke:#000000;stroke-width:0.29;stroke-dasharray:none;stroke-opacity:1"
       d="M 127.04222,89.277796 V 107.8676"
       id="path84" />
    <path
       style="fill:#000000;fill-opacity:0;stroke:#000000;stroke-width:0.42;stroke-dasharray:none;stroke-opacity:1"
       d="m 59.897625,122.34965 h 20.70881"
       id="path94" />
    <path
       style="fill:#000000;fill-opacity:0;stroke:#000000;stroke-width:0.42;stroke-dasharray:none;stroke-opacity:1"
       d="M 103.71426,122.34965 H 124.4231"
       id="path104" />
    <path
       style="fill:#000000;fill-opacity:0;stroke:#000000;stroke-width:0.42;stroke-dasharray:none;stroke-opacity:1"
       d="m 59.897625,110.7982 h 20.70881"
       id="path125" />
    <path
       style="fill:#000000;fill-opacity:0;stroke:#000000;stroke-width:0.42;stroke-dasharray:none;stroke-opacity:1"
       d="M 52.260334,116.35484 H 88.904647"
       id="path129" />
    <path
       style="fill:#000000;fill-opacity:0;stroke:#000000;stroke-width:0.42;stroke-dasharray:none;stroke-opacity:1"
       d="M 96.076947,116.35484 H 132.72131"
       id="path130" />
    <path
       style="fill:#000000;fill-opacity:0;stroke:#000000;stroke-width:0.42;stroke-dasharray:none;stroke-opacity:1"
       d="m 139.89362,116.35484 h 36.64433"
       id="path131" />
    <path
       style="fill:#000000;fill-opacity:0;stroke:#000000;stroke-width:0.42;stroke-dasharray:none;stroke-opacity:1"
       d="m 183.71026,116.35484 h 36.64433"
       id="path132" />
    <g
       transform="matrix(0.529167,0,0,0.529167,54.5199,84.0929)"
       ns1:version="1.10.0"
       ns1:texconverter="xelatex"
       ns1:pdfconverter="inkscape"
       ns1:text="M"
       ns1:preamble="C:\Users\Ichinoe\AppData\Roaming\inkscape\extensions\textext\default_packages.tex"
       ns1:scale="1.5"
       ns1:alignment="middle center"
       ns1:stroke-to-path="0"
       ns1:inkscapeversion="1.3.2"
       id="g3274"
       ns1:jacobian_sqrt="0.529167"
       style="stroke-width:0">
      <defs
         id="id-d3e47bf0-c381-470a-9324-48c64766ec76"
         style="stroke-width:0">
        <g
           id="id-35533d82-a6d1-478d-810f-f31425afca54"
           style="stroke-width:0">
          <g
             id="id-fd050c59-94cf-4b4e-8d57-3a5427bc7875"
             style="stroke-width:0">
            <path
               d="m 8.765625,0 v -0.3125 h -0.25 c -0.765625,0 -0.78125,-0.109375 -0.78125,-0.46875 v -5.25 C 7.734375,-6.390625 7.75,-6.5 8.515625,-6.5 h 0.25 v -0.3125 h -1.6875 C 6.8125,-6.8125 6.8125,-6.796875 6.75,-6.625 L 4.5625,-1 2.40625,-6.59375 C 2.3125,-6.8125 2.28125,-6.8125 2.046875,-6.8125 H 0.375 V -6.5 h 0.234375 c 0.765625,0 0.78125,0.109375 0.78125,0.46875 v 4.984375 c 0,0.265625 0,0.734375 -1.015625,0.734375 V 0 L 1.53125,-0.03125 2.703125,0 v -0.3125 c -1.03125,0 -1.03125,-0.46875 -1.03125,-0.734375 v -5.375 H 1.6875 L 4.09375,-0.21875 C 4.140625,-0.09375 4.1875,0 4.28125,0 4.390625,0 4.421875,-0.078125 4.46875,-0.1875 L 6.921875,-6.5 v 5.71875 c 0,0.359375 -0.015625,0.46875 -0.78125,0.46875 H 5.90625 V 0 c 0.359375,-0.03125 1.046875,-0.03125 1.4375,-0.03125 0.375,0 1.046875,0 1.421875,0.03125 z m 0,0"
               id="id-87334aa7-9a3a-4d7f-9992-e8c7a5ed791f"
               style="stroke-width:0" />
          </g>
        </g>
      </defs>
      <g
         fill="#000000"
         fill-opacity="1"
         id="id-44e56fdb-3b47-4087-96d3-650fb68a9ce3"
         transform="translate(-149.087,-127.953)"
         style="stroke-width:0">
        <g
           transform="translate(148.712,134.765)"
           id="g2542"
           style="stroke-width:0">
          <path
             d="m 8.765625,0 v -0.3125 h -0.25 c -0.765625,0 -0.78125,-0.109375 -0.78125,-0.46875 v -5.25 C 7.734375,-6.390625 7.75,-6.5 8.515625,-6.5 h 0.25 v -0.3125 h -1.6875 C 6.8125,-6.8125 6.8125,-6.796875 6.75,-6.625 L 4.5625,-1 2.40625,-6.59375 C 2.3125,-6.8125 2.28125,-6.8125 2.046875,-6.8125 H 0.375 V -6.5 h 0.234375 c 0.765625,0 0.78125,0.109375 0.78125,0.46875 v 4.984375 c 0,0.265625 0,0.734375 -1.015625,0.734375 V 0 L 1.53125,-0.03125 2.703125,0 v -0.3125 c -1.03125,0 -1.03125,-0.46875 -1.03125,-0.734375 v -5.375 H 1.6875 L 4.09375,-0.21875 C 4.140625,-0.09375 4.1875,0 4.28125,0 4.390625,0 4.421875,-0.078125 4.46875,-0.1875 L 6.921875,-6.5 v 5.71875 c 0,0.359375 -0.015625,0.46875 -0.78125,0.46875 H 5.90625 V 0 c 0.359375,-0.03125 1.046875,-0.03125 1.4375,-0.03125 0.375,0 1.046875,0 1.421875,0.03125 z m 0,0"
             id="id-2bc89c25-1593-4c0d-bfcd-c00892162069"
             style="stroke-width:0" />
        </g>
      </g>
    </g>
    <g
       transform="matrix(0.529167,0,0,0.529167,81.769,84.0935)"
       ns1:version="1.10.0"
       ns1:texconverter="xelatex"
       ns1:pdfconverter="inkscape"
       ns1:text="P"
       ns1:preamble="C:\Users\Ichinoe\AppData\Roaming\inkscape\extensions\textext\default_packages.tex"
       ns1:scale="1.5"
       ns1:alignment="middle center"
       ns1:stroke-to-path="0"
       ns1:inkscapeversion="1.3.2"
       id="g6"
       ns1:jacobian_sqrt="0.529167"
       style="stroke-width:0">
      <defs
         id="id-5cb06989-ee6c-4b84-9fcd-faf18b43febb"
         style="stroke-width:0">
        <g
           id="id-3b9dfc4f-5353-428f-8512-2fe7c8987381"
           style="stroke-width:0">
          <g
             id="id-ec8fba3c-0e1e-4e55-83fd-7916027d23fc"
             style="stroke-width:0">
            <path
               d="M 6.21875,-4.953125 C 6.21875,-5.9375 5.234375,-6.8125 3.875,-6.8125 H 0.34375 V -6.5 h 0.25 c 0.765625,0 0.78125,0.109375 0.78125,0.46875 v 5.25 c 0,0.359375 -0.015625,0.46875 -0.78125,0.46875 h -0.25 V 0 c 0.359375,-0.03125 1.09375,-0.03125 1.46875,-0.03125 0.375,0 1.125,0 1.484375,0.03125 v -0.3125 h -0.25 c -0.765625,0 -0.78125,-0.109375 -0.78125,-0.46875 v -2.375 h 1.6875 c 1.1875,0 2.265625,-0.796875 2.265625,-1.796875 z m -1.03125,0 c 0,0.46875 0,1.546875 -1.578125,1.546875 h -1.375 v -2.6875 C 2.234375,-6.4375 2.25,-6.5 2.71875,-6.5 H 3.609375 C 5.1875,-6.5 5.1875,-5.4375 5.1875,-4.953125 Z m 0,0"
               id="id-b35ad559-0cdf-477b-a23d-ce988073c707"
               style="stroke-width:0" />
          </g>
        </g>
      </defs>
      <g
         fill="#000000"
         fill-opacity="1"
         id="id-7349f8fe-f65f-4756-a352-dc3da9de34fa"
         transform="translate(-149.056,-127.953)"
         style="stroke-width:0">
        <g
           transform="translate(148.712,134.765)"
           id="g1352"
           style="stroke-width:0">
          <path
             d="M 6.21875,-4.953125 C 6.21875,-5.9375 5.234375,-6.8125 3.875,-6.8125 H 0.34375 V -6.5 h 0.25 c 0.765625,0 0.78125,0.109375 0.78125,0.46875 v 5.25 c 0,0.359375 -0.015625,0.46875 -0.78125,0.46875 h -0.25 V 0 c 0.359375,-0.03125 1.09375,-0.03125 1.46875,-0.03125 0.375,0 1.125,0 1.484375,0.03125 v -0.3125 h -0.25 c -0.765625,0 -0.78125,-0.109375 -0.78125,-0.46875 v -2.375 h 1.6875 c 1.1875,0 2.265625,-0.796875 2.265625,-1.796875 z m -1.03125,0 c 0,0.46875 0,1.546875 -1.578125,1.546875 h -1.375 v -2.6875 C 2.234375,-6.4375 2.25,-6.5 2.71875,-6.5 H 3.609375 C 5.1875,-6.5 5.1875,-5.4375 5.1875,-4.953125 Z m 0,0"
             id="id-b233473a-bb3a-4755-b790-76360a156d0c"
             style="stroke-width:0" />
        </g>
      </g>
    </g>
    <g
       transform="matrix(0.529167,0,0,0.529167,55.5739,108.732)"
       ns1:version="1.10.0"
       ns1:texconverter="xelatex"
       ns1:pdfconverter="inkscape"
       ns1:text="S"
       ns1:preamble="C:\Users\Ichinoe\AppData\Roaming\inkscape\extensions\textext\default_packages.tex"
       ns1:scale="1.5"
       ns1:alignment="middle center"
       ns1:stroke-to-path="0"
       ns1:inkscapeversion="1.3.2"
       id="g11"
       ns1:jacobian_sqrt="0.529167"
       style="stroke-width:0">
      <defs
         id="id-13816bd5-dd5f-4437-89b5-9a6f84ef06e0"
         style="stroke-width:0">
        <g
           id="id-818e9da6-7689-4948-9e0e-ea4bf483f228"
           style="stroke-width:0">
          <g
             id="id-6b9852ab-3feb-498d-9a50-fef21479c009"
             style="stroke-width:0">
            <path
               d="m 4.96875,-1.859375 c 0,-0.984375 -0.65625,-1.8125 -1.484375,-2.015625 l -1.28125,-0.296875 c -0.625,-0.15625 -1,-0.6875 -1,-1.265625 0,-0.703125 0.53125,-1.3125 1.3125,-1.3125 1.65625,0 1.875,1.640625 1.9375,2.078125 0.015625,0.0625 0.015625,0.125 0.125,0.125 0.125,0 0.125,-0.046875 0.125,-0.234375 v -2 c 0,-0.171875 0,-0.25 -0.109375,-0.25 -0.0625,0 -0.078125,0.015625 -0.140625,0.140625 l -0.359375,0.5625 C 3.796875,-6.625 3.390625,-7.03125 2.5,-7.03125 c -1.109375,0 -1.9375,0.875 -1.9375,1.9375 0,0.828125 0.53125,1.5625 1.296875,1.828125 0.109375,0.03125 0.625,0.15625 1.328125,0.328125 0.265625,0.0625 0.5625,0.140625 0.84375,0.5 0.203125,0.265625 0.3125,0.59375 0.3125,0.921875 0,0.703125 -0.5,1.421875 -1.34375,1.421875 -0.28125,0 -1.046875,-0.046875 -1.578125,-0.53125 C 0.84375,-1.171875 0.8125,-1.796875 0.8125,-2.15625 0.796875,-2.265625 0.71875,-2.265625 0.6875,-2.265625 c -0.125,0 -0.125,0.078125 -0.125,0.25 v 2 c 0,0.171875 0,0.234375 0.109375,0.234375 0.0625,0 0.078125,-0.015625 0.140625,-0.125 0,0 0.03125,-0.046875 0.359375,-0.578125 0.3125,0.34375 0.953125,0.703125 1.84375,0.703125 1.15625,0 1.953125,-0.96875 1.953125,-2.078125 z m 0,0"
               id="id-ccff4969-9a92-472e-aba4-1ce99d8b6dd1"
               style="stroke-width:0" />
          </g>
        </g>
      </defs>
      <g
         fill="#000000"
         fill-opacity="1"
         id="id-bd97ddf4-fbfa-4640-8116-dbf0b81b73dc"
         transform="translate(-149.275,-127.734)"
         style="stroke-width:0">
        <g
           transform="translate(148.712,134.765)"
           id="g4768"
           style="stroke-width:0">
          <path
             d="m 4.96875,-1.859375 c 0,-0.984375 -0.65625,-1.8125 -1.484375,-2.015625 l -1.28125,-0.296875 c -0.625,-0.15625 -1,-0.6875 -1,-1.265625 0,-0.703125 0.53125,-1.3125 1.3125,-1.3125 1.65625,0 1.875,1.640625 1.9375,2.078125 0.015625,0.0625 0.015625,0.125 0.125,0.125 0.125,0 0.125,-0.046875 0.125,-0.234375 v -2 c 0,-0.171875 0,-0.25 -0.109375,-0.25 -0.0625,0 -0.078125,0.015625 -0.140625,0.140625 l -0.359375,0.5625 C 3.796875,-6.625 3.390625,-7.03125 2.5,-7.03125 c -1.109375,0 -1.9375,0.875 -1.9375,1.9375 0,0.828125 0.53125,1.5625 1.296875,1.828125 0.109375,0.03125 0.625,0.15625 1.328125,0.328125 0.265625,0.0625 0.5625,0.140625 0.84375,0.5 0.203125,0.265625 0.3125,0.59375 0.3125,0.921875 0,0.703125 -0.5,1.421875 -1.34375,1.421875 -0.28125,0 -1.046875,-0.046875 -1.578125,-0.53125 C 0.84375,-1.171875 0.8125,-1.796875 0.8125,-2.15625 0.796875,-2.265625 0.71875,-2.265625 0.6875,-2.265625 c -0.125,0 -0.125,0.078125 -0.125,0.25 v 2 c 0,0.171875 0,0.234375 0.109375,0.234375 0.0625,0 0.078125,-0.015625 0.140625,-0.125 0,0 0.03125,-0.046875 0.359375,-0.578125 0.3125,0.34375 0.953125,0.703125 1.84375,0.703125 1.15625,0 1.953125,-0.96875 1.953125,-2.078125 z m 0,0"
             id="id-eba85b22-f34c-45ce-9ea1-36d073a5baae"
             style="stroke-width:0" />
        </g>
      </g>
    </g>
    <g
       transform="matrix(0.529167,0,0,0.529167,81.1035,108.848)"
       ns1:version="1.10.0"
       ns1:texconverter="xelatex"
       ns1:pdfconverter="inkscape"
       ns1:text="M"
       ns1:preamble="C:\Users\Ichinoe\AppData\Roaming\inkscape\extensions\textext\default_packages.tex"
       ns1:scale="1.5"
       ns1:alignment="middle center"
       ns1:stroke-to-path="0"
       ns1:inkscapeversion="1.3.2"
       id="g16"
       ns1:jacobian_sqrt="0.529167"
       style="stroke-width:0">
      <defs
         id="id-348ae987-5b84-42e6-b61f-03a4e146b26b"
         style="stroke-width:0">
        <g
           id="id-c4ec5dbd-a13d-4f09-8350-bf963a38290f"
           style="stroke-width:0">
          <g
             id="id-bcfb0669-5a98-4040-a9ee-f6751c9c315c"
             style="stroke-width:0">
            <path
               d="m 8.765625,0 v -0.3125 h -0.25 c -0.765625,0 -0.78125,-0.109375 -0.78125,-0.46875 v -5.25 C 7.734375,-6.390625 7.75,-6.5 8.515625,-6.5 h 0.25 v -0.3125 h -1.6875 C 6.8125,-6.8125 6.8125,-6.796875 6.75,-6.625 L 4.5625,-1 2.40625,-6.59375 C 2.3125,-6.8125 2.28125,-6.8125 2.046875,-6.8125 H 0.375 V -6.5 h 0.234375 c 0.765625,0 0.78125,0.109375 0.78125,0.46875 v 4.984375 c 0,0.265625 0,0.734375 -1.015625,0.734375 V 0 L 1.53125,-0.03125 2.703125,0 v -0.3125 c -1.03125,0 -1.03125,-0.46875 -1.03125,-0.734375 v -5.375 H 1.6875 L 4.09375,-0.21875 C 4.140625,-0.09375 4.1875,0 4.28125,0 4.390625,0 4.421875,-0.078125 4.46875,-0.1875 L 6.921875,-6.5 v 5.71875 c 0,0.359375 -0.015625,0.46875 -0.78125,0.46875 H 5.90625 V 0 c 0.359375,-0.03125 1.046875,-0.03125 1.4375,-0.03125 0.375,0 1.046875,0 1.421875,0.03125 z m 0,0"
               id="id-0cfed569-7d03-45f6-99d8-b7ab3e3079fb"
               style="stroke-width:0" />
          </g>
        </g>
      </defs>
      <g
         fill="#000000"
         fill-opacity="1"
         id="id-4f7cae72-5390-4005-894d-81be4991d00f"
         transform="translate(-149.087,-127.953)"
         style="stroke-width:0">
        <g
           transform="translate(148.712,134.765)"
           id="g610"
           style="stroke-width:0">
          <path
             d="m 8.765625,0 v -0.3125 h -0.25 c -0.765625,0 -0.78125,-0.109375 -0.78125,-0.46875 v -5.25 C 7.734375,-6.390625 7.75,-6.5 8.515625,-6.5 h 0.25 v -0.3125 h -1.6875 C 6.8125,-6.8125 6.8125,-6.796875 6.75,-6.625 L 4.5625,-1 2.40625,-6.59375 C 2.3125,-6.8125 2.28125,-6.8125 2.046875,-6.8125 H 0.375 V -6.5 h 0.234375 c 0.765625,0 0.78125,0.109375 0.78125,0.46875 v 4.984375 c 0,0.265625 0,0.734375 -1.015625,0.734375 V 0 L 1.53125,-0.03125 2.703125,0 v -0.3125 c -1.03125,0 -1.03125,-0.46875 -1.03125,-0.734375 v -5.375 H 1.6875 L 4.09375,-0.21875 C 4.140625,-0.09375 4.1875,0 4.28125,0 4.390625,0 4.421875,-0.078125 4.46875,-0.1875 L 6.921875,-6.5 v 5.71875 c 0,0.359375 -0.015625,0.46875 -0.78125,0.46875 H 5.90625 V 0 c 0.359375,-0.03125 1.046875,-0.03125 1.4375,-0.03125 0.375,0 1.046875,0 1.421875,0.03125 z m 0,0"
             id="id-6e593ac2-08b1-4a8c-8927-eff1456944b8"
             style="stroke-width:0" />
        </g>
      </g>
    </g>
    <g
       transform="matrix(0.529167,0,0,0.529167,55.5739,120.284)"
       ns1:version="1.10.0"
       ns1:texconverter="xelatex"
       ns1:pdfconverter="inkscape"
       ns1:text="S"
       ns1:preamble="C:\Users\Ichinoe\AppData\Roaming\inkscape\extensions\textext\default_packages.tex"
       ns1:scale="1.5"
       ns1:alignment="middle center"
       ns1:stroke-to-path="0"
       ns1:inkscapeversion="1.3.2"
       id="g89"
       ns1:jacobian_sqrt="0.529167"
       style="stroke-width:0">
      <defs
         id="id-5d7f0859-e950-4565-9b42-56e460aaeee7"
         style="stroke-width:0">
        <g
           id="id-e733ff16-bb2b-44db-bcd3-293d9d055a7c"
           style="stroke-width:0">
          <g
             id="id-16cd64d9-3cb6-49fa-b973-8ce8d162e502"
             style="stroke-width:0">
            <path
               d="m 4.96875,-1.859375 c 0,-0.984375 -0.65625,-1.8125 -1.484375,-2.015625 l -1.28125,-0.296875 c -0.625,-0.15625 -1,-0.6875 -1,-1.265625 0,-0.703125 0.53125,-1.3125 1.3125,-1.3125 1.65625,0 1.875,1.640625 1.9375,2.078125 0.015625,0.0625 0.015625,0.125 0.125,0.125 0.125,0 0.125,-0.046875 0.125,-0.234375 v -2 c 0,-0.171875 0,-0.25 -0.109375,-0.25 -0.0625,0 -0.078125,0.015625 -0.140625,0.140625 l -0.359375,0.5625 C 3.796875,-6.625 3.390625,-7.03125 2.5,-7.03125 c -1.109375,0 -1.9375,0.875 -1.9375,1.9375 0,0.828125 0.53125,1.5625 1.296875,1.828125 0.109375,0.03125 0.625,0.15625 1.328125,0.328125 0.265625,0.0625 0.5625,0.140625 0.84375,0.5 0.203125,0.265625 0.3125,0.59375 0.3125,0.921875 0,0.703125 -0.5,1.421875 -1.34375,1.421875 -0.28125,0 -1.046875,-0.046875 -1.578125,-0.53125 C 0.84375,-1.171875 0.8125,-1.796875 0.8125,-2.15625 0.796875,-2.265625 0.71875,-2.265625 0.6875,-2.265625 c -0.125,0 -0.125,0.078125 -0.125,0.25 v 2 c 0,0.171875 0,0.234375 0.109375,0.234375 0.0625,0 0.078125,-0.015625 0.140625,-0.125 0,0 0.03125,-0.046875 0.359375,-0.578125 0.3125,0.34375 0.953125,0.703125 1.84375,0.703125 1.15625,0 1.953125,-0.96875 1.953125,-2.078125 z m 0,0"
               id="id-c3d2d900-4e78-4829-b387-a9e8c76f34c6"
               style="stroke-width:0" />
          </g>
        </g>
      </defs>
      <g
         fill="#000000"
         fill-opacity="1"
         id="id-28392498-fc6a-4971-8242-70cc12773967"
         transform="translate(-149.275,-127.734)"
         style="stroke-width:0">
        <g
           transform="translate(148.712,134.765)"
           id="g6519"
           style="stroke-width:0">
          <path
             d="m 4.96875,-1.859375 c 0,-0.984375 -0.65625,-1.8125 -1.484375,-2.015625 l -1.28125,-0.296875 c -0.625,-0.15625 -1,-0.6875 -1,-1.265625 0,-0.703125 0.53125,-1.3125 1.3125,-1.3125 1.65625,0 1.875,1.640625 1.9375,2.078125 0.015625,0.0625 0.015625,0.125 0.125,0.125 0.125,0 0.125,-0.046875 0.125,-0.234375 v -2 c 0,-0.171875 0,-0.25 -0.109375,-0.25 -0.0625,0 -0.078125,0.015625 -0.140625,0.140625 l -0.359375,0.5625 C 3.796875,-6.625 3.390625,-7.03125 2.5,-7.03125 c -1.109375,0 -1.9375,0.875 -1.9375,1.9375 0,0.828125 0.53125,1.5625 1.296875,1.828125 0.109375,0.03125 0.625,0.15625 1.328125,0.328125 0.265625,0.0625 0.5625,0.140625 0.84375,0.5 0.203125,0.265625 0.3125,0.59375 0.3125,0.921875 0,0.703125 -0.5,1.421875 -1.34375,1.421875 -0.28125,0 -1.046875,-0.046875 -1.578125,-0.53125 C 0.84375,-1.171875 0.8125,-1.796875 0.8125,-2.15625 0.796875,-2.265625 0.71875,-2.265625 0.6875,-2.265625 c -0.125,0 -0.125,0.078125 -0.125,0.25 v 2 c 0,0.171875 0,0.234375 0.109375,0.234375 0.0625,0 0.078125,-0.015625 0.140625,-0.125 0,0 0.03125,-0.046875 0.359375,-0.578125 0.3125,0.34375 0.953125,0.703125 1.84375,0.703125 1.15625,0 1.953125,-0.96875 1.953125,-2.078125 z m 0,0"
             id="id-1e52d760-4edb-486b-9c6d-9050f8fa7d23"
             style="stroke-width:0" />
        </g>
      </g>
    </g>
    <g
       transform="matrix(0.529167,0,0,0.529167,81.769,120.399)"
       ns1:version="1.10.0"
       ns1:texconverter="xelatex"
       ns1:pdfconverter="inkscape"
       ns1:text="P"
       ns1:preamble="C:\Users\Ichinoe\AppData\Roaming\inkscape\extensions\textext\default_packages.tex"
       ns1:scale="1.5"
       ns1:alignment="middle center"
       ns1:stroke-to-path="0"
       ns1:inkscapeversion="1.3.2"
       id="g94"
       ns1:jacobian_sqrt="0.529167"
       style="stroke-width:0">
      <defs
         id="id-94701ff7-e53b-4dea-a8b2-c10d41cd6e41"
         style="stroke-width:0">
        <g
           id="id-c5cdf12f-0ea7-42ee-b09e-7cb84b9a14a1"
           style="stroke-width:0">
          <g
             id="id-7ccc6461-da7d-4a13-9909-0ba11a5bdf79"
             style="stroke-width:0">
            <path
               d="M 6.21875,-4.953125 C 6.21875,-5.9375 5.234375,-6.8125 3.875,-6.8125 H 0.34375 V -6.5 h 0.25 c 0.765625,0 0.78125,0.109375 0.78125,0.46875 v 5.25 c 0,0.359375 -0.015625,0.46875 -0.78125,0.46875 h -0.25 V 0 c 0.359375,-0.03125 1.09375,-0.03125 1.46875,-0.03125 0.375,0 1.125,0 1.484375,0.03125 v -0.3125 h -0.25 c -0.765625,0 -0.78125,-0.109375 -0.78125,-0.46875 v -2.375 h 1.6875 c 1.1875,0 2.265625,-0.796875 2.265625,-1.796875 z m -1.03125,0 c 0,0.46875 0,1.546875 -1.578125,1.546875 h -1.375 v -2.6875 C 2.234375,-6.4375 2.25,-6.5 2.71875,-6.5 H 3.609375 C 5.1875,-6.5 5.1875,-5.4375 5.1875,-4.953125 Z m 0,0"
               id="id-e25c306e-dda4-49d4-ab56-2853c43c297b"
               style="stroke-width:0" />
          </g>
        </g>
      </defs>
      <g
         fill="#000000"
         fill-opacity="1"
         id="id-5ff653f3-f455-459a-9694-6edd4f35d184"
         transform="translate(-149.056,-127.953)"
         style="stroke-width:0">
        <g
           transform="translate(148.712,134.765)"
           id="g5406"
           style="stroke-width:0">
          <path
             d="M 6.21875,-4.953125 C 6.21875,-5.9375 5.234375,-6.8125 3.875,-6.8125 H 0.34375 V -6.5 h 0.25 c 0.765625,0 0.78125,0.109375 0.78125,0.46875 v 5.25 c 0,0.359375 -0.015625,0.46875 -0.78125,0.46875 h -0.25 V 0 c 0.359375,-0.03125 1.09375,-0.03125 1.46875,-0.03125 0.375,0 1.125,0 1.484375,0.03125 v -0.3125 h -0.25 c -0.765625,0 -0.78125,-0.109375 -0.78125,-0.46875 v -2.375 h 1.6875 c 1.1875,0 2.265625,-0.796875 2.265625,-1.796875 z m -1.03125,0 c 0,0.46875 0,1.546875 -1.578125,1.546875 h -1.375 v -2.6875 C 2.234375,-6.4375 2.25,-6.5 2.71875,-6.5 H 3.609375 C 5.1875,-6.5 5.1875,-5.4375 5.1875,-4.953125 Z m 0,0"
             id="id-8a22d79a-a543-4aeb-bce5-e3c5c618dbac"
             style="stroke-width:0" />
        </g>
      </g>
    </g>
    <g
       transform="matrix(0.529167,0,0,0.529167,99.002,84.0935)"
       ns1:version="1.10.0"
       ns1:texconverter="xelatex"
       ns1:pdfconverter="inkscape"
       ns1:text="P"
       ns1:preamble="C:\Users\Ichinoe\AppData\Roaming\inkscape\extensions\textext\default_packages.tex"
       ns1:scale="1.5"
       ns1:alignment="middle center"
       ns1:stroke-to-path="0"
       ns1:inkscapeversion="1.3.2"
       id="g23"
       ns1:jacobian_sqrt="0.529167"
       style="stroke-width:0">
      <defs
         id="id-c72c98fa-e777-41ed-b6ad-c352fd759eb9"
         style="stroke-width:0">
        <g
           id="id-68d420ee-c1e7-40ee-9315-e2ad02e440cf"
           style="stroke-width:0">
          <g
             id="id-b672f14b-9822-4235-b8fb-08947b5a4889"
             style="stroke-width:0">
            <path
               d="M 6.21875,-4.953125 C 6.21875,-5.9375 5.234375,-6.8125 3.875,-6.8125 H 0.34375 V -6.5 h 0.25 c 0.765625,0 0.78125,0.109375 0.78125,0.46875 v 5.25 c 0,0.359375 -0.015625,0.46875 -0.78125,0.46875 h -0.25 V 0 c 0.359375,-0.03125 1.09375,-0.03125 1.46875,-0.03125 0.375,0 1.125,0 1.484375,0.03125 v -0.3125 h -0.25 c -0.765625,0 -0.78125,-0.109375 -0.78125,-0.46875 v -2.375 h 1.6875 c 1.1875,0 2.265625,-0.796875 2.265625,-1.796875 z m -1.03125,0 c 0,0.46875 0,1.546875 -1.578125,1.546875 h -1.375 v -2.6875 C 2.234375,-6.4375 2.25,-6.5 2.71875,-6.5 H 3.609375 C 5.1875,-6.5 5.1875,-5.4375 5.1875,-4.953125 Z m 0,0"
               id="id-8a2344d9-b031-4b9c-aac6-8399a25268c1"
               style="stroke-width:0" />
          </g>
        </g>
      </defs>
      <g
         fill="#000000"
         fill-opacity="1"
         id="id-aeb9e867-8e77-4aee-9993-127ff3f754f6"
         transform="translate(-149.056,-127.953)"
         style="stroke-width:0">
        <g
           transform="translate(148.712,134.765)"
           id="g2352"
           style="stroke-width:0">
          <path
             d="M 6.21875,-4.953125 C 6.21875,-5.9375 5.234375,-6.8125 3.875,-6.8125 H 0.34375 V -6.5 h 0.25 c 0.765625,0 0.78125,0.109375 0.78125,0.46875 v 5.25 c 0,0.359375 -0.015625,0.46875 -0.78125,0.46875 h -0.25 V 0 c 0.359375,-0.03125 1.09375,-0.03125 1.46875,-0.03125 0.375,0 1.125,0 1.484375,0.03125 v -0.3125 h -0.25 c -0.765625,0 -0.78125,-0.109375 -0.78125,-0.46875 v -2.375 h 1.6875 c 1.1875,0 2.265625,-0.796875 2.265625,-1.796875 z m -1.03125,0 c 0,0.46875 0,1.546875 -1.578125,1.546875 h -1.375 v -2.6875 C 2.234375,-6.4375 2.25,-6.5 2.71875,-6.5 H 3.609375 C 5.1875,-6.5 5.1875,-5.4375 5.1875,-4.953125 Z m 0,0"
             id="id-50042d14-5d49-47be-b8d5-db55d77cec02"
             style="stroke-width:0" />
        </g>
      </g>
    </g>
    <g
       transform="matrix(0.529167,0,0,0.529167,124.921,84.0929)"
       ns1:version="1.10.0"
       ns1:texconverter="xelatex"
       ns1:pdfconverter="inkscape"
       ns1:text="M"
       ns1:preamble="C:\Users\Ichinoe\AppData\Roaming\inkscape\extensions\textext\default_packages.tex"
       ns1:scale="1.5"
       ns1:alignment="middle center"
       ns1:stroke-to-path="0"
       ns1:inkscapeversion="1.3.2"
       id="g28"
       ns1:jacobian_sqrt="0.529167"
       style="stroke-width:0">
      <defs
         id="id-629b77ee-6a7d-4b38-8889-b6c28a63220b"
         style="stroke-width:0">
        <g
           id="id-3c15de41-5578-42c2-8af3-b236b265bffb"
           style="stroke-width:0">
          <g
             id="id-e044a7e3-8848-46f2-9d8e-6f472ea295b1"
             style="stroke-width:0">
            <path
               d="m 8.765625,0 v -0.3125 h -0.25 c -0.765625,0 -0.78125,-0.109375 -0.78125,-0.46875 v -5.25 C 7.734375,-6.390625 7.75,-6.5 8.515625,-6.5 h 0.25 v -0.3125 h -1.6875 C 6.8125,-6.8125 6.8125,-6.796875 6.75,-6.625 L 4.5625,-1 2.40625,-6.59375 C 2.3125,-6.8125 2.28125,-6.8125 2.046875,-6.8125 H 0.375 V -6.5 h 0.234375 c 0.765625,0 0.78125,0.109375 0.78125,0.46875 v 4.984375 c 0,0.265625 0,0.734375 -1.015625,0.734375 V 0 L 1.53125,-0.03125 2.703125,0 v -0.3125 c -1.03125,0 -1.03125,-0.46875 -1.03125,-0.734375 v -5.375 H 1.6875 L 4.09375,-0.21875 C 4.140625,-0.09375 4.1875,0 4.28125,0 4.390625,0 4.421875,-0.078125 4.46875,-0.1875 L 6.921875,-6.5 v 5.71875 c 0,0.359375 -0.015625,0.46875 -0.78125,0.46875 H 5.90625 V 0 c 0.359375,-0.03125 1.046875,-0.03125 1.4375,-0.03125 0.375,0 1.046875,0 1.421875,0.03125 z m 0,0"
               id="id-f36dde5c-06f1-4d91-a2ab-c2abace7c3d7"
               style="stroke-width:0" />
          </g>
        </g>
      </defs>
      <g
         fill="#000000"
         fill-opacity="1"
         id="id-dfb65e83-c26a-416d-99e6-6bf49fe65054"
         transform="translate(-149.087,-127.953)"
         style="stroke-width:0">
        <g
           transform="translate(148.712,134.765)"
           id="g2222"
           style="stroke-width:0">
          <path
             d="m 8.765625,0 v -0.3125 h -0.25 c -0.765625,0 -0.78125,-0.109375 -0.78125,-0.46875 v -5.25 C 7.734375,-6.390625 7.75,-6.5 8.515625,-6.5 h 0.25 v -0.3125 h -1.6875 C 6.8125,-6.8125 6.8125,-6.796875 6.75,-6.625 L 4.5625,-1 2.40625,-6.59375 C 2.3125,-6.8125 2.28125,-6.8125 2.046875,-6.8125 H 0.375 V -6.5 h 0.234375 c 0.765625,0 0.78125,0.109375 0.78125,0.46875 v 4.984375 c 0,0.265625 0,0.734375 -1.015625,0.734375 V 0 L 1.53125,-0.03125 2.703125,0 v -0.3125 c -1.03125,0 -1.03125,-0.46875 -1.03125,-0.734375 v -5.375 H 1.6875 L 4.09375,-0.21875 C 4.140625,-0.09375 4.1875,0 4.28125,0 4.390625,0 4.421875,-0.078125 4.46875,-0.1875 L 6.921875,-6.5 v 5.71875 c 0,0.359375 -0.015625,0.46875 -0.78125,0.46875 H 5.90625 V 0 c 0.359375,-0.03125 1.046875,-0.03125 1.4375,-0.03125 0.375,0 1.046875,0 1.421875,0.03125 z m 0,0"
             id="id-e678269b-96f4-41c9-a207-997806589276"
             style="stroke-width:0" />
        </g>
      </g>
    </g>
    <g
       transform="matrix(0.529167,0,0,0.529167,99.3901,108.732)"
       ns1:version="1.10.0"
       ns1:texconverter="xelatex"
       ns1:pdfconverter="inkscape"
       ns1:text="S"
       ns1:preamble="C:\Users\Ichinoe\AppData\Roaming\inkscape\extensions\textext\default_packages.tex"
       ns1:scale="1.5"
       ns1:alignment="middle center"
       ns1:stroke-to-path="0"
       ns1:inkscapeversion="1.3.2"
       id="g33"
       ns1:jacobian_sqrt="0.529167"
       style="stroke-width:0">
      <defs
         id="id-9da1e8ba-8d00-455b-8835-5637b08eff4b"
         style="stroke-width:0">
        <g
           id="id-732740e5-93a5-4951-a427-a83adbb78aa5"
           style="stroke-width:0">
          <g
             id="id-26c70fb5-0c1f-45ab-85ac-3c45ce26a3b5"
             style="stroke-width:0">
            <path
               d="m 4.96875,-1.859375 c 0,-0.984375 -0.65625,-1.8125 -1.484375,-2.015625 l -1.28125,-0.296875 c -0.625,-0.15625 -1,-0.6875 -1,-1.265625 0,-0.703125 0.53125,-1.3125 1.3125,-1.3125 1.65625,0 1.875,1.640625 1.9375,2.078125 0.015625,0.0625 0.015625,0.125 0.125,0.125 0.125,0 0.125,-0.046875 0.125,-0.234375 v -2 c 0,-0.171875 0,-0.25 -0.109375,-0.25 -0.0625,0 -0.078125,0.015625 -0.140625,0.140625 l -0.359375,0.5625 C 3.796875,-6.625 3.390625,-7.03125 2.5,-7.03125 c -1.109375,0 -1.9375,0.875 -1.9375,1.9375 0,0.828125 0.53125,1.5625 1.296875,1.828125 0.109375,0.03125 0.625,0.15625 1.328125,0.328125 0.265625,0.0625 0.5625,0.140625 0.84375,0.5 0.203125,0.265625 0.3125,0.59375 0.3125,0.921875 0,0.703125 -0.5,1.421875 -1.34375,1.421875 -0.28125,0 -1.046875,-0.046875 -1.578125,-0.53125 C 0.84375,-1.171875 0.8125,-1.796875 0.8125,-2.15625 0.796875,-2.265625 0.71875,-2.265625 0.6875,-2.265625 c -0.125,0 -0.125,0.078125 -0.125,0.25 v 2 c 0,0.171875 0,0.234375 0.109375,0.234375 0.0625,0 0.078125,-0.015625 0.140625,-0.125 0,0 0.03125,-0.046875 0.359375,-0.578125 0.3125,0.34375 0.953125,0.703125 1.84375,0.703125 1.15625,0 1.953125,-0.96875 1.953125,-2.078125 z m 0,0"
               id="id-e9e00bc8-8f0c-439b-8b2a-92bfb0c8d0f4"
               style="stroke-width:0" />
          </g>
        </g>
      </defs>
      <g
         fill="#000000"
         fill-opacity="1"
         id="id-2dd7f26b-16c2-47cb-b20d-445e7d096648"
         transform="translate(-149.275,-127.734)"
         style="stroke-width:0">
        <g
           transform="translate(148.712,134.765)"
           id="g2988"
           style="stroke-width:0">
          <path
             d="m 4.96875,-1.859375 c 0,-0.984375 -0.65625,-1.8125 -1.484375,-2.015625 l -1.28125,-0.296875 c -0.625,-0.15625 -1,-0.6875 -1,-1.265625 0,-0.703125 0.53125,-1.3125 1.3125,-1.3125 1.65625,0 1.875,1.640625 1.9375,2.078125 0.015625,0.0625 0.015625,0.125 0.125,0.125 0.125,0 0.125,-0.046875 0.125,-0.234375 v -2 c 0,-0.171875 0,-0.25 -0.109375,-0.25 -0.0625,0 -0.078125,0.015625 -0.140625,0.140625 l -0.359375,0.5625 C 3.796875,-6.625 3.390625,-7.03125 2.5,-7.03125 c -1.109375,0 -1.9375,0.875 -1.9375,1.9375 0,0.828125 0.53125,1.5625 1.296875,1.828125 0.109375,0.03125 0.625,0.15625 1.328125,0.328125 0.265625,0.0625 0.5625,0.140625 0.84375,0.5 0.203125,0.265625 0.3125,0.59375 0.3125,0.921875 0,0.703125 -0.5,1.421875 -1.34375,1.421875 -0.28125,0 -1.046875,-0.046875 -1.578125,-0.53125 C 0.84375,-1.171875 0.8125,-1.796875 0.8125,-2.15625 0.796875,-2.265625 0.71875,-2.265625 0.6875,-2.265625 c -0.125,0 -0.125,0.078125 -0.125,0.25 v 2 c 0,0.171875 0,0.234375 0.109375,0.234375 0.0625,0 0.078125,-0.015625 0.140625,-0.125 0,0 0.03125,-0.046875 0.359375,-0.578125 0.3125,0.34375 0.953125,0.703125 1.84375,0.703125 1.15625,0 1.953125,-0.96875 1.953125,-2.078125 z m 0,0"
             id="id-b45dd91a-e73f-439c-bb4b-f272f66dcc88"
             style="stroke-width:0" />
        </g>
      </g>
    </g>
    <g
       transform="matrix(0.529167,0,0,0.529167,124.921,108.848)"
       ns1:version="1.10.0"
       ns1:texconverter="xelatex"
       ns1:pdfconverter="inkscape"
       ns1:text="M"
       ns1:preamble="C:\Users\Ichinoe\AppData\Roaming\inkscape\extensions\textext\default_packages.tex"
       ns1:scale="1.5"
       ns1:alignment="middle center"
       ns1:stroke-to-path="0"
       ns1:inkscapeversion="1.3.2"
       id="g38"
       ns1:jacobian_sqrt="0.529167"
       style="stroke-width:0">
      <defs
         id="id-f64dbd2f-9605-4218-904e-db7bc9226ac9"
         style="stroke-width:0">
        <g
           id="id-43f6cecf-befb-40d8-b21f-5cacd81d9f76"
           style="stroke-width:0">
          <g
             id="id-60902b43-2bbc-41b2-8909-76d83c87ac6d"
             style="stroke-width:0">
            <path
               d="m 8.765625,0 v -0.3125 h -0.25 c -0.765625,0 -0.78125,-0.109375 -0.78125,-0.46875 v -5.25 C 7.734375,-6.390625 7.75,-6.5 8.515625,-6.5 h 0.25 v -0.3125 h -1.6875 C 6.8125,-6.8125 6.8125,-6.796875 6.75,-6.625 L 4.5625,-1 2.40625,-6.59375 C 2.3125,-6.8125 2.28125,-6.8125 2.046875,-6.8125 H 0.375 V -6.5 h 0.234375 c 0.765625,0 0.78125,0.109375 0.78125,0.46875 v 4.984375 c 0,0.265625 0,0.734375 -1.015625,0.734375 V 0 L 1.53125,-0.03125 2.703125,0 v -0.3125 c -1.03125,0 -1.03125,-0.46875 -1.03125,-0.734375 v -5.375 H 1.6875 L 4.09375,-0.21875 C 4.140625,-0.09375 4.1875,0 4.28125,0 4.390625,0 4.421875,-0.078125 4.46875,-0.1875 L 6.921875,-6.5 v 5.71875 c 0,0.359375 -0.015625,0.46875 -0.78125,0.46875 H 5.90625 V 0 c 0.359375,-0.03125 1.046875,-0.03125 1.4375,-0.03125 0.375,0 1.046875,0 1.421875,0.03125 z m 0,0"
               id="id-5e0f9b1a-9b62-4576-804d-2de1990432b4"
               style="stroke-width:0" />
          </g>
        </g>
      </defs>
      <g
         fill="#000000"
         fill-opacity="1"
         id="id-c631d7c8-cede-48a9-893b-fe9d649772f9"
         transform="translate(-149.087,-127.953)"
         style="stroke-width:0">
        <g
           transform="translate(148.712,134.765)"
           id="g3039"
           style="stroke-width:0">
          <path
             d="m 8.765625,0 v -0.3125 h -0.25 c -0.765625,0 -0.78125,-0.109375 -0.78125,-0.46875 v -5.25 C 7.734375,-6.390625 7.75,-6.5 8.515625,-6.5 h 0.25 v -0.3125 h -1.6875 C 6.8125,-6.8125 6.8125,-6.796875 6.75,-6.625 L 4.5625,-1 2.40625,-6.59375 C 2.3125,-6.8125 2.28125,-6.8125 2.046875,-6.8125 H 0.375 V -6.5 h 0.234375 c 0.765625,0 0.78125,0.109375 0.78125,0.46875 v 4.984375 c 0,0.265625 0,0.734375 -1.015625,0.734375 V 0 L 1.53125,-0.03125 2.703125,0 v -0.3125 c -1.03125,0 -1.03125,-0.46875 -1.03125,-0.734375 v -5.375 H 1.6875 L 4.09375,-0.21875 C 4.140625,-0.09375 4.1875,0 4.28125,0 4.390625,0 4.421875,-0.078125 4.46875,-0.1875 L 6.921875,-6.5 v 5.71875 c 0,0.359375 -0.015625,0.46875 -0.78125,0.46875 H 5.90625 V 0 c 0.359375,-0.03125 1.046875,-0.03125 1.4375,-0.03125 0.375,0 1.046875,0 1.421875,0.03125 z m 0,0"
             id="id-41649787-6563-4016-b700-6d3cf2989fcf"
             style="stroke-width:0" />
        </g>
      </g>
    </g>
    <g
       transform="matrix(0.529167,0,0,0.529167,99.3901,120.284)"
       ns1:version="1.10.0"
       ns1:texconverter="xelatex"
       ns1:pdfconverter="inkscape"
       ns1:text="S"
       ns1:preamble="C:\Users\Ichinoe\AppData\Roaming\inkscape\extensions\textext\default_packages.tex"
       ns1:scale="1.5"
       ns1:alignment="middle center"
       ns1:stroke-to-path="0"
       ns1:inkscapeversion="1.3.2"
       id="g99"
       ns1:jacobian_sqrt="0.529167"
       style="stroke-width:0">
      <defs
         id="id-f98ee910-27b6-4e59-976d-da65d6fd219d"
         style="stroke-width:0">
        <g
           id="id-3fbc1020-a76c-425b-9d69-a9990114ef24"
           style="stroke-width:0">
          <g
             id="id-e8063d2a-3a74-4ae3-b4bc-6d3868fa2d4e"
             style="stroke-width:0">
            <path
               d="m 4.96875,-1.859375 c 0,-0.984375 -0.65625,-1.8125 -1.484375,-2.015625 l -1.28125,-0.296875 c -0.625,-0.15625 -1,-0.6875 -1,-1.265625 0,-0.703125 0.53125,-1.3125 1.3125,-1.3125 1.65625,0 1.875,1.640625 1.9375,2.078125 0.015625,0.0625 0.015625,0.125 0.125,0.125 0.125,0 0.125,-0.046875 0.125,-0.234375 v -2 c 0,-0.171875 0,-0.25 -0.109375,-0.25 -0.0625,0 -0.078125,0.015625 -0.140625,0.140625 l -0.359375,0.5625 C 3.796875,-6.625 3.390625,-7.03125 2.5,-7.03125 c -1.109375,0 -1.9375,0.875 -1.9375,1.9375 0,0.828125 0.53125,1.5625 1.296875,1.828125 0.109375,0.03125 0.625,0.15625 1.328125,0.328125 0.265625,0.0625 0.5625,0.140625 0.84375,0.5 0.203125,0.265625 0.3125,0.59375 0.3125,0.921875 0,0.703125 -0.5,1.421875 -1.34375,1.421875 -0.28125,0 -1.046875,-0.046875 -1.578125,-0.53125 C 0.84375,-1.171875 0.8125,-1.796875 0.8125,-2.15625 0.796875,-2.265625 0.71875,-2.265625 0.6875,-2.265625 c -0.125,0 -0.125,0.078125 -0.125,0.25 v 2 c 0,0.171875 0,0.234375 0.109375,0.234375 0.0625,0 0.078125,-0.015625 0.140625,-0.125 0,0 0.03125,-0.046875 0.359375,-0.578125 0.3125,0.34375 0.953125,0.703125 1.84375,0.703125 1.15625,0 1.953125,-0.96875 1.953125,-2.078125 z m 0,0"
               id="id-2260f81d-d1ba-4dca-bf2b-50ad800155da"
               style="stroke-width:0" />
          </g>
        </g>
      </defs>
      <g
         fill="#000000"
         fill-opacity="1"
         id="id-e6cf7849-4f9c-446f-addd-15474a2714d2"
         transform="translate(-149.275,-127.734)"
         style="stroke-width:0">
        <g
           transform="translate(148.712,134.765)"
           id="g6303"
           style="stroke-width:0">
          <path
             d="m 4.96875,-1.859375 c 0,-0.984375 -0.65625,-1.8125 -1.484375,-2.015625 l -1.28125,-0.296875 c -0.625,-0.15625 -1,-0.6875 -1,-1.265625 0,-0.703125 0.53125,-1.3125 1.3125,-1.3125 1.65625,0 1.875,1.640625 1.9375,2.078125 0.015625,0.0625 0.015625,0.125 0.125,0.125 0.125,0 0.125,-0.046875 0.125,-0.234375 v -2 c 0,-0.171875 0,-0.25 -0.109375,-0.25 -0.0625,0 -0.078125,0.015625 -0.140625,0.140625 l -0.359375,0.5625 C 3.796875,-6.625 3.390625,-7.03125 2.5,-7.03125 c -1.109375,0 -1.9375,0.875 -1.9375,1.9375 0,0.828125 0.53125,1.5625 1.296875,1.828125 0.109375,0.03125 0.625,0.15625 1.328125,0.328125 0.265625,0.0625 0.5625,0.140625 0.84375,0.5 0.203125,0.265625 0.3125,0.59375 0.3125,0.921875 0,0.703125 -0.5,1.421875 -1.34375,1.421875 -0.28125,0 -1.046875,-0.046875 -1.578125,-0.53125 C 0.84375,-1.171875 0.8125,-1.796875 0.8125,-2.15625 0.796875,-2.265625 0.71875,-2.265625 0.6875,-2.265625 c -0.125,0 -0.125,0.078125 -0.125,0.25 v 2 c 0,0.171875 0,0.234375 0.109375,0.234375 0.0625,0 0.078125,-0.015625 0.140625,-0.125 0,0 0.03125,-0.046875 0.359375,-0.578125 0.3125,0.34375 0.953125,0.703125 1.84375,0.703125 1.15625,0 1.953125,-0.96875 1.953125,-2.078125 z m 0,0"
             id="id-a181a8b5-dbd1-4822-947b-9d7795596c9a"
             style="stroke-width:0" />
        </g>
      </g>
    </g>
    <g
       transform="matrix(0.529167,0,0,0.529167,125.587,120.399)"
       ns1:version="1.10.0"
       ns1:texconverter="xelatex"
       ns1:pdfconverter="inkscape"
       ns1:text="P"
       ns1:preamble="C:\Users\Ichinoe\AppData\Roaming\inkscape\extensions\textext\default_packages.tex"
       ns1:scale="1.5"
       ns1:alignment="middle center"
       ns1:stroke-to-path="0"
       ns1:inkscapeversion="1.3.2"
       id="g104"
       ns1:jacobian_sqrt="0.529167"
       style="stroke-width:0">
      <defs
         id="id-a44fc872-f561-4008-9cac-c4bc15fb636b"
         style="stroke-width:0">
        <g
           id="id-bd687b2c-10a3-4754-bd4b-2412c4286af1"
           style="stroke-width:0">
          <g
             id="id-fdc13db8-0029-4d01-90ba-4a0f86bad343"
             style="stroke-width:0">
            <path
               d="M 6.21875,-4.953125 C 6.21875,-5.9375 5.234375,-6.8125 3.875,-6.8125 H 0.34375 V -6.5 h 0.25 c 0.765625,0 0.78125,0.109375 0.78125,0.46875 v 5.25 c 0,0.359375 -0.015625,0.46875 -0.78125,0.46875 h -0.25 V 0 c 0.359375,-0.03125 1.09375,-0.03125 1.46875,-0.03125 0.375,0 1.125,0 1.484375,0.03125 v -0.3125 h -0.25 c -0.765625,0 -0.78125,-0.109375 -0.78125,-0.46875 v -2.375 h 1.6875 c 1.1875,0 2.265625,-0.796875 2.265625,-1.796875 z m -1.03125,0 c 0,0.46875 0,1.546875 -1.578125,1.546875 h -1.375 v -2.6875 C 2.234375,-6.4375 2.25,-6.5 2.71875,-6.5 H 3.609375 C 5.1875,-6.5 5.1875,-5.4375 5.1875,-4.953125 Z m 0,0"
               id="id-d4b3897f-21bb-4b8e-952a-27b2c4fdd1b8"
               style="stroke-width:0" />
          </g>
        </g>
      </defs>
      <g
         fill="#000000"
         fill-opacity="1"
         id="id-3261ea0f-fd96-4153-988f-7aae4be63de3"
         transform="translate(-149.056,-127.953)"
         style="stroke-width:0">
        <g
           transform="translate(148.712,134.765)"
           id="g1189"
           style="stroke-width:0">
          <path
             d="M 6.21875,-4.953125 C 6.21875,-5.9375 5.234375,-6.8125 3.875,-6.8125 H 0.34375 V -6.5 h 0.25 c 0.765625,0 0.78125,0.109375 0.78125,0.46875 v 5.25 c 0,0.359375 -0.015625,0.46875 -0.78125,0.46875 h -0.25 V 0 c 0.359375,-0.03125 1.09375,-0.03125 1.46875,-0.03125 0.375,0 1.125,0 1.484375,0.03125 v -0.3125 h -0.25 c -0.765625,0 -0.78125,-0.109375 -0.78125,-0.46875 v -2.375 h 1.6875 c 1.1875,0 2.265625,-0.796875 2.265625,-1.796875 z m -1.03125,0 c 0,0.46875 0,1.546875 -1.578125,1.546875 h -1.375 v -2.6875 C 2.234375,-6.4375 2.25,-6.5 2.71875,-6.5 H 3.609375 C 5.1875,-6.5 5.1875,-5.4375 5.1875,-4.953125 Z m 0,0"
             id="id-e2dd91c2-52c4-422a-8031-6f30791920dc"
             style="stroke-width:0" />
        </g>
      </g>
    </g>
    <g
       transform="matrix(0.529167,0,0,0.529167,142.154,84.0929)"
       ns1:version="1.10.0"
       ns1:texconverter="xelatex"
       ns1:pdfconverter="inkscape"
       ns1:text="M"
       ns1:preamble="C:\Users\Ichinoe\AppData\Roaming\inkscape\extensions\textext\default_packages.tex"
       ns1:scale="1.5"
       ns1:alignment="middle center"
       ns1:stroke-to-path="0"
       ns1:inkscapeversion="1.3.2"
       id="g45"
       ns1:jacobian_sqrt="0.529167"
       style="stroke-width:0">
      <defs
         id="id-17f392fe-f2ac-4a9b-aa61-29f17ef59d82"
         style="stroke-width:0">
        <g
           id="id-dbbfe95e-4a44-4f00-8079-786be71abafa"
           style="stroke-width:0">
          <g
             id="id-a1f3b8e0-4411-450e-8475-c6bcd8bd6ced"
             style="stroke-width:0">
            <path
               d="m 8.765625,0 v -0.3125 h -0.25 c -0.765625,0 -0.78125,-0.109375 -0.78125,-0.46875 v -5.25 C 7.734375,-6.390625 7.75,-6.5 8.515625,-6.5 h 0.25 v -0.3125 h -1.6875 C 6.8125,-6.8125 6.8125,-6.796875 6.75,-6.625 L 4.5625,-1 2.40625,-6.59375 C 2.3125,-6.8125 2.28125,-6.8125 2.046875,-6.8125 H 0.375 V -6.5 h 0.234375 c 0.765625,0 0.78125,0.109375 0.78125,0.46875 v 4.984375 c 0,0.265625 0,0.734375 -1.015625,0.734375 V 0 L 1.53125,-0.03125 2.703125,0 v -0.3125 c -1.03125,0 -1.03125,-0.46875 -1.03125,-0.734375 v -5.375 H 1.6875 L 4.09375,-0.21875 C 4.140625,-0.09375 4.1875,0 4.28125,0 4.390625,0 4.421875,-0.078125 4.46875,-0.1875 L 6.921875,-6.5 v 5.71875 c 0,0.359375 -0.015625,0.46875 -0.78125,0.46875 H 5.90625 V 0 c 0.359375,-0.03125 1.046875,-0.03125 1.4375,-0.03125 0.375,0 1.046875,0 1.421875,0.03125 z m 0,0"
               id="id-7f91cd04-7b58-492b-83d2-5309ea908ec7"
               style="stroke-width:0" />
          </g>
        </g>
      </defs>
      <g
         fill="#000000"
         fill-opacity="1"
         id="id-fffdd4a1-b5ba-4e04-8eaa-8bd11f26c559"
         transform="translate(-149.087,-127.953)"
         style="stroke-width:0">
        <g
           transform="translate(148.712,134.765)"
           id="g3635"
           style="stroke-width:0">
          <path
             d="m 8.765625,0 v -0.3125 h -0.25 c -0.765625,0 -0.78125,-0.109375 -0.78125,-0.46875 v -5.25 C 7.734375,-6.390625 7.75,-6.5 8.515625,-6.5 h 0.25 v -0.3125 h -1.6875 C 6.8125,-6.8125 6.8125,-6.796875 6.75,-6.625 L 4.5625,-1 2.40625,-6.59375 C 2.3125,-6.8125 2.28125,-6.8125 2.046875,-6.8125 H 0.375 V -6.5 h 0.234375 c 0.765625,0 0.78125,0.109375 0.78125,0.46875 v 4.984375 c 0,0.265625 0,0.734375 -1.015625,0.734375 V 0 L 1.53125,-0.03125 2.703125,0 v -0.3125 c -1.03125,0 -1.03125,-0.46875 -1.03125,-0.734375 v -5.375 H 1.6875 L 4.09375,-0.21875 C 4.140625,-0.09375 4.1875,0 4.28125,0 4.390625,0 4.421875,-0.078125 4.46875,-0.1875 L 6.921875,-6.5 v 5.71875 c 0,0.359375 -0.015625,0.46875 -0.78125,0.46875 H 5.90625 V 0 c 0.359375,-0.03125 1.046875,-0.03125 1.4375,-0.03125 0.375,0 1.046875,0 1.421875,0.03125 z m 0,0"
             id="id-40ec22e5-ea2b-45ac-b48d-2f7963a387c8"
             style="stroke-width:0" />
        </g>
      </g>
    </g>
    <g
       transform="matrix(0.529167,0,0,0.529167,142.154,108.848)"
       ns1:version="1.10.0"
       ns1:texconverter="xelatex"
       ns1:pdfconverter="inkscape"
       ns1:text="M"
       ns1:preamble="C:\Users\Ichinoe\AppData\Roaming\inkscape\extensions\textext\default_packages.tex"
       ns1:scale="1.5"
       ns1:alignment="middle center"
       ns1:stroke-to-path="0"
       ns1:inkscapeversion="1.3.2"
       id="g55"
       ns1:jacobian_sqrt="0.529167"
       style="stroke-width:0">
      <defs
         id="id-f4786689-c0c4-431c-b1ff-8729ac193c65"
         style="stroke-width:0">
        <g
           id="id-4462d60d-a76e-484a-a2c4-8527c6174905"
           style="stroke-width:0">
          <g
             id="id-b1ffa02f-b4f0-4431-a3e6-2f84f22c5404"
             style="stroke-width:0">
            <path
               d="m 8.765625,0 v -0.3125 h -0.25 c -0.765625,0 -0.78125,-0.109375 -0.78125,-0.46875 v -5.25 C 7.734375,-6.390625 7.75,-6.5 8.515625,-6.5 h 0.25 v -0.3125 h -1.6875 C 6.8125,-6.8125 6.8125,-6.796875 6.75,-6.625 L 4.5625,-1 2.40625,-6.59375 C 2.3125,-6.8125 2.28125,-6.8125 2.046875,-6.8125 H 0.375 V -6.5 h 0.234375 c 0.765625,0 0.78125,0.109375 0.78125,0.46875 v 4.984375 c 0,0.265625 0,0.734375 -1.015625,0.734375 V 0 L 1.53125,-0.03125 2.703125,0 v -0.3125 c -1.03125,0 -1.03125,-0.46875 -1.03125,-0.734375 v -5.375 H 1.6875 L 4.09375,-0.21875 C 4.140625,-0.09375 4.1875,0 4.28125,0 4.390625,0 4.421875,-0.078125 4.46875,-0.1875 L 6.921875,-6.5 v 5.71875 c 0,0.359375 -0.015625,0.46875 -0.78125,0.46875 H 5.90625 V 0 c 0.359375,-0.03125 1.046875,-0.03125 1.4375,-0.03125 0.375,0 1.046875,0 1.421875,0.03125 z m 0,0"
               id="id-255e42a3-3845-43ac-8032-b051d212d5d4"
               style="stroke-width:0" />
          </g>
        </g>
      </defs>
      <g
         fill="#000000"
         fill-opacity="1"
         id="id-5a78818c-8dd9-4dc5-9aa8-2cc4630b2d85"
         transform="translate(-149.087,-127.953)"
         style="stroke-width:0">
        <g
           transform="translate(148.712,134.765)"
           id="g6439"
           style="stroke-width:0">
          <path
             d="m 8.765625,0 v -0.3125 h -0.25 c -0.765625,0 -0.78125,-0.109375 -0.78125,-0.46875 v -5.25 C 7.734375,-6.390625 7.75,-6.5 8.515625,-6.5 h 0.25 v -0.3125 h -1.6875 C 6.8125,-6.8125 6.8125,-6.796875 6.75,-6.625 L 4.5625,-1 2.40625,-6.59375 C 2.3125,-6.8125 2.28125,-6.8125 2.046875,-6.8125 H 0.375 V -6.5 h 0.234375 c 0.765625,0 0.78125,0.109375 0.78125,0.46875 v 4.984375 c 0,0.265625 0,0.734375 -1.015625,0.734375 V 0 L 1.53125,-0.03125 2.703125,0 v -0.3125 c -1.03125,0 -1.03125,-0.46875 -1.03125,-0.734375 v -5.375 H 1.6875 L 4.09375,-0.21875 C 4.140625,-0.09375 4.1875,0 4.28125,0 4.390625,0 4.421875,-0.078125 4.46875,-0.1875 L 6.921875,-6.5 v 5.71875 c 0,0.359375 -0.015625,0.46875 -0.78125,0.46875 H 5.90625 V 0 c 0.359375,-0.03125 1.046875,-0.03125 1.4375,-0.03125 0.375,0 1.046875,0 1.421875,0.03125 z m 0,0"
             id="id-993870c3-0f92-4e67-a8fb-369eefd836b7"
             style="stroke-width:0" />
        </g>
      </g>
    </g>
    <path
       style="fill:#000000;fill-opacity:0;stroke:#000000;stroke-width:0.42;stroke-dasharray:none;stroke-opacity:1"
       d="m 147.82524,122.34965 h 20.70882"
       id="path175" />
    <path
       style="fill:#000000;fill-opacity:0;stroke:#000000;stroke-width:0.42;stroke-dasharray:none;stroke-opacity:1"
       d="m 191.6419,122.34965 h 20.70884"
       id="path176" />
    <g
       transform="matrix(0.529167,0,0,0.529167,143.50151,120.284)"
       ns1:version="1.10.0"
       ns1:texconverter="xelatex"
       ns1:pdfconverter="inkscape"
       ns1:text="S"
       ns1:preamble="C:\Users\Ichinoe\AppData\Roaming\inkscape\extensions\textext\default_packages.tex"
       ns1:scale="1.5"
       ns1:alignment="middle center"
       ns1:stroke-to-path="0"
       ns1:inkscapeversion="1.3.2"
       id="g181"
       ns1:jacobian_sqrt="0.529167"
       style="stroke-width:0">
      <defs
         id="defs178"
         style="stroke-width:0">
        <g
           id="g178"
           style="stroke-width:0">
          <g
             id="g177"
             style="stroke-width:0">
            <path
               d="m 4.96875,-1.859375 c 0,-0.984375 -0.65625,-1.8125 -1.484375,-2.015625 l -1.28125,-0.296875 c -0.625,-0.15625 -1,-0.6875 -1,-1.265625 0,-0.703125 0.53125,-1.3125 1.3125,-1.3125 1.65625,0 1.875,1.640625 1.9375,2.078125 0.015625,0.0625 0.015625,0.125 0.125,0.125 0.125,0 0.125,-0.046875 0.125,-0.234375 v -2 c 0,-0.171875 0,-0.25 -0.109375,-0.25 -0.0625,0 -0.078125,0.015625 -0.140625,0.140625 l -0.359375,0.5625 C 3.796875,-6.625 3.390625,-7.03125 2.5,-7.03125 c -1.109375,0 -1.9375,0.875 -1.9375,1.9375 0,0.828125 0.53125,1.5625 1.296875,1.828125 0.109375,0.03125 0.625,0.15625 1.328125,0.328125 0.265625,0.0625 0.5625,0.140625 0.84375,0.5 0.203125,0.265625 0.3125,0.59375 0.3125,0.921875 0,0.703125 -0.5,1.421875 -1.34375,1.421875 -0.28125,0 -1.046875,-0.046875 -1.578125,-0.53125 C 0.84375,-1.171875 0.8125,-1.796875 0.8125,-2.15625 0.796875,-2.265625 0.71875,-2.265625 0.6875,-2.265625 c -0.125,0 -0.125,0.078125 -0.125,0.25 v 2 c 0,0.171875 0,0.234375 0.109375,0.234375 0.0625,0 0.078125,-0.015625 0.140625,-0.125 0,0 0.03125,-0.046875 0.359375,-0.578125 0.3125,0.34375 0.953125,0.703125 1.84375,0.703125 1.15625,0 1.953125,-0.96875 1.953125,-2.078125 z m 0,0"
               id="path177"
               style="stroke-width:0" />
          </g>
        </g>
      </defs>
      <g
         fill="#000000"
         fill-opacity="1"
         id="g180"
         transform="translate(-149.275,-127.734)"
         style="stroke-width:0">
        <g
           transform="translate(148.712,134.765)"
           id="g179"
           style="stroke-width:0">
          <path
             d="m 4.96875,-1.859375 c 0,-0.984375 -0.65625,-1.8125 -1.484375,-2.015625 l -1.28125,-0.296875 c -0.625,-0.15625 -1,-0.6875 -1,-1.265625 0,-0.703125 0.53125,-1.3125 1.3125,-1.3125 1.65625,0 1.875,1.640625 1.9375,2.078125 0.015625,0.0625 0.015625,0.125 0.125,0.125 0.125,0 0.125,-0.046875 0.125,-0.234375 v -2 c 0,-0.171875 0,-0.25 -0.109375,-0.25 -0.0625,0 -0.078125,0.015625 -0.140625,0.140625 l -0.359375,0.5625 C 3.796875,-6.625 3.390625,-7.03125 2.5,-7.03125 c -1.109375,0 -1.9375,0.875 -1.9375,1.9375 0,0.828125 0.53125,1.5625 1.296875,1.828125 0.109375,0.03125 0.625,0.15625 1.328125,0.328125 0.265625,0.0625 0.5625,0.140625 0.84375,0.5 0.203125,0.265625 0.3125,0.59375 0.3125,0.921875 0,0.703125 -0.5,1.421875 -1.34375,1.421875 -0.28125,0 -1.046875,-0.046875 -1.578125,-0.53125 C 0.84375,-1.171875 0.8125,-1.796875 0.8125,-2.15625 0.796875,-2.265625 0.71875,-2.265625 0.6875,-2.265625 c -0.125,0 -0.125,0.078125 -0.125,0.25 v 2 c 0,0.171875 0,0.234375 0.109375,0.234375 0.0625,0 0.078125,-0.015625 0.140625,-0.125 0,0 0.03125,-0.046875 0.359375,-0.578125 0.3125,0.34375 0.953125,0.703125 1.84375,0.703125 1.15625,0 1.953125,-0.96875 1.953125,-2.078125 z m 0,0"
             id="path178"
             style="stroke-width:0" />
        </g>
      </g>
    </g>
    <g
       transform="matrix(0.529167,0,0,0.529167,169.69663,120.399)"
       ns1:version="1.10.0"
       ns1:texconverter="xelatex"
       ns1:pdfconverter="inkscape"
       ns1:text="P"
       ns1:preamble="C:\Users\Ichinoe\AppData\Roaming\inkscape\extensions\textext\default_packages.tex"
       ns1:scale="1.5"
       ns1:alignment="middle center"
       ns1:stroke-to-path="0"
       ns1:inkscapeversion="1.3.2"
       id="g186"
       ns1:jacobian_sqrt="0.529167"
       style="stroke-width:0">
      <defs
         id="defs183"
         style="stroke-width:0">
        <g
           id="g183"
           style="stroke-width:0">
          <g
             id="g182"
             style="stroke-width:0">
            <path
               d="M 6.21875,-4.953125 C 6.21875,-5.9375 5.234375,-6.8125 3.875,-6.8125 H 0.34375 V -6.5 h 0.25 c 0.765625,0 0.78125,0.109375 0.78125,0.46875 v 5.25 c 0,0.359375 -0.015625,0.46875 -0.78125,0.46875 h -0.25 V 0 c 0.359375,-0.03125 1.09375,-0.03125 1.46875,-0.03125 0.375,0 1.125,0 1.484375,0.03125 v -0.3125 h -0.25 c -0.765625,0 -0.78125,-0.109375 -0.78125,-0.46875 v -2.375 h 1.6875 c 1.1875,0 2.265625,-0.796875 2.265625,-1.796875 z m -1.03125,0 c 0,0.46875 0,1.546875 -1.578125,1.546875 h -1.375 v -2.6875 C 2.234375,-6.4375 2.25,-6.5 2.71875,-6.5 H 3.609375 C 5.1875,-6.5 5.1875,-5.4375 5.1875,-4.953125 Z m 0,0"
               id="path181"
               style="stroke-width:0" />
          </g>
        </g>
      </defs>
      <g
         fill="#000000"
         fill-opacity="1"
         id="g185"
         transform="translate(-149.056,-127.953)"
         style="stroke-width:0">
        <g
           transform="translate(148.712,134.765)"
           id="g184"
           style="stroke-width:0">
          <path
             d="M 6.21875,-4.953125 C 6.21875,-5.9375 5.234375,-6.8125 3.875,-6.8125 H 0.34375 V -6.5 h 0.25 c 0.765625,0 0.78125,0.109375 0.78125,0.46875 v 5.25 c 0,0.359375 -0.015625,0.46875 -0.78125,0.46875 h -0.25 V 0 c 0.359375,-0.03125 1.09375,-0.03125 1.46875,-0.03125 0.375,0 1.125,0 1.484375,0.03125 v -0.3125 h -0.25 c -0.765625,0 -0.78125,-0.109375 -0.78125,-0.46875 v -2.375 h 1.6875 c 1.1875,0 2.265625,-0.796875 2.265625,-1.796875 z m -1.03125,0 c 0,0.46875 0,1.546875 -1.578125,1.546875 h -1.375 v -2.6875 C 2.234375,-6.4375 2.25,-6.5 2.71875,-6.5 H 3.609375 C 5.1875,-6.5 5.1875,-5.4375 5.1875,-4.953125 Z m 0,0"
             id="path183"
             style="stroke-width:0" />
        </g>
      </g>
    </g>
    <g
       transform="matrix(0.529167,0,0,0.529167,187.31774,120.284)"
       ns1:version="1.10.0"
       ns1:texconverter="xelatex"
       ns1:pdfconverter="inkscape"
       ns1:text="S"
       ns1:preamble="C:\Users\Ichinoe\AppData\Roaming\inkscape\extensions\textext\default_packages.tex"
       ns1:scale="1.5"
       ns1:alignment="middle center"
       ns1:stroke-to-path="0"
       ns1:inkscapeversion="1.3.2"
       id="g191"
       ns1:jacobian_sqrt="0.529167"
       style="stroke-width:0">
      <defs
         id="defs188"
         style="stroke-width:0">
        <g
           id="g188"
           style="stroke-width:0">
          <g
             id="g187"
             style="stroke-width:0">
            <path
               d="m 4.96875,-1.859375 c 0,-0.984375 -0.65625,-1.8125 -1.484375,-2.015625 l -1.28125,-0.296875 c -0.625,-0.15625 -1,-0.6875 -1,-1.265625 0,-0.703125 0.53125,-1.3125 1.3125,-1.3125 1.65625,0 1.875,1.640625 1.9375,2.078125 0.015625,0.0625 0.015625,0.125 0.125,0.125 0.125,0 0.125,-0.046875 0.125,-0.234375 v -2 c 0,-0.171875 0,-0.25 -0.109375,-0.25 -0.0625,0 -0.078125,0.015625 -0.140625,0.140625 l -0.359375,0.5625 C 3.796875,-6.625 3.390625,-7.03125 2.5,-7.03125 c -1.109375,0 -1.9375,0.875 -1.9375,1.9375 0,0.828125 0.53125,1.5625 1.296875,1.828125 0.109375,0.03125 0.625,0.15625 1.328125,0.328125 0.265625,0.0625 0.5625,0.140625 0.84375,0.5 0.203125,0.265625 0.3125,0.59375 0.3125,0.921875 0,0.703125 -0.5,1.421875 -1.34375,1.421875 -0.28125,0 -1.046875,-0.046875 -1.578125,-0.53125 C 0.84375,-1.171875 0.8125,-1.796875 0.8125,-2.15625 0.796875,-2.265625 0.71875,-2.265625 0.6875,-2.265625 c -0.125,0 -0.125,0.078125 -0.125,0.25 v 2 c 0,0.171875 0,0.234375 0.109375,0.234375 0.0625,0 0.078125,-0.015625 0.140625,-0.125 0,0 0.03125,-0.046875 0.359375,-0.578125 0.3125,0.34375 0.953125,0.703125 1.84375,0.703125 1.15625,0 1.953125,-0.96875 1.953125,-2.078125 z m 0,0"
               id="path186"
               style="stroke-width:0" />
          </g>
        </g>
      </defs>
      <g
         fill="#000000"
         fill-opacity="1"
         id="g190"
         transform="translate(-149.275,-127.734)"
         style="stroke-width:0">
        <g
           transform="translate(148.712,134.765)"
           id="g189"
           style="stroke-width:0">
          <path
             d="m 4.96875,-1.859375 c 0,-0.984375 -0.65625,-1.8125 -1.484375,-2.015625 l -1.28125,-0.296875 c -0.625,-0.15625 -1,-0.6875 -1,-1.265625 0,-0.703125 0.53125,-1.3125 1.3125,-1.3125 1.65625,0 1.875,1.640625 1.9375,2.078125 0.015625,0.0625 0.015625,0.125 0.125,0.125 0.125,0 0.125,-0.046875 0.125,-0.234375 v -2 c 0,-0.171875 0,-0.25 -0.109375,-0.25 -0.0625,0 -0.078125,0.015625 -0.140625,0.140625 l -0.359375,0.5625 C 3.796875,-6.625 3.390625,-7.03125 2.5,-7.03125 c -1.109375,0 -1.9375,0.875 -1.9375,1.9375 0,0.828125 0.53125,1.5625 1.296875,1.828125 0.109375,0.03125 0.625,0.15625 1.328125,0.328125 0.265625,0.0625 0.5625,0.140625 0.84375,0.5 0.203125,0.265625 0.3125,0.59375 0.3125,0.921875 0,0.703125 -0.5,1.421875 -1.34375,1.421875 -0.28125,0 -1.046875,-0.046875 -1.578125,-0.53125 C 0.84375,-1.171875 0.8125,-1.796875 0.8125,-2.15625 0.796875,-2.265625 0.71875,-2.265625 0.6875,-2.265625 c -0.125,0 -0.125,0.078125 -0.125,0.25 v 2 c 0,0.171875 0,0.234375 0.109375,0.234375 0.0625,0 0.078125,-0.015625 0.140625,-0.125 0,0 0.03125,-0.046875 0.359375,-0.578125 0.3125,0.34375 0.953125,0.703125 1.84375,0.703125 1.15625,0 1.953125,-0.96875 1.953125,-2.078125 z m 0,0"
             id="path188"
             style="stroke-width:0" />
        </g>
      </g>
    </g>
    <g
       transform="matrix(0.529167,0,0,0.529167,213.51464,120.399)"
       ns1:version="1.10.0"
       ns1:texconverter="xelatex"
       ns1:pdfconverter="inkscape"
       ns1:text="P"
       ns1:preamble="C:\Users\Ichinoe\AppData\Roaming\inkscape\extensions\textext\default_packages.tex"
       ns1:scale="1.5"
       ns1:alignment="middle center"
       ns1:stroke-to-path="0"
       ns1:inkscapeversion="1.3.2"
       id="g196"
       ns1:jacobian_sqrt="0.529167"
       style="stroke-width:0">
      <defs
         id="defs193"
         style="stroke-width:0">
        <g
           id="g193"
           style="stroke-width:0">
          <g
             id="g192"
             style="stroke-width:0">
            <path
               d="M 6.21875,-4.953125 C 6.21875,-5.9375 5.234375,-6.8125 3.875,-6.8125 H 0.34375 V -6.5 h 0.25 c 0.765625,0 0.78125,0.109375 0.78125,0.46875 v 5.25 c 0,0.359375 -0.015625,0.46875 -0.78125,0.46875 h -0.25 V 0 c 0.359375,-0.03125 1.09375,-0.03125 1.46875,-0.03125 0.375,0 1.125,0 1.484375,0.03125 v -0.3125 h -0.25 c -0.765625,0 -0.78125,-0.109375 -0.78125,-0.46875 v -2.375 h 1.6875 c 1.1875,0 2.265625,-0.796875 2.265625,-1.796875 z m -1.03125,0 c 0,0.46875 0,1.546875 -1.578125,1.546875 h -1.375 v -2.6875 C 2.234375,-6.4375 2.25,-6.5 2.71875,-6.5 H 3.609375 C 5.1875,-6.5 5.1875,-5.4375 5.1875,-4.953125 Z m 0,0"
               id="path191"
               style="stroke-width:0" />
          </g>
        </g>
      </defs>
      <g
         fill="#000000"
         fill-opacity="1"
         id="g195"
         transform="translate(-149.056,-127.953)"
         style="stroke-width:0">
        <g
           transform="translate(148.712,134.765)"
           id="g194"
           style="stroke-width:0">
          <path
             d="M 6.21875,-4.953125 C 6.21875,-5.9375 5.234375,-6.8125 3.875,-6.8125 H 0.34375 V -6.5 h 0.25 c 0.765625,0 0.78125,0.109375 0.78125,0.46875 v 5.25 c 0,0.359375 -0.015625,0.46875 -0.78125,0.46875 h -0.25 V 0 c 0.359375,-0.03125 1.09375,-0.03125 1.46875,-0.03125 0.375,0 1.125,0 1.484375,0.03125 v -0.3125 h -0.25 c -0.765625,0 -0.78125,-0.109375 -0.78125,-0.46875 v -2.375 h 1.6875 c 1.1875,0 2.265625,-0.796875 2.265625,-1.796875 z m -1.03125,0 c 0,0.46875 0,1.546875 -1.578125,1.546875 h -1.375 v -2.6875 C 2.234375,-6.4375 2.25,-6.5 2.71875,-6.5 H 3.609375 C 5.1875,-6.5 5.1875,-5.4375 5.1875,-4.953125 Z m 0,0"
             id="path193"
             style="stroke-width:0" />
        </g>
      </g>
    </g>
    <g
       transform="matrix(0.529167,0,0,0.529167,169.402,84.0935)"
       ns1:version="1.10.0"
       ns1:texconverter="xelatex"
       ns1:pdfconverter="inkscape"
       ns1:text="P"
       ns1:preamble="C:\Users\Ichinoe\AppData\Roaming\inkscape\extensions\textext\default_packages.tex"
       ns1:scale="1.5"
       ns1:alignment="middle center"
       ns1:stroke-to-path="0"
       ns1:inkscapeversion="1.3.2"
       id="g50"
       ns1:jacobian_sqrt="0.529167"
       style="stroke-width:0">
      <defs
         id="id-eb18f2bf-25ab-4f06-80ae-0b3f92e1049f"
         style="stroke-width:0">
        <g
           id="id-d0fef647-c49f-45ba-89e2-f3012e4e5389"
           style="stroke-width:0">
          <g
             id="id-93242816-80ba-4325-9404-aaa50f25db89"
             style="stroke-width:0">
            <path
               d="M 6.21875,-4.953125 C 6.21875,-5.9375 5.234375,-6.8125 3.875,-6.8125 H 0.34375 V -6.5 h 0.25 c 0.765625,0 0.78125,0.109375 0.78125,0.46875 v 5.25 c 0,0.359375 -0.015625,0.46875 -0.78125,0.46875 h -0.25 V 0 c 0.359375,-0.03125 1.09375,-0.03125 1.46875,-0.03125 0.375,0 1.125,0 1.484375,0.03125 v -0.3125 h -0.25 c -0.765625,0 -0.78125,-0.109375 -0.78125,-0.46875 v -2.375 h 1.6875 c 1.1875,0 2.265625,-0.796875 2.265625,-1.796875 z m -1.03125,0 c 0,0.46875 0,1.546875 -1.578125,1.546875 h -1.375 v -2.6875 C 2.234375,-6.4375 2.25,-6.5 2.71875,-6.5 H 3.609375 C 5.1875,-6.5 5.1875,-5.4375 5.1875,-4.953125 Z m 0,0"
               id="id-b41ad3da-b19d-44e7-b97e-c95b57453e8c"
               style="stroke-width:0" />
          </g>
        </g>
      </defs>
      <g
         fill="#000000"
         fill-opacity="1"
         id="id-5f7dea19-b029-4fc3-a140-1037c9357466"
         transform="translate(-149.056,-127.953)"
         style="stroke-width:0">
        <g
           transform="translate(148.712,134.765)"
           id="g2526"
           style="stroke-width:0">
          <path
             d="M 6.21875,-4.953125 C 6.21875,-5.9375 5.234375,-6.8125 3.875,-6.8125 H 0.34375 V -6.5 h 0.25 c 0.765625,0 0.78125,0.109375 0.78125,0.46875 v 5.25 c 0,0.359375 -0.015625,0.46875 -0.78125,0.46875 h -0.25 V 0 c 0.359375,-0.03125 1.09375,-0.03125 1.46875,-0.03125 0.375,0 1.125,0 1.484375,0.03125 v -0.3125 h -0.25 c -0.765625,0 -0.78125,-0.109375 -0.78125,-0.46875 v -2.375 h 1.6875 c 1.1875,0 2.265625,-0.796875 2.265625,-1.796875 z m -1.03125,0 c 0,0.46875 0,1.546875 -1.578125,1.546875 h -1.375 v -2.6875 C 2.234375,-6.4375 2.25,-6.5 2.71875,-6.5 H 3.609375 C 5.1875,-6.5 5.1875,-5.4375 5.1875,-4.953125 Z m 0,0"
             id="id-ffdc70f3-e286-4620-8729-51e86e53b8d9"
             style="stroke-width:0" />
        </g>
      </g>
    </g>
    <g
       transform="matrix(0.529167,0,0,0.529167,169.79,108.732)"
       ns1:version="1.10.0"
       ns1:texconverter="xelatex"
       ns1:pdfconverter="inkscape"
       ns1:text="S"
       ns1:preamble="C:\Users\Ichinoe\AppData\Roaming\inkscape\extensions\textext\default_packages.tex"
       ns1:scale="1.5"
       ns1:alignment="middle center"
       ns1:stroke-to-path="0"
       ns1:inkscapeversion="1.3.2"
       id="g60"
       ns1:jacobian_sqrt="0.529167"
       style="stroke-width:0">
      <defs
         id="id-8c6c63cc-cb57-4c25-a757-0d93fe129d2e"
         style="stroke-width:0">
        <g
           id="id-0b430007-b6f4-4f12-bb80-4aad0aeb321a"
           style="stroke-width:0">
          <g
             id="id-994ff369-4d42-4472-b470-ba759537f473"
             style="stroke-width:0">
            <path
               d="m 4.96875,-1.859375 c 0,-0.984375 -0.65625,-1.8125 -1.484375,-2.015625 l -1.28125,-0.296875 c -0.625,-0.15625 -1,-0.6875 -1,-1.265625 0,-0.703125 0.53125,-1.3125 1.3125,-1.3125 1.65625,0 1.875,1.640625 1.9375,2.078125 0.015625,0.0625 0.015625,0.125 0.125,0.125 0.125,0 0.125,-0.046875 0.125,-0.234375 v -2 c 0,-0.171875 0,-0.25 -0.109375,-0.25 -0.0625,0 -0.078125,0.015625 -0.140625,0.140625 l -0.359375,0.5625 C 3.796875,-6.625 3.390625,-7.03125 2.5,-7.03125 c -1.109375,0 -1.9375,0.875 -1.9375,1.9375 0,0.828125 0.53125,1.5625 1.296875,1.828125 0.109375,0.03125 0.625,0.15625 1.328125,0.328125 0.265625,0.0625 0.5625,0.140625 0.84375,0.5 0.203125,0.265625 0.3125,0.59375 0.3125,0.921875 0,0.703125 -0.5,1.421875 -1.34375,1.421875 -0.28125,0 -1.046875,-0.046875 -1.578125,-0.53125 C 0.84375,-1.171875 0.8125,-1.796875 0.8125,-2.15625 0.796875,-2.265625 0.71875,-2.265625 0.6875,-2.265625 c -0.125,0 -0.125,0.078125 -0.125,0.25 v 2 c 0,0.171875 0,0.234375 0.109375,0.234375 0.0625,0 0.078125,-0.015625 0.140625,-0.125 0,0 0.03125,-0.046875 0.359375,-0.578125 0.3125,0.34375 0.953125,0.703125 1.84375,0.703125 1.15625,0 1.953125,-0.96875 1.953125,-2.078125 z m 0,0"
               id="id-4455d0d9-f38e-41f3-8239-43b4876eb92e"
               style="stroke-width:0" />
          </g>
        </g>
      </defs>
      <g
         fill="#000000"
         fill-opacity="1"
         id="id-4346a484-25fd-422c-ac82-bbb74edccd1f"
         transform="translate(-149.275,-127.734)"
         style="stroke-width:0">
        <g
           transform="translate(148.712,134.765)"
           id="g6224"
           style="stroke-width:0">
          <path
             d="m 4.96875,-1.859375 c 0,-0.984375 -0.65625,-1.8125 -1.484375,-2.015625 l -1.28125,-0.296875 c -0.625,-0.15625 -1,-0.6875 -1,-1.265625 0,-0.703125 0.53125,-1.3125 1.3125,-1.3125 1.65625,0 1.875,1.640625 1.9375,2.078125 0.015625,0.0625 0.015625,0.125 0.125,0.125 0.125,0 0.125,-0.046875 0.125,-0.234375 v -2 c 0,-0.171875 0,-0.25 -0.109375,-0.25 -0.0625,0 -0.078125,0.015625 -0.140625,0.140625 l -0.359375,0.5625 C 3.796875,-6.625 3.390625,-7.03125 2.5,-7.03125 c -1.109375,0 -1.9375,0.875 -1.9375,1.9375 0,0.828125 0.53125,1.5625 1.296875,1.828125 0.109375,0.03125 0.625,0.15625 1.328125,0.328125 0.265625,0.0625 0.5625,0.140625 0.84375,0.5 0.203125,0.265625 0.3125,0.59375 0.3125,0.921875 0,0.703125 -0.5,1.421875 -1.34375,1.421875 -0.28125,0 -1.046875,-0.046875 -1.578125,-0.53125 C 0.84375,-1.171875 0.8125,-1.796875 0.8125,-2.15625 0.796875,-2.265625 0.71875,-2.265625 0.6875,-2.265625 c -0.125,0 -0.125,0.078125 -0.125,0.25 v 2 c 0,0.171875 0,0.234375 0.109375,0.234375 0.0625,0 0.078125,-0.015625 0.140625,-0.125 0,0 0.03125,-0.046875 0.359375,-0.578125 0.3125,0.34375 0.953125,0.703125 1.84375,0.703125 1.15625,0 1.953125,-0.96875 1.953125,-2.078125 z m 0,0"
             id="id-75346839-aba1-4481-b452-49358d425223"
             style="stroke-width:0" />
        </g>
      </g>
    </g>
    <g
       transform="matrix(0.529167,0,0,0.529167,186.636,84.0935)"
       ns1:version="1.10.0"
       ns1:texconverter="xelatex"
       ns1:pdfconverter="inkscape"
       ns1:text="P"
       ns1:preamble="C:\Users\Ichinoe\AppData\Roaming\inkscape\extensions\textext\default_packages.tex"
       ns1:scale="1.5"
       ns1:alignment="middle center"
       ns1:stroke-to-path="0"
       ns1:inkscapeversion="1.3.2"
       id="g67"
       ns1:jacobian_sqrt="0.529167"
       style="stroke-width:0">
      <defs
         id="id-d5d5cd95-c294-4d14-a0ef-7fc5ef00addd"
         style="stroke-width:0">
        <g
           id="id-97a976f9-7ff4-49e3-8bd5-19d6c13042a8"
           style="stroke-width:0">
          <g
             id="id-4244d12e-3af7-4c51-b9cf-0fe7b7de8872"
             style="stroke-width:0">
            <path
               d="M 6.21875,-4.953125 C 6.21875,-5.9375 5.234375,-6.8125 3.875,-6.8125 H 0.34375 V -6.5 h 0.25 c 0.765625,0 0.78125,0.109375 0.78125,0.46875 v 5.25 c 0,0.359375 -0.015625,0.46875 -0.78125,0.46875 h -0.25 V 0 c 0.359375,-0.03125 1.09375,-0.03125 1.46875,-0.03125 0.375,0 1.125,0 1.484375,0.03125 v -0.3125 h -0.25 c -0.765625,0 -0.78125,-0.109375 -0.78125,-0.46875 v -2.375 h 1.6875 c 1.1875,0 2.265625,-0.796875 2.265625,-1.796875 z m -1.03125,0 c 0,0.46875 0,1.546875 -1.578125,1.546875 h -1.375 v -2.6875 C 2.234375,-6.4375 2.25,-6.5 2.71875,-6.5 H 3.609375 C 5.1875,-6.5 5.1875,-5.4375 5.1875,-4.953125 Z m 0,0"
               id="id-3d311546-9f3a-40ac-8135-1a304d6b0ac4"
               style="stroke-width:0" />
          </g>
        </g>
      </defs>
      <g
         fill="#000000"
         fill-opacity="1"
         id="id-7ac1e1a4-bdd2-4347-b50c-14230ec8d0fc"
         transform="translate(-149.056,-127.953)"
         style="stroke-width:0">
        <g
           transform="translate(148.712,134.765)"
           id="g8638"
           style="stroke-width:0">
          <path
             d="M 6.21875,-4.953125 C 6.21875,-5.9375 5.234375,-6.8125 3.875,-6.8125 H 0.34375 V -6.5 h 0.25 c 0.765625,0 0.78125,0.109375 0.78125,0.46875 v 5.25 c 0,0.359375 -0.015625,0.46875 -0.78125,0.46875 h -0.25 V 0 c 0.359375,-0.03125 1.09375,-0.03125 1.46875,-0.03125 0.375,0 1.125,0 1.484375,0.03125 v -0.3125 h -0.25 c -0.765625,0 -0.78125,-0.109375 -0.78125,-0.46875 v -2.375 h 1.6875 c 1.1875,0 2.265625,-0.796875 2.265625,-1.796875 z m -1.03125,0 c 0,0.46875 0,1.546875 -1.578125,1.546875 h -1.375 v -2.6875 C 2.234375,-6.4375 2.25,-6.5 2.71875,-6.5 H 3.609375 C 5.1875,-6.5 5.1875,-5.4375 5.1875,-4.953125 Z m 0,0"
             id="id-f37044f9-b8f1-4f5b-b9e9-aace514a4af6"
             style="stroke-width:0" />
        </g>
      </g>
    </g>
    <g
       transform="matrix(0.529167,0,0,0.529167,212.554,84.0929)"
       ns1:version="1.10.0"
       ns1:texconverter="xelatex"
       ns1:pdfconverter="inkscape"
       ns1:text="M"
       ns1:preamble="C:\Users\Ichinoe\AppData\Roaming\inkscape\extensions\textext\default_packages.tex"
       ns1:scale="1.5"
       ns1:alignment="middle center"
       ns1:stroke-to-path="0"
       ns1:inkscapeversion="1.3.2"
       id="g72"
       ns1:jacobian_sqrt="0.529167"
       style="stroke-width:0">
      <defs
         id="id-e9150ce3-d31e-410d-bd39-789a160add9b"
         style="stroke-width:0">
        <g
           id="id-0e4615ec-5ff4-4694-aebc-cfb1d68858da"
           style="stroke-width:0">
          <g
             id="id-bde2ab39-17a8-451b-9879-7a77053fc448"
             style="stroke-width:0">
            <path
               d="m 8.765625,0 v -0.3125 h -0.25 c -0.765625,0 -0.78125,-0.109375 -0.78125,-0.46875 v -5.25 C 7.734375,-6.390625 7.75,-6.5 8.515625,-6.5 h 0.25 v -0.3125 h -1.6875 C 6.8125,-6.8125 6.8125,-6.796875 6.75,-6.625 L 4.5625,-1 2.40625,-6.59375 C 2.3125,-6.8125 2.28125,-6.8125 2.046875,-6.8125 H 0.375 V -6.5 h 0.234375 c 0.765625,0 0.78125,0.109375 0.78125,0.46875 v 4.984375 c 0,0.265625 0,0.734375 -1.015625,0.734375 V 0 L 1.53125,-0.03125 2.703125,0 v -0.3125 c -1.03125,0 -1.03125,-0.46875 -1.03125,-0.734375 v -5.375 H 1.6875 L 4.09375,-0.21875 C 4.140625,-0.09375 4.1875,0 4.28125,0 4.390625,0 4.421875,-0.078125 4.46875,-0.1875 L 6.921875,-6.5 v 5.71875 c 0,0.359375 -0.015625,0.46875 -0.78125,0.46875 H 5.90625 V 0 c 0.359375,-0.03125 1.046875,-0.03125 1.4375,-0.03125 0.375,0 1.046875,0 1.421875,0.03125 z m 0,0"
               id="id-4c59b3ff-f4a3-4e62-aa6c-d085fa270819"
               style="stroke-width:0" />
          </g>
        </g>
      </defs>
      <g
         fill="#000000"
         fill-opacity="1"
         id="id-984df0ac-08b8-4c83-a55a-ba4b75c9d24b"
         transform="translate(-149.087,-127.953)"
         style="stroke-width:0">
        <g
           transform="translate(148.712,134.765)"
           id="g6229"
           style="stroke-width:0">
          <path
             d="m 8.765625,0 v -0.3125 h -0.25 c -0.765625,0 -0.78125,-0.109375 -0.78125,-0.46875 v -5.25 C 7.734375,-6.390625 7.75,-6.5 8.515625,-6.5 h 0.25 v -0.3125 h -1.6875 C 6.8125,-6.8125 6.8125,-6.796875 6.75,-6.625 L 4.5625,-1 2.40625,-6.59375 C 2.3125,-6.8125 2.28125,-6.8125 2.046875,-6.8125 H 0.375 V -6.5 h 0.234375 c 0.765625,0 0.78125,0.109375 0.78125,0.46875 v 4.984375 c 0,0.265625 0,0.734375 -1.015625,0.734375 V 0 L 1.53125,-0.03125 2.703125,0 v -0.3125 c -1.03125,0 -1.03125,-0.46875 -1.03125,-0.734375 v -5.375 H 1.6875 L 4.09375,-0.21875 C 4.140625,-0.09375 4.1875,0 4.28125,0 4.390625,0 4.421875,-0.078125 4.46875,-0.1875 L 6.921875,-6.5 v 5.71875 c 0,0.359375 -0.015625,0.46875 -0.78125,0.46875 H 5.90625 V 0 c 0.359375,-0.03125 1.046875,-0.03125 1.4375,-0.03125 0.375,0 1.046875,0 1.421875,0.03125 z m 0,0"
             id="id-93d14239-c6b2-49ff-b92b-7551dea2e237"
             style="stroke-width:0" />
        </g>
      </g>
    </g>
    <g
       transform="matrix(0.529167,0,0,0.529167,185.97,108.848)"
       ns1:version="1.10.0"
       ns1:texconverter="xelatex"
       ns1:pdfconverter="inkscape"
       ns1:text="M"
       ns1:preamble="C:\Users\Ichinoe\AppData\Roaming\inkscape\extensions\textext\default_packages.tex"
       ns1:scale="1.5"
       ns1:alignment="middle center"
       ns1:stroke-to-path="0"
       ns1:inkscapeversion="1.3.2"
       id="g77"
       ns1:jacobian_sqrt="0.529167"
       style="stroke-width:0">
      <defs
         id="id-0e17f39a-1ba7-41d7-8eb9-c2a582ee9ce7"
         style="stroke-width:0">
        <g
           id="id-7cfdbc31-ccf4-4ffb-8364-6c3c7ea42ecc"
           style="stroke-width:0">
          <g
             id="id-ef110127-6d79-488d-a6d0-0196bdbcee62"
             style="stroke-width:0">
            <path
               d="m 8.765625,0 v -0.3125 h -0.25 c -0.765625,0 -0.78125,-0.109375 -0.78125,-0.46875 v -5.25 C 7.734375,-6.390625 7.75,-6.5 8.515625,-6.5 h 0.25 v -0.3125 h -1.6875 C 6.8125,-6.8125 6.8125,-6.796875 6.75,-6.625 L 4.5625,-1 2.40625,-6.59375 C 2.3125,-6.8125 2.28125,-6.8125 2.046875,-6.8125 H 0.375 V -6.5 h 0.234375 c 0.765625,0 0.78125,0.109375 0.78125,0.46875 v 4.984375 c 0,0.265625 0,0.734375 -1.015625,0.734375 V 0 L 1.53125,-0.03125 2.703125,0 v -0.3125 c -1.03125,0 -1.03125,-0.46875 -1.03125,-0.734375 v -5.375 H 1.6875 L 4.09375,-0.21875 C 4.140625,-0.09375 4.1875,0 4.28125,0 4.390625,0 4.421875,-0.078125 4.46875,-0.1875 L 6.921875,-6.5 v 5.71875 c 0,0.359375 -0.015625,0.46875 -0.78125,0.46875 H 5.90625 V 0 c 0.359375,-0.03125 1.046875,-0.03125 1.4375,-0.03125 0.375,0 1.046875,0 1.421875,0.03125 z m 0,0"
               id="id-4a612e57-f4b9-477a-a1a6-21b22ca5430d"
               style="stroke-width:0" />
          </g>
        </g>
      </defs>
      <g
         fill="#000000"
         fill-opacity="1"
         id="id-d48bd507-bbe7-4969-a078-ca64fe596991"
         transform="translate(-149.087,-127.953)"
         style="stroke-width:0">
        <g
           transform="translate(148.712,134.765)"
           id="g8076"
           style="stroke-width:0">
          <path
             d="m 8.765625,0 v -0.3125 h -0.25 c -0.765625,0 -0.78125,-0.109375 -0.78125,-0.46875 v -5.25 C 7.734375,-6.390625 7.75,-6.5 8.515625,-6.5 h 0.25 v -0.3125 h -1.6875 C 6.8125,-6.8125 6.8125,-6.796875 6.75,-6.625 L 4.5625,-1 2.40625,-6.59375 C 2.3125,-6.8125 2.28125,-6.8125 2.046875,-6.8125 H 0.375 V -6.5 h 0.234375 c 0.765625,0 0.78125,0.109375 0.78125,0.46875 v 4.984375 c 0,0.265625 0,0.734375 -1.015625,0.734375 V 0 L 1.53125,-0.03125 2.703125,0 v -0.3125 c -1.03125,0 -1.03125,-0.46875 -1.03125,-0.734375 v -5.375 H 1.6875 L 4.09375,-0.21875 C 4.140625,-0.09375 4.1875,0 4.28125,0 4.390625,0 4.421875,-0.078125 4.46875,-0.1875 L 6.921875,-6.5 v 5.71875 c 0,0.359375 -0.015625,0.46875 -0.78125,0.46875 H 5.90625 V 0 c 0.359375,-0.03125 1.046875,-0.03125 1.4375,-0.03125 0.375,0 1.046875,0 1.421875,0.03125 z m 0,0"
             id="id-1225c357-920e-470e-bc71-5bd308e0f710"
             style="stroke-width:0" />
        </g>
      </g>
    </g>
    <g
       transform="matrix(0.529167,0,0,0.529167,213.607,108.732)"
       ns1:version="1.10.0"
       ns1:texconverter="xelatex"
       ns1:pdfconverter="inkscape"
       ns1:text="S"
       ns1:preamble="C:\Users\Ichinoe\AppData\Roaming\inkscape\extensions\textext\default_packages.tex"
       ns1:scale="1.5"
       ns1:alignment="middle center"
       ns1:stroke-to-path="0"
       ns1:inkscapeversion="1.3.2"
       id="g82"
       ns1:jacobian_sqrt="0.529167"
       style="stroke-width:0">
      <defs
         id="id-e3890251-cc54-451f-b0c8-f5cf4d71f6cc"
         style="stroke-width:0">
        <g
           id="id-2070f30f-6172-47dd-9b0d-c2161e72d11d"
           style="stroke-width:0">
          <g
             id="id-73ed9939-4371-45ae-b049-6fb899314004"
             style="stroke-width:0">
            <path
               d="m 4.96875,-1.859375 c 0,-0.984375 -0.65625,-1.8125 -1.484375,-2.015625 l -1.28125,-0.296875 c -0.625,-0.15625 -1,-0.6875 -1,-1.265625 0,-0.703125 0.53125,-1.3125 1.3125,-1.3125 1.65625,0 1.875,1.640625 1.9375,2.078125 0.015625,0.0625 0.015625,0.125 0.125,0.125 0.125,0 0.125,-0.046875 0.125,-0.234375 v -2 c 0,-0.171875 0,-0.25 -0.109375,-0.25 -0.0625,0 -0.078125,0.015625 -0.140625,0.140625 l -0.359375,0.5625 C 3.796875,-6.625 3.390625,-7.03125 2.5,-7.03125 c -1.109375,0 -1.9375,0.875 -1.9375,1.9375 0,0.828125 0.53125,1.5625 1.296875,1.828125 0.109375,0.03125 0.625,0.15625 1.328125,0.328125 0.265625,0.0625 0.5625,0.140625 0.84375,0.5 0.203125,0.265625 0.3125,0.59375 0.3125,0.921875 0,0.703125 -0.5,1.421875 -1.34375,1.421875 -0.28125,0 -1.046875,-0.046875 -1.578125,-0.53125 C 0.84375,-1.171875 0.8125,-1.796875 0.8125,-2.15625 0.796875,-2.265625 0.71875,-2.265625 0.6875,-2.265625 c -0.125,0 -0.125,0.078125 -0.125,0.25 v 2 c 0,0.171875 0,0.234375 0.109375,0.234375 0.0625,0 0.078125,-0.015625 0.140625,-0.125 0,0 0.03125,-0.046875 0.359375,-0.578125 0.3125,0.34375 0.953125,0.703125 1.84375,0.703125 1.15625,0 1.953125,-0.96875 1.953125,-2.078125 z m 0,0"
               id="id-e63c2bcb-4d44-49dc-afd7-eef04e8abe0d"
               style="stroke-width:0" />
          </g>
        </g>
      </defs>
      <g
         fill="#000000"
         fill-opacity="1"
         id="id-2ca6159e-066b-4df5-814b-feaba37665bf"
         transform="translate(-149.275,-127.734)"
         style="stroke-width:0">
        <g
           transform="translate(148.712,134.765)"
           id="g9238"
           style="stroke-width:0">
          <path
             d="m 4.96875,-1.859375 c 0,-0.984375 -0.65625,-1.8125 -1.484375,-2.015625 l -1.28125,-0.296875 c -0.625,-0.15625 -1,-0.6875 -1,-1.265625 0,-0.703125 0.53125,-1.3125 1.3125,-1.3125 1.65625,0 1.875,1.640625 1.9375,2.078125 0.015625,0.0625 0.015625,0.125 0.125,0.125 0.125,0 0.125,-0.046875 0.125,-0.234375 v -2 c 0,-0.171875 0,-0.25 -0.109375,-0.25 -0.0625,0 -0.078125,0.015625 -0.140625,0.140625 l -0.359375,0.5625 C 3.796875,-6.625 3.390625,-7.03125 2.5,-7.03125 c -1.109375,0 -1.9375,0.875 -1.9375,1.9375 0,0.828125 0.53125,1.5625 1.296875,1.828125 0.109375,0.03125 0.625,0.15625 1.328125,0.328125 0.265625,0.0625 0.5625,0.140625 0.84375,0.5 0.203125,0.265625 0.3125,0.59375 0.3125,0.921875 0,0.703125 -0.5,1.421875 -1.34375,1.421875 -0.28125,0 -1.046875,-0.046875 -1.578125,-0.53125 C 0.84375,-1.171875 0.8125,-1.796875 0.8125,-2.15625 0.796875,-2.265625 0.71875,-2.265625 0.6875,-2.265625 c -0.125,0 -0.125,0.078125 -0.125,0.25 v 2 c 0,0.171875 0,0.234375 0.109375,0.234375 0.0625,0 0.078125,-0.015625 0.140625,-0.125 0,0 0.03125,-0.046875 0.359375,-0.578125 0.3125,0.34375 0.953125,0.703125 1.84375,0.703125 1.15625,0 1.953125,-0.96875 1.953125,-2.078125 z m 0,0"
             id="id-1cc0e13e-013b-42c4-8c6d-e77685b8a7fe"
             style="stroke-width:0" />
        </g>
      </g>
    </g>
  </g>
</svg>
