<?xml version="1.0" encoding="UTF-8" standalone="no"?>
<!-- Created with Inkscape (http://www.inkscape.org/) -->

<svg
   width="187.49802mm"
   height="141.22292mm"
   viewBox="0 0 187.49802 141.22292"
   version="1.1"
   id="svg1"
   sodipodi:docname="prop.svg"
   inkscape:version="1.3.2 (091e20e, 2023-11-25, custom)"
   xmlns:inkscape="http://www.inkscape.org/namespaces/inkscape"
   xmlns:sodipodi="http://sodipodi.sourceforge.net/DTD/sodipodi-0.dtd"
   xmlns="http://www.w3.org/2000/svg"
   xmlns:svg="http://www.w3.org/2000/svg"
   xmlns:ns1="http://www.iki.fi/pav/software/textext/">
  <sodipodi:namedview
     id="namedview1"
     pagecolor="#ffffff"
     bordercolor="#000000"
     borderopacity="0.25"
     inkscape:showpageshadow="2"
     inkscape:pageopacity="0.0"
     inkscape:pagecheckerboard="0"
     inkscape:deskcolor="#d1d1d1"
     inkscape:document-units="mm"
     showguides="false"
     inkscape:zoom="0.74583496"
     inkscape:cx="380.1109"
     inkscape:cy="244.02181"
     inkscape:window-width="1440"
     inkscape:window-height="830"
     inkscape:window-x="-6"
     inkscape:window-y="-6"
     inkscape:window-maximized="1"
     inkscape:current-layer="layer1"
     showgrid="false" />
  <defs
     id="defs1">
    <rect
       x="275.88956"
       y="328.03363"
       width="121.35348"
       height="25.598"
       id="rect218" />
    <pattern
       patternUnits="userSpaceOnUse"
       width="829.03051"
       height="201.03836"
       patternTransform="translate(160.80709,520.38633)"
       preserveAspectRatio="xMidYMid"
       id="pattern99"
       style="fill:#000000"
       inkscape:label="pattern99">
      <g
         id="path4"
         transform="matrix(3.7795276,0,0,3.7795276,-160.80709,-520.38633)">
        <path
           style="color:#000000;fill:#ffffff;-inkscape-stroke:none"
           d="M 95.404319,137.88411 42.74711,190.67696"
           id="path36" />
        <path
           style="color:#000000;fill:#000000;-inkscape-stroke:none"
           d="m 95.205078,137.68555 -52.658203,52.79101 0.400391,0.40039 52.65625,-52.79297 z"
           id="path37" />
      </g>
      <g
         id="path5"
         transform="matrix(3.7795276,0,0,3.7795276,-160.80709,-520.38633)">
        <path
           style="color:#000000;fill:#ffffff;-inkscape-stroke:none"
           d="M 100.76855,137.88411 48.111341,190.67696"
           id="path38" />
        <path
           style="color:#000000;fill:#000000;-inkscape-stroke:none"
           d="m 100.56836,137.68555 -52.656251,52.79101 0.398438,0.40039 52.658203,-52.79297 z"
           id="path39" />
      </g>
      <g
         id="path6"
         transform="matrix(3.7795276,0,0,3.7795276,-160.80709,-520.38633)">
        <path
           style="color:#000000;fill:#ffffff;-inkscape-stroke:none"
           d="M 106.13278,137.88411 53.475572,190.67696"
           id="path40" />
        <path
           style="color:#000000;fill:#000000;-inkscape-stroke:none"
           d="m 105.93359,137.68555 -52.658199,52.79101 0.40039,0.40039 52.656249,-52.79297 z"
           id="path41" />
      </g>
      <g
         id="path7"
         transform="matrix(3.7795276,0,0,3.7795276,-160.80709,-520.38633)">
        <path
           style="color:#000000;fill:#ffffff;-inkscape-stroke:none"
           d="M 111.49701,137.88411 58.839804,190.67696"
           id="path42" />
        <path
           style="color:#000000;fill:#000000;-inkscape-stroke:none"
           d="m 111.29688,137.68555 -52.656255,52.79101 0.398437,0.40039 52.658208,-52.79297 z"
           id="path43" />
      </g>
      <g
         id="path8"
         transform="matrix(3.7795276,0,0,3.7795276,-160.80709,-520.38633)">
        <path
           style="color:#000000;fill:#ffffff;-inkscape-stroke:none"
           d="M 116.86124,137.88411 64.204035,190.67696"
           id="path44" />
        <path
           style="color:#000000;fill:#000000;-inkscape-stroke:none"
           d="m 116.66211,137.68555 -52.658204,52.79101 0.400391,0.40039 52.656253,-52.79297 z"
           id="path45" />
      </g>
      <g
         id="path9"
         transform="matrix(3.7795276,0,0,3.7795276,-160.80709,-520.38633)">
        <path
           style="color:#000000;fill:#ffffff;-inkscape-stroke:none"
           d="M 122.22547,137.88411 69.568266,190.67696"
           id="path46" />
        <path
           style="color:#000000;fill:#000000;-inkscape-stroke:none"
           d="m 122.02539,137.68555 -52.656249,52.79101 0.398437,0.40039 52.658202,-52.79297 z"
           id="path47" />
      </g>
      <g
         id="path10"
         transform="matrix(3.7795276,0,0,3.7795276,-160.80709,-520.38633)">
        <path
           style="color:#000000;fill:#ffffff;-inkscape-stroke:none"
           d="M 127.5897,137.88411 74.932498,190.67696"
           id="path48" />
        <path
           style="color:#000000;fill:#000000;-inkscape-stroke:none"
           d="m 127.39063,137.68555 -52.658208,52.79101 0.40039,0.40039 52.656248,-52.79297 z"
           id="path49" />
      </g>
      <g
         id="path11"
         transform="matrix(3.7795276,0,0,3.7795276,-160.80709,-520.38633)">
        <path
           style="color:#000000;fill:#ffffff;-inkscape-stroke:none"
           d="M 132.95394,137.88411 80.296729,190.67696"
           id="path50" />
        <path
           style="color:#000000;fill:#000000;-inkscape-stroke:none"
           d="m 132.75391,137.68555 -52.656254,52.79101 0.398438,0.40039 52.658206,-52.79297 z"
           id="path51" />
      </g>
      <g
         id="path12"
         transform="matrix(3.7795276,0,0,3.7795276,-160.80709,-520.38633)">
        <path
           style="color:#000000;fill:#ffffff;-inkscape-stroke:none"
           d="M 138.31811,137.88411 85.660719,190.67696"
           id="path52" />
        <path
           style="color:#000000;fill:#000000;-inkscape-stroke:none"
           d="m 138.11719,137.68555 -52.656253,52.79101 0.400391,0.40039 52.656252,-52.79297 z"
           id="path53" />
      </g>
      <g
         id="path13"
         transform="matrix(3.7795276,0,0,3.7795276,-160.80709,-520.38633)">
        <path
           style="color:#000000;fill:#ffffff;-inkscape-stroke:none"
           d="M 143.68238,137.88411 91.024949,190.67696"
           id="path54" />
        <path
           style="color:#000000;fill:#000000;-inkscape-stroke:none"
           d="m 143.48242,137.68555 -52.658201,52.79101 0.40039,0.40039 52.658201,-52.79297 z"
           id="path55" />
      </g>
      <g
         id="path14"
         transform="matrix(3.7795276,0,0,3.7795276,-160.80709,-520.38633)">
        <path
           style="color:#000000;fill:#ffffff;-inkscape-stroke:none"
           d="M 149.04663,137.88411 96.389179,190.67696"
           id="path56" />
        <path
           style="color:#000000;fill:#000000;-inkscape-stroke:none"
           d="m 148.8457,137.68555 -52.656247,52.79101 0.400391,0.40039 52.656246,-52.79297 z"
           id="path57" />
      </g>
      <g
         id="path15"
         transform="matrix(3.7795276,0,0,3.7795276,-160.80709,-520.38633)">
        <path
           style="color:#000000;fill:#ffffff;-inkscape-stroke:none"
           d="m 154.41086,137.88411 -52.65745,52.79285"
           id="path58" />
        <path
           style="color:#000000;fill:#000000;-inkscape-stroke:none"
           d="m 154.21094,137.68555 -52.65821,52.79101 0.4004,0.40039 52.6582,-52.79297 z"
           id="path59" />
      </g>
      <g
         id="path16"
         transform="matrix(3.7795276,0,0,3.7795276,-160.80709,-520.38633)">
        <path
           style="color:#000000;fill:#ffffff;-inkscape-stroke:none"
           d="m 159.77509,137.88411 -52.65744,52.79285"
           id="path60" />
        <path
           style="color:#000000;fill:#000000;-inkscape-stroke:none"
           d="m 159.57422,137.68555 -52.65625,52.79101 0.40039,0.40039 52.65625,-52.79297 z"
           id="path61" />
      </g>
      <g
         id="path17"
         transform="matrix(3.7795276,0,0,3.7795276,-160.80709,-520.38633)">
        <path
           style="color:#000000;fill:#ffffff;-inkscape-stroke:none"
           d="m 165.13932,137.88411 -52.65741,52.79285"
           id="path62" />
        <path
           style="color:#000000;fill:#000000;-inkscape-stroke:none"
           d="m 164.93945,137.68555 -52.6582,52.79101 0.40039,0.40039 52.6582,-52.79297 z"
           id="path63" />
      </g>
      <g
         id="path18"
         transform="matrix(3.7795276,0,0,3.7795276,-160.80709,-520.38633)">
        <path
           style="color:#000000;fill:#ffffff;-inkscape-stroke:none"
           d="m 170.50355,137.88411 -52.65738,52.79285"
           id="path64" />
        <path
           style="color:#000000;fill:#000000;-inkscape-stroke:none"
           d="m 170.30273,137.68555 -52.65625,52.79101 0.4004,0.40039 52.65624,-52.79297 z"
           id="path65" />
      </g>
      <g
         id="path19"
         transform="matrix(3.7795276,0,0,3.7795276,-160.80709,-520.38633)">
        <path
           style="color:#000000;fill:#ffffff;-inkscape-stroke:none"
           d="m 175.86779,137.88411 -52.65736,52.79285"
           id="path66" />
        <path
           style="color:#000000;fill:#000000;-inkscape-stroke:none"
           d="m 175.66797,137.68555 -52.6582,52.79101 0.40039,0.40039 52.6582,-52.79297 z"
           id="path67" />
      </g>
      <g
         id="path20"
         transform="matrix(3.7795276,0,0,3.7795276,-160.80709,-520.38633)">
        <path
           style="color:#000000;fill:#ffffff;-inkscape-stroke:none"
           d="m 181.23196,137.88411 -52.6575,52.79285"
           id="path68" />
        <path
           style="color:#000000;fill:#000000;-inkscape-stroke:none"
           d="m 181.03125,137.68555 -52.65625,52.79101 0.40039,0.40039 52.65625,-52.79297 z"
           id="path69" />
      </g>
      <g
         id="path21"
         transform="matrix(3.7795276,0,0,3.7795276,-160.80709,-520.38633)">
        <path
           style="color:#000000;fill:#ffffff;-inkscape-stroke:none"
           d="m 186.59623,137.88411 -52.65751,52.79285"
           id="path70" />
        <path
           style="color:#000000;fill:#000000;-inkscape-stroke:none"
           d="m 186.39648,137.68555 -52.6582,52.79101 0.40039,0.40039 52.6582,-52.79297 z"
           id="path71" />
      </g>
      <g
         id="path22"
         transform="matrix(3.7795276,0,0,3.7795276,-160.80709,-520.38633)">
        <path
           style="color:#000000;fill:#ffffff;-inkscape-stroke:none"
           d="m 191.96048,137.88411 -52.6575,52.79285"
           id="path72" />
        <path
           style="color:#000000;fill:#000000;-inkscape-stroke:none"
           d="m 191.75977,137.68555 -52.65625,52.79101 0.40039,0.40039 52.65625,-52.79297 z"
           id="path73" />
      </g>
      <g
         id="path23"
         transform="matrix(3.7795276,0,0,3.7795276,-160.80709,-520.38633)">
        <path
           style="color:#000000;fill:#ffffff;-inkscape-stroke:none"
           d="m 197.32471,137.88411 -52.65747,52.79285"
           id="path74" />
        <path
           style="color:#000000;fill:#000000;-inkscape-stroke:none"
           d="m 197.125,137.68555 -52.6582,52.79101 0.40039,0.40039 52.6582,-52.79297 z"
           id="path75" />
      </g>
      <g
         id="path24"
         transform="matrix(3.7795276,0,0,3.7795276,-160.80709,-520.38633)">
        <path
           style="color:#000000;fill:#ffffff;-inkscape-stroke:none"
           d="M 202.68894,137.88411 150.0315,190.67696"
           id="path76" />
        <path
           style="color:#000000;fill:#000000;-inkscape-stroke:none"
           d="m 202.48828,137.68555 -52.65625,52.79101 0.40039,0.40039 52.65625,-52.79297 z"
           id="path77" />
      </g>
      <g
         id="path25"
         transform="matrix(3.7795276,0,0,3.7795276,-160.80709,-520.38633)">
        <path
           style="color:#000000;fill:#ffffff;-inkscape-stroke:none"
           d="m 208.05317,137.88411 -52.65741,52.79285"
           id="path78" />
        <path
           style="color:#000000;fill:#000000;-inkscape-stroke:none"
           d="m 207.85352,137.68555 -52.65821,52.79101 0.40039,0.40039 52.65821,-52.79297 z"
           id="path79" />
      </g>
      <g
         id="path26"
         transform="matrix(3.7795276,0,0,3.7795276,-160.80709,-520.38633)">
        <path
           style="color:#000000;fill:#ffffff;-inkscape-stroke:none"
           d="m 213.4174,137.88411 -52.65738,52.79285"
           id="path80" />
        <path
           style="color:#000000;fill:#000000;-inkscape-stroke:none"
           d="m 213.2168,137.68555 -52.65625,52.79101 0.40039,0.40039 52.65625,-52.79297 z"
           id="path81" />
      </g>
      <g
         id="path27"
         transform="matrix(3.7795276,0,0,3.7795276,-160.80709,-520.38633)">
        <path
           style="color:#000000;fill:#ffffff;-inkscape-stroke:none"
           d="m 218.78164,137.88411 -52.65736,52.79285"
           id="path82" />
        <path
           style="color:#000000;fill:#000000;-inkscape-stroke:none"
           d="m 218.58203,137.68555 -52.6582,52.79101 0.40039,0.40039 52.6582,-52.79297 z"
           id="path83" />
      </g>
      <g
         id="path28"
         transform="matrix(3.7795276,0,0,3.7795276,-160.80709,-520.38633)">
        <path
           style="color:#000000;fill:#ffffff;-inkscape-stroke:none"
           d="m 224.14581,137.88411 -52.6575,52.79285"
           id="path84" />
        <path
           style="color:#000000;fill:#000000;-inkscape-stroke:none"
           d="m 223.94531,137.68555 -52.65625,52.79101 0.39844,0.40039 52.6582,-52.79297 z"
           id="path85" />
      </g>
      <g
         id="path29"
         transform="matrix(3.7795276,0,0,3.7795276,-160.80709,-520.38633)">
        <path
           style="color:#000000;fill:#ffffff;-inkscape-stroke:none"
           d="m 229.51008,137.88411 -52.65751,52.79285"
           id="path86" />
        <path
           style="color:#000000;fill:#000000;-inkscape-stroke:none"
           d="m 229.31055,137.68555 -52.65821,52.79101 0.40039,0.40039 52.65821,-52.79297 z"
           id="path87" />
      </g>
      <g
         id="path30"
         transform="matrix(3.7795276,0,0,3.7795276,-160.80709,-520.38633)">
        <path
           style="color:#000000;fill:#ffffff;-inkscape-stroke:none"
           d="m 234.87433,137.88411 -52.6575,52.79285"
           id="path88" />
        <path
           style="color:#000000;fill:#000000;-inkscape-stroke:none"
           d="m 234.67383,137.68555 -52.65625,52.79101 0.39844,0.40039 52.6582,-52.79297 z"
           id="path89" />
      </g>
      <g
         id="path31"
         transform="matrix(3.7795276,0,0,3.7795276,-160.80709,-520.38633)">
        <path
           style="color:#000000;fill:#ffffff;-inkscape-stroke:none"
           d="m 240.23856,137.88411 -52.65747,52.79285"
           id="path90" />
        <path
           style="color:#000000;fill:#000000;-inkscape-stroke:none"
           d="m 240.03906,137.68555 -52.6582,52.79101 0.40039,0.40039 52.6582,-52.79297 z"
           id="path91" />
      </g>
      <g
         id="path32"
         transform="matrix(3.7795276,0,0,3.7795276,-160.80709,-520.38633)">
        <path
           style="color:#000000;fill:#ffffff;-inkscape-stroke:none"
           d="m 245.60279,137.88411 -52.65744,52.79285"
           id="path92" />
        <path
           style="color:#000000;fill:#000000;-inkscape-stroke:none"
           d="m 245.40234,137.68555 -52.65625,52.79101 0.39844,0.40039 52.6582,-52.79297 z"
           id="path93" />
      </g>
      <g
         id="path33"
         transform="matrix(3.7795276,0,0,3.7795276,-160.80709,-520.38633)">
        <path
           style="color:#000000;fill:#ffffff;-inkscape-stroke:none"
           d="m 250.96702,137.88411 -52.65741,52.79285"
           id="path94" />
        <path
           style="color:#000000;fill:#000000;-inkscape-stroke:none"
           d="m 250.76758,137.68555 -52.65821,52.79101 0.4004,0.40039 52.6582,-52.79297 z"
           id="path95" />
      </g>
      <g
         id="path34"
         transform="matrix(3.7795276,0,0,3.7795276,-160.80709,-520.38633)">
        <path
           style="color:#000000;fill:#ffffff;-inkscape-stroke:none"
           d="m 256.33125,137.88411 -52.65738,52.79285"
           id="path96" />
        <path
           style="color:#000000;fill:#000000;-inkscape-stroke:none"
           d="m 256.13086,137.68555 -52.65625,52.79101 0.39844,0.40039 52.6582,-52.79297 z"
           id="path97" />
      </g>
      <g
         id="path35"
         transform="matrix(3.7795276,0,0,3.7795276,-160.80709,-520.38633)">
        <path
           style="color:#000000;fill:#ffffff;-inkscape-stroke:none"
           d="m 261.69549,137.88411 -52.65736,52.79285"
           id="path98" />
        <path
           style="color:#000000;fill:#000000;-inkscape-stroke:none"
           d="m 261.49609,137.68555 -52.6582,52.79101 0.40039,0.40039 52.65625,-52.79297 z"
           id="path99" />
      </g>
    </pattern>
  </defs>
  <g
     inkscape:label="Layer 1"
     inkscape:groupmode="layer"
     id="layer1"
     transform="translate(-49.194242,-33.508126)">
    <rect
       style="fill:#ffffff;fill-opacity:1;stroke:#000000;stroke-width:0.468;stroke-dasharray:none"
       id="rect209"
       width="86.488358"
       height="55.318439"
       x="49.428242"
       y="33.742126" />
    <path
       id="path202"
       style="fill:#ffffff;fill-opacity:1;stroke:#000000;stroke-width:0.468;stroke-dasharray:none"
       d="m 92.046896,44.251986 a 20.584061,20.575082 0 0 0 -9.303127,17.194297 20.584061,20.575082 0 0 0 9.294078,17.18808 20.584061,20.575082 0 0 0 9.294083,-17.18808 20.584061,20.575082 0 0 0 -9.285034,-17.194297 z" />
    <path
       id="circle205"
       style="fill:#ffffff;fill-opacity:1;stroke:#000000;stroke-width:0.468;stroke-dasharray:none"
       d="M 103.3278,40.891385 A 20.584061,20.575082 0 0 0 92.046896,44.272146 20.584061,20.575082 0 0 1 101.33193,61.467009 20.584061,20.575082 0 0 1 92.037847,78.654528 20.584061,20.575082 0 0 0 103.3278,82.042065 20.584061,20.575082 0 0 0 123.91183,61.467009 20.584061,20.575082 0 0 0 103.3278,40.891385 Z" />
    <path
       id="circle206"
       style="fill:#e6e6e6;fill-opacity:1;stroke:#000000;stroke-width:0.468;stroke-dasharray:none"
       d="M 80.747894,40.89115 A 20.584061,20.575082 0 0 0 60.163857,61.466213 20.584061,20.575082 0 0 0 80.747894,82.041271 20.584061,20.575082 0 0 0 92.037847,78.654292 20.584061,20.575082 0 0 1 82.743769,61.466213 20.584061,20.575082 0 0 1 92.046896,44.271913 20.584061,20.575082 0 0 0 80.747894,40.89115 Z" />
    <rect
       style="fill:#ffffff;fill-opacity:1;stroke:#000000;stroke-width:0.468;stroke-dasharray:none"
       id="rect245"
       width="86.488358"
       height="55.318439"
       x="149.96989"
       y="33.742126" />
    <path
       id="path245"
       style="fill:#e6e6e6;fill-opacity:1;stroke:#000000;stroke-width:0.468;stroke-dasharray:none"
       d="m 192.58862,44.251986 a 20.584061,20.575082 0 0 0 -9.30314,17.194297 20.584061,20.575082 0 0 0 9.29409,17.18808 20.584061,20.575082 0 0 0 9.29409,-17.18808 20.584061,20.575082 0 0 0 -9.28504,-17.194297 z" />
    <path
       id="path246"
       style="fill:#ffffff;fill-opacity:1;stroke:#000000;stroke-width:0.468;stroke-dasharray:none"
       d="m 203.86953,40.891385 a 20.584061,20.575082 0 0 0 -11.28091,3.380761 20.584061,20.575082 0 0 1 9.28504,17.194863 20.584061,20.575082 0 0 1 -9.29409,17.187519 20.584061,20.575082 0 0 0 11.28996,3.387537 20.584061,20.575082 0 0 0 20.58403,-20.575056 20.584061,20.575082 0 0 0 -20.58403,-20.575624 z" />
    <path
       id="path247"
       style="fill:#ffffff;fill-opacity:1;stroke:#000000;stroke-width:0.468;stroke-dasharray:none"
       d="m 181.28961,40.89115 a 20.584061,20.575082 0 0 0 -20.58405,20.575063 20.584061,20.575082 0 0 0 20.58405,20.575058 20.584061,20.575082 0 0 0 11.28996,-3.386979 20.584061,20.575082 0 0 1 -9.29409,-17.188079 20.584061,20.575082 0 0 1 9.30314,-17.1943 20.584061,20.575082 0 0 0 -11.29901,-3.380763 z" />
    <rect
       style="fill:#ffffff;fill-opacity:1;stroke:#000000;stroke-width:0.468;stroke-dasharray:none"
       id="rect256"
       width="86.488358"
       height="55.318439"
       x="49.428242"
       y="107.82545" />
    <path
       id="path256"
       style="fill:#ffffff;fill-opacity:1;stroke:#000000;stroke-width:0.468;stroke-dasharray:none"
       d="m 92.046896,118.33533 a 20.584061,20.575082 0 0 0 -9.303127,17.19431 20.584061,20.575082 0 0 0 9.294078,17.18809 20.584061,20.575082 0 0 0 9.294083,-17.18809 20.584061,20.575082 0 0 0 -9.285034,-17.19431 z" />
    <path
       id="path257"
       style="fill:#ffffff;fill-opacity:1;stroke:#000000;stroke-width:0.468;stroke-dasharray:none"
       d="m 103.3278,114.97473 a 20.584061,20.575082 0 0 0 -11.280904,3.38076 20.584061,20.575082 0 0 1 9.285034,17.19487 20.584061,20.575082 0 0 1 -9.294083,17.18753 20.584061,20.575082 0 0 0 11.289953,3.38754 20.584061,20.575082 0 0 0 20.58403,-20.57507 20.584061,20.575082 0 0 0 -20.58403,-20.57563 z" />
    <path
       id="path258"
       style="fill:#ffffff;fill-opacity:1;stroke:#000000;stroke-width:0.468;stroke-dasharray:none"
       d="m 80.747894,114.97449 a 20.584061,20.575082 0 0 0 -20.584037,20.57508 20.584061,20.575082 0 0 0 20.584037,20.57507 20.584061,20.575082 0 0 0 11.289953,-3.38698 20.584061,20.575082 0 0 1 -9.294078,-17.18809 20.584061,20.575082 0 0 1 9.303127,-17.19431 20.584061,20.575082 0 0 0 -11.299002,-3.38077 z" />
    <rect
       style="fill:#ffffff;fill-opacity:1;stroke:#000000;stroke-width:0.468;stroke-dasharray:none"
       id="rect267"
       width="86.488358"
       height="55.318439"
       x="149.96989"
       y="107.82545" />
    <path
       id="path267"
       style="fill:#ffffff;fill-opacity:1;stroke:#000000;stroke-width:0.468;stroke-dasharray:none"
       d="m 192.58862,118.33533 a 20.584061,20.575082 0 0 0 -9.30314,17.19431 20.584061,20.575082 0 0 0 9.29409,17.18809 20.584061,20.575082 0 0 0 9.29409,-17.18809 20.584061,20.575082 0 0 0 -9.28504,-17.19431 z" />
    <path
       id="path268"
       style="fill:#ffffff;fill-opacity:1;stroke:#000000;stroke-width:0.468;stroke-dasharray:none"
       d="m 203.86953,114.97473 a 20.584061,20.575082 0 0 0 -11.28091,3.38076 20.584061,20.575082 0 0 1 9.28504,17.19487 20.584061,20.575082 0 0 1 -9.29409,17.18753 20.584061,20.575082 0 0 0 11.28996,3.38754 20.584061,20.575082 0 0 0 20.58403,-20.57507 20.584061,20.575082 0 0 0 -20.58403,-20.57563 z" />
    <path
       id="path269"
       style="fill:#ffffff;fill-opacity:1;stroke:#000000;stroke-width:0.468;stroke-dasharray:none"
       d="m 181.28961,114.97449 a 20.584061,20.575082 0 0 0 -20.58405,20.57508 20.584061,20.575082 0 0 0 20.58405,20.57507 20.584061,20.575082 0 0 0 11.28996,-3.38698 20.584061,20.575082 0 0 1 -9.29409,-17.18809 20.584061,20.575082 0 0 1 9.30314,-17.19431 20.584061,20.575082 0 0 0 -11.29901,-3.38077 z" />
    <g
       transform="matrix(0.634998,0,0,0.634998,68.662952,64.919554)"
       ns1:version="1.10.0"
       ns1:texconverter="xelatex"
       ns1:pdfconverter="inkscape"
       ns1:text="S"
       ns1:preamble="C:\Users\Ichinoe\AppData\Roaming\inkscape\extensions\textext\default_packages.tex"
       ns1:scale="1.8"
       ns1:alignment="middle center"
       ns1:stroke-to-path="0"
       id="g3480"
       ns1:jacobian_sqrt="0.634998">
      <defs
         id="id-61b7f5a7-9cfc-4658-ba85-d0269209c8b0">
        <g
           id="id-13fb9010-8fe4-4fa1-a308-25b52642443e">
          <g
             id="id-92819ef8-33a2-48d1-9dc1-83fb825bc3ea">
            <path
               d="m 4.96875,-1.859375 c 0,-0.984375 -0.65625,-1.8125 -1.484375,-2.015625 l -1.28125,-0.296875 c -0.625,-0.15625 -1,-0.6875 -1,-1.265625 0,-0.703125 0.53125,-1.3125 1.3125,-1.3125 1.65625,0 1.875,1.640625 1.9375,2.078125 0.015625,0.0625 0.015625,0.125 0.125,0.125 0.125,0 0.125,-0.046875 0.125,-0.234375 v -2 c 0,-0.171875 0,-0.25 -0.109375,-0.25 -0.0625,0 -0.078125,0.015625 -0.140625,0.140625 l -0.359375,0.5625 C 3.796875,-6.625 3.390625,-7.03125 2.5,-7.03125 c -1.109375,0 -1.9375,0.875 -1.9375,1.9375 0,0.828125 0.53125,1.5625 1.296875,1.828125 0.109375,0.03125 0.625,0.15625 1.328125,0.328125 0.265625,0.0625 0.5625,0.140625 0.84375,0.5 0.203125,0.265625 0.3125,0.59375 0.3125,0.921875 0,0.703125 -0.5,1.421875 -1.34375,1.421875 -0.28125,0 -1.046875,-0.046875 -1.578125,-0.53125 C 0.84375,-1.171875 0.8125,-1.796875 0.8125,-2.15625 0.796875,-2.265625 0.71875,-2.265625 0.6875,-2.265625 c -0.125,0 -0.125,0.078125 -0.125,0.25 v 2 c 0,0.171875 0,0.234375 0.109375,0.234375 0.0625,0 0.078125,-0.015625 0.140625,-0.125 0,0 0.03125,-0.046875 0.359375,-0.578125 0.3125,0.34375 0.953125,0.703125 1.84375,0.703125 1.15625,0 1.953125,-0.96875 1.953125,-2.078125 z m 0,0"
               id="id-56b4fc4b-1118-4753-b85b-e059ba7992ba" />
          </g>
        </g>
      </defs>
      <g
         fill="#000000"
         fill-opacity="1"
         id="id-8299f601-ce6d-4119-802f-4f88ad68efdb"
         transform="translate(-149.275,-127.734)">
        <g
           transform="translate(148.712,134.765)"
           id="g8811">
          <path
             d="m 4.96875,-1.859375 c 0,-0.984375 -0.65625,-1.8125 -1.484375,-2.015625 l -1.28125,-0.296875 c -0.625,-0.15625 -1,-0.6875 -1,-1.265625 0,-0.703125 0.53125,-1.3125 1.3125,-1.3125 1.65625,0 1.875,1.640625 1.9375,2.078125 0.015625,0.0625 0.015625,0.125 0.125,0.125 0.125,0 0.125,-0.046875 0.125,-0.234375 v -2 c 0,-0.171875 0,-0.25 -0.109375,-0.25 -0.0625,0 -0.078125,0.015625 -0.140625,0.140625 l -0.359375,0.5625 C 3.796875,-6.625 3.390625,-7.03125 2.5,-7.03125 c -1.109375,0 -1.9375,0.875 -1.9375,1.9375 0,0.828125 0.53125,1.5625 1.296875,1.828125 0.109375,0.03125 0.625,0.15625 1.328125,0.328125 0.265625,0.0625 0.5625,0.140625 0.84375,0.5 0.203125,0.265625 0.3125,0.59375 0.3125,0.921875 0,0.703125 -0.5,1.421875 -1.34375,1.421875 -0.28125,0 -1.046875,-0.046875 -1.578125,-0.53125 C 0.84375,-1.171875 0.8125,-1.796875 0.8125,-2.15625 0.796875,-2.265625 0.71875,-2.265625 0.6875,-2.265625 c -0.125,0 -0.125,0.078125 -0.125,0.25 v 2 c 0,0.171875 0,0.234375 0.109375,0.234375 0.0625,0 0.078125,-0.015625 0.140625,-0.125 0,0 0.03125,-0.046875 0.359375,-0.578125 0.3125,0.34375 0.953125,0.703125 1.84375,0.703125 1.15625,0 1.953125,-0.96875 1.953125,-2.078125 z m 0,0"
             id="id-4efcd786-ecc4-439f-af27-bb5d6d47918a" />
        </g>
      </g>
    </g>
    <g
       transform="matrix(0.634998,0,0,0.634998,113.50625,65.058287)"
       ns1:version="1.10.0"
       ns1:texconverter="xelatex"
       ns1:pdfconverter="inkscape"
       ns1:text="P"
       ns1:preamble="C:\Users\Ichinoe\AppData\Roaming\inkscape\extensions\textext\default_packages.tex"
       ns1:scale="1.8"
       ns1:alignment="middle center"
       ns1:stroke-to-path="0"
       id="g284"
       ns1:jacobian_sqrt="0.634998">
      <defs
         id="id-b515b90a-dcdd-453d-8b56-5673be026235">
        <g
           id="id-ba3c76c0-57bd-462c-af56-d1e4a18b3ce3">
          <g
             id="id-1e352c21-b4b8-4c85-b44c-29e43baa056a">
            <path
               d="M 6.21875,-4.953125 C 6.21875,-5.9375 5.234375,-6.8125 3.875,-6.8125 H 0.34375 V -6.5 h 0.25 c 0.765625,0 0.78125,0.109375 0.78125,0.46875 v 5.25 c 0,0.359375 -0.015625,0.46875 -0.78125,0.46875 h -0.25 V 0 c 0.359375,-0.03125 1.09375,-0.03125 1.46875,-0.03125 0.375,0 1.125,0 1.484375,0.03125 v -0.3125 h -0.25 c -0.765625,0 -0.78125,-0.109375 -0.78125,-0.46875 v -2.375 h 1.6875 c 1.1875,0 2.265625,-0.796875 2.265625,-1.796875 z m -1.03125,0 c 0,0.46875 0,1.546875 -1.578125,1.546875 h -1.375 v -2.6875 C 2.234375,-6.4375 2.25,-6.5 2.71875,-6.5 H 3.609375 C 5.1875,-6.5 5.1875,-5.4375 5.1875,-4.953125 Z m 0,0"
               id="id-23257428-fd19-4437-8699-102b0e9df92e" />
          </g>
        </g>
      </defs>
      <g
         fill="#000000"
         fill-opacity="1"
         id="id-c75c789f-de44-454d-a4ff-3ed345215b5c"
         transform="translate(-149.056,-127.953)">
        <g
           transform="translate(148.712,134.765)"
           id="g6398">
          <path
             d="M 6.21875,-4.953125 C 6.21875,-5.9375 5.234375,-6.8125 3.875,-6.8125 H 0.34375 V -6.5 h 0.25 c 0.765625,0 0.78125,0.109375 0.78125,0.46875 v 5.25 c 0,0.359375 -0.015625,0.46875 -0.78125,0.46875 h -0.25 V 0 c 0.359375,-0.03125 1.09375,-0.03125 1.46875,-0.03125 0.375,0 1.125,0 1.484375,0.03125 v -0.3125 h -0.25 c -0.765625,0 -0.78125,-0.109375 -0.78125,-0.46875 v -2.375 h 1.6875 c 1.1875,0 2.265625,-0.796875 2.265625,-1.796875 z m -1.03125,0 c 0,0.46875 0,1.546875 -1.578125,1.546875 h -1.375 v -2.6875 C 2.234375,-6.4375 2.25,-6.5 2.71875,-6.5 H 3.609375 C 5.1875,-6.5 5.1875,-5.4375 5.1875,-4.953125 Z m 0,0"
             id="id-1e36605b-9a0a-4291-a209-aec145e91d78" />
        </g>
      </g>
    </g>
    <g
       transform="matrix(0.634998,0,0,0.634998,169.20466,64.919554)"
       ns1:version="1.10.0"
       ns1:texconverter="xelatex"
       ns1:pdfconverter="inkscape"
       ns1:text="S"
       ns1:preamble="C:\Users\Ichinoe\AppData\Roaming\inkscape\extensions\textext\default_packages.tex"
       ns1:scale="1.8"
       ns1:alignment="middle center"
       ns1:stroke-to-path="0"
       id="g298"
       ns1:jacobian_sqrt="0.634998">
      <defs
         id="defs295">
        <g
           id="g295">
          <g
             id="g294">
            <path
               d="m 4.96875,-1.859375 c 0,-0.984375 -0.65625,-1.8125 -1.484375,-2.015625 l -1.28125,-0.296875 c -0.625,-0.15625 -1,-0.6875 -1,-1.265625 0,-0.703125 0.53125,-1.3125 1.3125,-1.3125 1.65625,0 1.875,1.640625 1.9375,2.078125 0.015625,0.0625 0.015625,0.125 0.125,0.125 0.125,0 0.125,-0.046875 0.125,-0.234375 v -2 c 0,-0.171875 0,-0.25 -0.109375,-0.25 -0.0625,0 -0.078125,0.015625 -0.140625,0.140625 l -0.359375,0.5625 C 3.796875,-6.625 3.390625,-7.03125 2.5,-7.03125 c -1.109375,0 -1.9375,0.875 -1.9375,1.9375 0,0.828125 0.53125,1.5625 1.296875,1.828125 0.109375,0.03125 0.625,0.15625 1.328125,0.328125 0.265625,0.0625 0.5625,0.140625 0.84375,0.5 0.203125,0.265625 0.3125,0.59375 0.3125,0.921875 0,0.703125 -0.5,1.421875 -1.34375,1.421875 -0.28125,0 -1.046875,-0.046875 -1.578125,-0.53125 C 0.84375,-1.171875 0.8125,-1.796875 0.8125,-2.15625 0.796875,-2.265625 0.71875,-2.265625 0.6875,-2.265625 c -0.125,0 -0.125,0.078125 -0.125,0.25 v 2 c 0,0.171875 0,0.234375 0.109375,0.234375 0.0625,0 0.078125,-0.015625 0.140625,-0.125 0,0 0.03125,-0.046875 0.359375,-0.578125 0.3125,0.34375 0.953125,0.703125 1.84375,0.703125 1.15625,0 1.953125,-0.96875 1.953125,-2.078125 z m 0,0"
               id="path294" />
          </g>
        </g>
      </defs>
      <g
         fill="#000000"
         fill-opacity="1"
         id="g297"
         transform="translate(-149.275,-127.734)">
        <g
           transform="translate(148.712,134.765)"
           id="g296">
          <path
             d="m 4.96875,-1.859375 c 0,-0.984375 -0.65625,-1.8125 -1.484375,-2.015625 l -1.28125,-0.296875 c -0.625,-0.15625 -1,-0.6875 -1,-1.265625 0,-0.703125 0.53125,-1.3125 1.3125,-1.3125 1.65625,0 1.875,1.640625 1.9375,2.078125 0.015625,0.0625 0.015625,0.125 0.125,0.125 0.125,0 0.125,-0.046875 0.125,-0.234375 v -2 c 0,-0.171875 0,-0.25 -0.109375,-0.25 -0.0625,0 -0.078125,0.015625 -0.140625,0.140625 l -0.359375,0.5625 C 3.796875,-6.625 3.390625,-7.03125 2.5,-7.03125 c -1.109375,0 -1.9375,0.875 -1.9375,1.9375 0,0.828125 0.53125,1.5625 1.296875,1.828125 0.109375,0.03125 0.625,0.15625 1.328125,0.328125 0.265625,0.0625 0.5625,0.140625 0.84375,0.5 0.203125,0.265625 0.3125,0.59375 0.3125,0.921875 0,0.703125 -0.5,1.421875 -1.34375,1.421875 -0.28125,0 -1.046875,-0.046875 -1.578125,-0.53125 C 0.84375,-1.171875 0.8125,-1.796875 0.8125,-2.15625 0.796875,-2.265625 0.71875,-2.265625 0.6875,-2.265625 c -0.125,0 -0.125,0.078125 -0.125,0.25 v 2 c 0,0.171875 0,0.234375 0.109375,0.234375 0.0625,0 0.078125,-0.015625 0.140625,-0.125 0,0 0.03125,-0.046875 0.359375,-0.578125 0.3125,0.34375 0.953125,0.703125 1.84375,0.703125 1.15625,0 1.953125,-0.96875 1.953125,-2.078125 z m 0,0"
             id="path295" />
        </g>
      </g>
    </g>
    <g
       transform="matrix(0.634998,0,0,0.634998,213.51881,65.058287)"
       ns1:version="1.10.0"
       ns1:texconverter="xelatex"
       ns1:pdfconverter="inkscape"
       ns1:text="P"
       ns1:preamble="C:\Users\Ichinoe\AppData\Roaming\inkscape\extensions\textext\default_packages.tex"
       ns1:scale="1.8"
       ns1:alignment="middle center"
       ns1:stroke-to-path="0"
       id="g303"
       ns1:jacobian_sqrt="0.634998">
      <defs
         id="defs300">
        <g
           id="g300">
          <g
             id="g299">
            <path
               d="M 6.21875,-4.953125 C 6.21875,-5.9375 5.234375,-6.8125 3.875,-6.8125 H 0.34375 V -6.5 h 0.25 c 0.765625,0 0.78125,0.109375 0.78125,0.46875 v 5.25 c 0,0.359375 -0.015625,0.46875 -0.78125,0.46875 h -0.25 V 0 c 0.359375,-0.03125 1.09375,-0.03125 1.46875,-0.03125 0.375,0 1.125,0 1.484375,0.03125 v -0.3125 h -0.25 c -0.765625,0 -0.78125,-0.109375 -0.78125,-0.46875 v -2.375 h 1.6875 c 1.1875,0 2.265625,-0.796875 2.265625,-1.796875 z m -1.03125,0 c 0,0.46875 0,1.546875 -1.578125,1.546875 h -1.375 v -2.6875 C 2.234375,-6.4375 2.25,-6.5 2.71875,-6.5 H 3.609375 C 5.1875,-6.5 5.1875,-5.4375 5.1875,-4.953125 Z m 0,0"
               id="path298" />
          </g>
        </g>
      </defs>
      <g
         fill="#000000"
         fill-opacity="1"
         id="g302"
         transform="translate(-149.056,-127.953)">
        <g
           transform="translate(148.712,134.765)"
           id="g301">
          <path
             d="M 6.21875,-4.953125 C 6.21875,-5.9375 5.234375,-6.8125 3.875,-6.8125 H 0.34375 V -6.5 h 0.25 c 0.765625,0 0.78125,0.109375 0.78125,0.46875 v 5.25 c 0,0.359375 -0.015625,0.46875 -0.78125,0.46875 h -0.25 V 0 c 0.359375,-0.03125 1.09375,-0.03125 1.46875,-0.03125 0.375,0 1.125,0 1.484375,0.03125 v -0.3125 h -0.25 c -0.765625,0 -0.78125,-0.109375 -0.78125,-0.46875 v -2.375 h 1.6875 c 1.1875,0 2.265625,-0.796875 2.265625,-1.796875 z m -1.03125,0 c 0,0.46875 0,1.546875 -1.578125,1.546875 h -1.375 v -2.6875 C 2.234375,-6.4375 2.25,-6.5 2.71875,-6.5 H 3.609375 C 5.1875,-6.5 5.1875,-5.4375 5.1875,-4.953125 Z m 0,0"
             id="path300" />
        </g>
      </g>
    </g>
    <g
       transform="matrix(0.634998,0,0,0.634998,68.662952,139.00269)"
       ns1:version="1.10.0"
       ns1:texconverter="xelatex"
       ns1:pdfconverter="inkscape"
       ns1:text="S"
       ns1:preamble="C:\Users\Ichinoe\AppData\Roaming\inkscape\extensions\textext\default_packages.tex"
       ns1:scale="1.8"
       ns1:alignment="middle center"
       ns1:stroke-to-path="0"
       id="g327"
       ns1:jacobian_sqrt="0.634998">
      <defs
         id="defs324">
        <g
           id="g324">
          <g
             id="g323">
            <path
               d="m 4.96875,-1.859375 c 0,-0.984375 -0.65625,-1.8125 -1.484375,-2.015625 l -1.28125,-0.296875 c -0.625,-0.15625 -1,-0.6875 -1,-1.265625 0,-0.703125 0.53125,-1.3125 1.3125,-1.3125 1.65625,0 1.875,1.640625 1.9375,2.078125 0.015625,0.0625 0.015625,0.125 0.125,0.125 0.125,0 0.125,-0.046875 0.125,-0.234375 v -2 c 0,-0.171875 0,-0.25 -0.109375,-0.25 -0.0625,0 -0.078125,0.015625 -0.140625,0.140625 l -0.359375,0.5625 C 3.796875,-6.625 3.390625,-7.03125 2.5,-7.03125 c -1.109375,0 -1.9375,0.875 -1.9375,1.9375 0,0.828125 0.53125,1.5625 1.296875,1.828125 0.109375,0.03125 0.625,0.15625 1.328125,0.328125 0.265625,0.0625 0.5625,0.140625 0.84375,0.5 0.203125,0.265625 0.3125,0.59375 0.3125,0.921875 0,0.703125 -0.5,1.421875 -1.34375,1.421875 -0.28125,0 -1.046875,-0.046875 -1.578125,-0.53125 C 0.84375,-1.171875 0.8125,-1.796875 0.8125,-2.15625 0.796875,-2.265625 0.71875,-2.265625 0.6875,-2.265625 c -0.125,0 -0.125,0.078125 -0.125,0.25 v 2 c 0,0.171875 0,0.234375 0.109375,0.234375 0.0625,0 0.078125,-0.015625 0.140625,-0.125 0,0 0.03125,-0.046875 0.359375,-0.578125 0.3125,0.34375 0.953125,0.703125 1.84375,0.703125 1.15625,0 1.953125,-0.96875 1.953125,-2.078125 z m 0,0"
               id="path323" />
          </g>
        </g>
      </defs>
      <g
         fill="#000000"
         fill-opacity="1"
         id="g326"
         transform="translate(-149.275,-127.734)">
        <g
           transform="translate(148.712,134.765)"
           id="g325">
          <path
             d="m 4.96875,-1.859375 c 0,-0.984375 -0.65625,-1.8125 -1.484375,-2.015625 l -1.28125,-0.296875 c -0.625,-0.15625 -1,-0.6875 -1,-1.265625 0,-0.703125 0.53125,-1.3125 1.3125,-1.3125 1.65625,0 1.875,1.640625 1.9375,2.078125 0.015625,0.0625 0.015625,0.125 0.125,0.125 0.125,0 0.125,-0.046875 0.125,-0.234375 v -2 c 0,-0.171875 0,-0.25 -0.109375,-0.25 -0.0625,0 -0.078125,0.015625 -0.140625,0.140625 l -0.359375,0.5625 C 3.796875,-6.625 3.390625,-7.03125 2.5,-7.03125 c -1.109375,0 -1.9375,0.875 -1.9375,1.9375 0,0.828125 0.53125,1.5625 1.296875,1.828125 0.109375,0.03125 0.625,0.15625 1.328125,0.328125 0.265625,0.0625 0.5625,0.140625 0.84375,0.5 0.203125,0.265625 0.3125,0.59375 0.3125,0.921875 0,0.703125 -0.5,1.421875 -1.34375,1.421875 -0.28125,0 -1.046875,-0.046875 -1.578125,-0.53125 C 0.84375,-1.171875 0.8125,-1.796875 0.8125,-2.15625 0.796875,-2.265625 0.71875,-2.265625 0.6875,-2.265625 c -0.125,0 -0.125,0.078125 -0.125,0.25 v 2 c 0,0.171875 0,0.234375 0.109375,0.234375 0.0625,0 0.078125,-0.015625 0.140625,-0.125 0,0 0.03125,-0.046875 0.359375,-0.578125 0.3125,0.34375 0.953125,0.703125 1.84375,0.703125 1.15625,0 1.953125,-0.96875 1.953125,-2.078125 z m 0,0"
             id="path324" />
        </g>
      </g>
    </g>
    <g
       transform="matrix(0.634998,0,0,0.634998,113.50625,139.14164)"
       ns1:version="1.10.0"
       ns1:texconverter="xelatex"
       ns1:pdfconverter="inkscape"
       ns1:text="P"
       ns1:preamble="C:\Users\Ichinoe\AppData\Roaming\inkscape\extensions\textext\default_packages.tex"
       ns1:scale="1.8"
       ns1:alignment="middle center"
       ns1:stroke-to-path="0"
       id="g332"
       ns1:jacobian_sqrt="0.634998">
      <defs
         id="defs329">
        <g
           id="g329">
          <g
             id="g328">
            <path
               d="M 6.21875,-4.953125 C 6.21875,-5.9375 5.234375,-6.8125 3.875,-6.8125 H 0.34375 V -6.5 h 0.25 c 0.765625,0 0.78125,0.109375 0.78125,0.46875 v 5.25 c 0,0.359375 -0.015625,0.46875 -0.78125,0.46875 h -0.25 V 0 c 0.359375,-0.03125 1.09375,-0.03125 1.46875,-0.03125 0.375,0 1.125,0 1.484375,0.03125 v -0.3125 h -0.25 c -0.765625,0 -0.78125,-0.109375 -0.78125,-0.46875 v -2.375 h 1.6875 c 1.1875,0 2.265625,-0.796875 2.265625,-1.796875 z m -1.03125,0 c 0,0.46875 0,1.546875 -1.578125,1.546875 h -1.375 v -2.6875 C 2.234375,-6.4375 2.25,-6.5 2.71875,-6.5 H 3.609375 C 5.1875,-6.5 5.1875,-5.4375 5.1875,-4.953125 Z m 0,0"
               id="path327" />
          </g>
        </g>
      </defs>
      <g
         fill="#000000"
         fill-opacity="1"
         id="g331"
         transform="translate(-149.056,-127.953)">
        <g
           transform="translate(148.712,134.765)"
           id="g330">
          <path
             d="M 6.21875,-4.953125 C 6.21875,-5.9375 5.234375,-6.8125 3.875,-6.8125 H 0.34375 V -6.5 h 0.25 c 0.765625,0 0.78125,0.109375 0.78125,0.46875 v 5.25 c 0,0.359375 -0.015625,0.46875 -0.78125,0.46875 h -0.25 V 0 c 0.359375,-0.03125 1.09375,-0.03125 1.46875,-0.03125 0.375,0 1.125,0 1.484375,0.03125 v -0.3125 h -0.25 c -0.765625,0 -0.78125,-0.109375 -0.78125,-0.46875 v -2.375 h 1.6875 c 1.1875,0 2.265625,-0.796875 2.265625,-1.796875 z m -1.03125,0 c 0,0.46875 0,1.546875 -1.578125,1.546875 h -1.375 v -2.6875 C 2.234375,-6.4375 2.25,-6.5 2.71875,-6.5 H 3.609375 C 5.1875,-6.5 5.1875,-5.4375 5.1875,-4.953125 Z m 0,0"
             id="path329" />
        </g>
      </g>
    </g>
    <g
       transform="matrix(0.634998,0,0,0.634998,169.20466,139.00291)"
       ns1:version="1.10.0"
       ns1:texconverter="xelatex"
       ns1:pdfconverter="inkscape"
       ns1:text="S"
       ns1:preamble="C:\Users\Ichinoe\AppData\Roaming\inkscape\extensions\textext\default_packages.tex"
       ns1:scale="1.8"
       ns1:alignment="middle center"
       ns1:stroke-to-path="0"
       id="g337"
       ns1:jacobian_sqrt="0.634998">
      <defs
         id="defs334">
        <g
           id="g334">
          <g
             id="g333">
            <path
               d="m 4.96875,-1.859375 c 0,-0.984375 -0.65625,-1.8125 -1.484375,-2.015625 l -1.28125,-0.296875 c -0.625,-0.15625 -1,-0.6875 -1,-1.265625 0,-0.703125 0.53125,-1.3125 1.3125,-1.3125 1.65625,0 1.875,1.640625 1.9375,2.078125 0.015625,0.0625 0.015625,0.125 0.125,0.125 0.125,0 0.125,-0.046875 0.125,-0.234375 v -2 c 0,-0.171875 0,-0.25 -0.109375,-0.25 -0.0625,0 -0.078125,0.015625 -0.140625,0.140625 l -0.359375,0.5625 C 3.796875,-6.625 3.390625,-7.03125 2.5,-7.03125 c -1.109375,0 -1.9375,0.875 -1.9375,1.9375 0,0.828125 0.53125,1.5625 1.296875,1.828125 0.109375,0.03125 0.625,0.15625 1.328125,0.328125 0.265625,0.0625 0.5625,0.140625 0.84375,0.5 0.203125,0.265625 0.3125,0.59375 0.3125,0.921875 0,0.703125 -0.5,1.421875 -1.34375,1.421875 -0.28125,0 -1.046875,-0.046875 -1.578125,-0.53125 C 0.84375,-1.171875 0.8125,-1.796875 0.8125,-2.15625 0.796875,-2.265625 0.71875,-2.265625 0.6875,-2.265625 c -0.125,0 -0.125,0.078125 -0.125,0.25 v 2 c 0,0.171875 0,0.234375 0.109375,0.234375 0.0625,0 0.078125,-0.015625 0.140625,-0.125 0,0 0.03125,-0.046875 0.359375,-0.578125 0.3125,0.34375 0.953125,0.703125 1.84375,0.703125 1.15625,0 1.953125,-0.96875 1.953125,-2.078125 z m 0,0"
               id="path332" />
          </g>
        </g>
      </defs>
      <g
         fill="#000000"
         fill-opacity="1"
         id="g336"
         transform="translate(-149.275,-127.734)">
        <g
           transform="translate(148.712,134.765)"
           id="g335">
          <path
             d="m 4.96875,-1.859375 c 0,-0.984375 -0.65625,-1.8125 -1.484375,-2.015625 l -1.28125,-0.296875 c -0.625,-0.15625 -1,-0.6875 -1,-1.265625 0,-0.703125 0.53125,-1.3125 1.3125,-1.3125 1.65625,0 1.875,1.640625 1.9375,2.078125 0.015625,0.0625 0.015625,0.125 0.125,0.125 0.125,0 0.125,-0.046875 0.125,-0.234375 v -2 c 0,-0.171875 0,-0.25 -0.109375,-0.25 -0.0625,0 -0.078125,0.015625 -0.140625,0.140625 l -0.359375,0.5625 C 3.796875,-6.625 3.390625,-7.03125 2.5,-7.03125 c -1.109375,0 -1.9375,0.875 -1.9375,1.9375 0,0.828125 0.53125,1.5625 1.296875,1.828125 0.109375,0.03125 0.625,0.15625 1.328125,0.328125 0.265625,0.0625 0.5625,0.140625 0.84375,0.5 0.203125,0.265625 0.3125,0.59375 0.3125,0.921875 0,0.703125 -0.5,1.421875 -1.34375,1.421875 -0.28125,0 -1.046875,-0.046875 -1.578125,-0.53125 C 0.84375,-1.171875 0.8125,-1.796875 0.8125,-2.15625 0.796875,-2.265625 0.71875,-2.265625 0.6875,-2.265625 c -0.125,0 -0.125,0.078125 -0.125,0.25 v 2 c 0,0.171875 0,0.234375 0.109375,0.234375 0.0625,0 0.078125,-0.015625 0.140625,-0.125 0,0 0.03125,-0.046875 0.359375,-0.578125 0.3125,0.34375 0.953125,0.703125 1.84375,0.703125 1.15625,0 1.953125,-0.96875 1.953125,-2.078125 z m 0,0"
             id="path334" />
        </g>
      </g>
    </g>
    <g
       transform="matrix(0.634998,0,0,0.634998,213.51881,139.14164)"
       ns1:version="1.10.0"
       ns1:texconverter="xelatex"
       ns1:pdfconverter="inkscape"
       ns1:text="P"
       ns1:preamble="C:\Users\Ichinoe\AppData\Roaming\inkscape\extensions\textext\default_packages.tex"
       ns1:scale="1.8"
       ns1:alignment="middle center"
       ns1:stroke-to-path="0"
       id="g342"
       ns1:jacobian_sqrt="0.634998">
      <defs
         id="defs339">
        <g
           id="g339">
          <g
             id="g338">
            <path
               d="M 6.21875,-4.953125 C 6.21875,-5.9375 5.234375,-6.8125 3.875,-6.8125 H 0.34375 V -6.5 h 0.25 c 0.765625,0 0.78125,0.109375 0.78125,0.46875 v 5.25 c 0,0.359375 -0.015625,0.46875 -0.78125,0.46875 h -0.25 V 0 c 0.359375,-0.03125 1.09375,-0.03125 1.46875,-0.03125 0.375,0 1.125,0 1.484375,0.03125 v -0.3125 h -0.25 c -0.765625,0 -0.78125,-0.109375 -0.78125,-0.46875 v -2.375 h 1.6875 c 1.1875,0 2.265625,-0.796875 2.265625,-1.796875 z m -1.03125,0 c 0,0.46875 0,1.546875 -1.578125,1.546875 h -1.375 v -2.6875 C 2.234375,-6.4375 2.25,-6.5 2.71875,-6.5 H 3.609375 C 5.1875,-6.5 5.1875,-5.4375 5.1875,-4.953125 Z m 0,0"
               id="path337" />
          </g>
        </g>
      </defs>
      <g
         fill="#000000"
         fill-opacity="1"
         id="g341"
         transform="translate(-149.056,-127.953)">
        <g
           transform="translate(148.712,134.765)"
           id="g340">
          <path
             d="M 6.21875,-4.953125 C 6.21875,-5.9375 5.234375,-6.8125 3.875,-6.8125 H 0.34375 V -6.5 h 0.25 c 0.765625,0 0.78125,0.109375 0.78125,0.46875 v 5.25 c 0,0.359375 -0.015625,0.46875 -0.78125,0.46875 h -0.25 V 0 c 0.359375,-0.03125 1.09375,-0.03125 1.46875,-0.03125 0.375,0 1.125,0 1.484375,0.03125 v -0.3125 h -0.25 c -0.765625,0 -0.78125,-0.109375 -0.78125,-0.46875 v -2.375 h 1.6875 c 1.1875,0 2.265625,-0.796875 2.265625,-1.796875 z m -1.03125,0 c 0,0.46875 0,1.546875 -1.578125,1.546875 h -1.375 v -2.6875 C 2.234375,-6.4375 2.25,-6.5 2.71875,-6.5 H 3.609375 C 5.1875,-6.5 5.1875,-5.4375 5.1875,-4.953125 Z m 0,0"
             id="path339" />
        </g>
      </g>
    </g>
    <g
       transform="matrix(0.634998,0,0,0.634998,89.653986,131.25814)"
       ns1:version="1.10.0"
       ns1:texconverter="xelatex"
       ns1:pdfconverter="inkscape"
       ns1:text="$+$"
       ns1:preamble="C:\Users\Ichinoe\AppData\Roaming\inkscape\extensions\textext\default_packages.tex"
       ns1:scale="1.8"
       ns1:alignment="middle center"
       ns1:stroke-to-path="0"
       id="g347"
       ns1:jacobian_sqrt="0.634998">
      <defs
         id="id-0cd5fae1-53ee-4591-bbab-899fb13ecd73">
        <g
           id="id-d7587b87-a9f0-4e24-9b40-945fc32e6f87">
          <g
             id="id-3a7737ef-bec6-422d-91e7-6d9fa5bd753c">
            <path
               d="m 4.078125,-2.296875 h 2.78125 C 7,-2.296875 7.1875,-2.296875 7.1875,-2.5 7.1875,-2.6875 7,-2.6875 6.859375,-2.6875 h -2.78125 v -2.796875 c 0,-0.140625 0,-0.328125 -0.203125,-0.328125 -0.203125,0 -0.203125,0.1875 -0.203125,0.328125 V -2.6875 h -2.78125 c -0.140625,0 -0.328125,0 -0.328125,0.1875 0,0.203125 0.1875,0.203125 0.328125,0.203125 h 2.78125 V 0.5 c 0,0.140625 0,0.328125 0.203125,0.328125 0.203125,0 0.203125,-0.1875 0.203125,-0.328125 z m 0,0"
               id="id-9fa4b076-0c73-40e1-a6f2-948d00eac311" />
          </g>
        </g>
      </defs>
      <g
         fill="#000000"
         fill-opacity="1"
         id="id-22d8a4e2-5da4-4260-aef4-4fe364808995"
         transform="translate(-149.275,-128.952)">
        <g
           transform="translate(148.712,134.765)"
           id="g920">
          <path
             d="m 4.078125,-2.296875 h 2.78125 C 7,-2.296875 7.1875,-2.296875 7.1875,-2.5 7.1875,-2.6875 7,-2.6875 6.859375,-2.6875 h -2.78125 v -2.796875 c 0,-0.140625 0,-0.328125 -0.203125,-0.328125 -0.203125,0 -0.203125,0.1875 -0.203125,0.328125 V -2.6875 h -2.78125 c -0.140625,0 -0.328125,0 -0.328125,0.1875 0,0.203125 0.1875,0.203125 0.328125,0.203125 h 2.78125 V 0.5 c 0,0.140625 0,0.328125 0.203125,0.328125 0.203125,0 0.203125,-0.1875 0.203125,-0.328125 z m 0,0"
             id="id-eabe71dc-3718-4195-8cb9-3630c9cb87f5" />
        </g>
      </g>
    </g>
    <g
       transform="matrix(0.634998,0,0,0.634998,168.54557,131.25769)"
       ns1:version="1.10.0"
       ns1:texconverter="xelatex"
       ns1:pdfconverter="inkscape"
       ns1:text="$+$"
       ns1:preamble="C:\Users\Ichinoe\AppData\Roaming\inkscape\extensions\textext\default_packages.tex"
       ns1:scale="1.8"
       ns1:alignment="middle center"
       ns1:stroke-to-path="0"
       id="g352"
       ns1:jacobian_sqrt="0.634998">
      <defs
         id="defs349">
        <g
           id="g349">
          <g
             id="g348">
            <path
               d="m 4.078125,-2.296875 h 2.78125 C 7,-2.296875 7.1875,-2.296875 7.1875,-2.5 7.1875,-2.6875 7,-2.6875 6.859375,-2.6875 h -2.78125 v -2.796875 c 0,-0.140625 0,-0.328125 -0.203125,-0.328125 -0.203125,0 -0.203125,0.1875 -0.203125,0.328125 V -2.6875 h -2.78125 c -0.140625,0 -0.328125,0 -0.328125,0.1875 0,0.203125 0.1875,0.203125 0.328125,0.203125 h 2.78125 V 0.5 c 0,0.140625 0,0.328125 0.203125,0.328125 0.203125,0 0.203125,-0.1875 0.203125,-0.328125 z m 0,0"
               id="path347" />
          </g>
        </g>
      </defs>
      <g
         fill="#000000"
         fill-opacity="1"
         id="g351"
         transform="translate(-149.275,-128.952)">
        <g
           transform="translate(148.712,134.765)"
           id="g350">
          <path
             d="m 4.078125,-2.296875 h 2.78125 C 7,-2.296875 7.1875,-2.296875 7.1875,-2.5 7.1875,-2.6875 7,-2.6875 6.859375,-2.6875 h -2.78125 v -2.796875 c 0,-0.140625 0,-0.328125 -0.203125,-0.328125 -0.203125,0 -0.203125,0.1875 -0.203125,0.328125 V -2.6875 h -2.78125 c -0.140625,0 -0.328125,0 -0.328125,0.1875 0,0.203125 0.1875,0.203125 0.328125,0.203125 h 2.78125 V 0.5 c 0,0.140625 0,0.328125 0.203125,0.328125 0.203125,0 0.203125,-0.1875 0.203125,-0.328125 z m 0,0"
             id="path349" />
        </g>
      </g>
    </g>
    <g
       transform="matrix(0.705553 0 0 0.705553 85.0727 95.1112)"
       ns1:version="1.10.0"
       ns1:texconverter="xelatex"
       ns1:pdfconverter="inkscape"
       ns1:text="SAP"
       ns1:preamble="C:\Users\Ichinoe\AppData\Roaming\inkscape\extensions\textext\default_packages.tex"
       ns1:scale="2.0"
       ns1:alignment="middle center"
       ns1:stroke-to-path="0"
       ns1:inkscapeversion="1.3.2"
       id="g4051"
       ns1:jacobian_sqrt="0.705553"
       style="stroke-width:0">
      <defs
         id="id-6306c253-08e6-4cab-a595-cb6d340346ba"
         style="stroke-width:0">
        <g
           id="id-8349f847-84b6-4860-8ef8-011d7ebf0c79"
           style="stroke-width:0">
          <g
             id="id-5635089a-bf06-4357-9384-ac03b0c498e7"
             style="stroke-width:0">
            <path
               d="m 4.96875,-1.859375 c 0,-0.984375 -0.65625,-1.8125 -1.484375,-2.015625 l -1.28125,-0.296875 c -0.625,-0.15625 -1,-0.6875 -1,-1.265625 0,-0.703125 0.53125,-1.3125 1.3125,-1.3125 1.65625,0 1.875,1.640625 1.9375,2.078125 0.015625,0.0625 0.015625,0.125 0.125,0.125 0.125,0 0.125,-0.046875 0.125,-0.234375 v -2 c 0,-0.171875 0,-0.25 -0.109375,-0.25 -0.0625,0 -0.078125,0.015625 -0.140625,0.140625 l -0.359375,0.5625 C 3.796875,-6.625 3.390625,-7.03125 2.5,-7.03125 c -1.109375,0 -1.9375,0.875 -1.9375,1.9375 0,0.828125 0.53125,1.5625 1.296875,1.828125 0.109375,0.03125 0.625,0.15625 1.328125,0.328125 0.265625,0.0625 0.5625,0.140625 0.84375,0.5 0.203125,0.265625 0.3125,0.59375 0.3125,0.921875 0,0.703125 -0.5,1.421875 -1.34375,1.421875 -0.28125,0 -1.046875,-0.046875 -1.578125,-0.53125 C 0.84375,-1.171875 0.8125,-1.796875 0.8125,-2.15625 0.796875,-2.265625 0.71875,-2.265625 0.6875,-2.265625 c -0.125,0 -0.125,0.078125 -0.125,0.25 v 2 c 0,0.171875 0,0.234375 0.109375,0.234375 0.0625,0 0.078125,-0.015625 0.140625,-0.125 0,0 0.03125,-0.046875 0.359375,-0.578125 0.3125,0.34375 0.953125,0.703125 1.84375,0.703125 1.15625,0 1.953125,-0.96875 1.953125,-2.078125 z m 0,0"
               id="id-42573ee8-9ece-41b8-858b-edd4c75954b6"
               style="stroke-width:0" />
          </g>
          <g
             id="id-76e55432-8626-4ec8-b689-d371de021ec8"
             style="stroke-width:0">
            <path
               d="M 7.140625,0 V -0.3125 H 6.96875 C 6.375,-0.3125 6.234375,-0.375 6.125,-0.703125 L 3.96875,-6.9375 c -0.046875,-0.125 -0.078125,-0.203125 -0.234375,-0.203125 -0.15625,0 -0.1875,0.0625 -0.234375,0.203125 L 1.4375,-0.984375 C 1.25,-0.46875 0.859375,-0.3125 0.3125,-0.3125 V 0 L 1.328125,-0.03125 2.484375,0 v -0.3125 c -0.5,0 -0.75,-0.25 -0.75,-0.5 0,-0.03125 0.015625,-0.140625 0.015625,-0.15625 L 2.21875,-2.265625 H 4.671875 L 5.203125,-0.75 c 0.015625,0.046875 0.03125,0.109375 0.03125,0.140625 0,0.296875 -0.5625,0.296875 -0.828125,0.296875 V 0 c 0.359375,-0.03125 1.0625,-0.03125 1.4375,-0.03125 z M 4.5625,-2.578125 H 2.328125 l 1.109375,-3.25 z m 0,0"
               id="id-9b770448-d36a-4763-b169-b0dd5e1254ac"
               style="stroke-width:0" />
          </g>
          <g
             id="id-fe0df519-0555-4646-88f6-839dc9c1d5aa"
             style="stroke-width:0">
            <path
               d="M 6.21875,-4.953125 C 6.21875,-5.9375 5.234375,-6.8125 3.875,-6.8125 H 0.34375 V -6.5 h 0.25 c 0.765625,0 0.78125,0.109375 0.78125,0.46875 v 5.25 c 0,0.359375 -0.015625,0.46875 -0.78125,0.46875 h -0.25 V 0 c 0.359375,-0.03125 1.09375,-0.03125 1.46875,-0.03125 0.375,0 1.125,0 1.484375,0.03125 v -0.3125 h -0.25 c -0.765625,0 -0.78125,-0.109375 -0.78125,-0.46875 v -2.375 h 1.6875 c 1.1875,0 2.265625,-0.796875 2.265625,-1.796875 z m -1.03125,0 c 0,0.46875 0,1.546875 -1.578125,1.546875 h -1.375 v -2.6875 C 2.234375,-6.4375 2.25,-6.5 2.71875,-6.5 H 3.609375 C 5.1875,-6.5 5.1875,-5.4375 5.1875,-4.953125 Z m 0,0"
               id="id-74587ba6-0773-4867-92bd-dd0d38b61656"
               style="stroke-width:0" />
          </g>
        </g>
      </defs>
      <g
         fill="#000000"
         fill-opacity="1"
         id="id-71709378-7fa8-4348-9ce5-d067c4cceb30"
         transform="translate(-149.275, -127.624)"
         style="stroke-width:0">
        <g
           transform="translate(148.712, 134.765)"
           id="g7287"
           style="stroke-width:0">
          <path
             d="m 4.96875,-1.859375 c 0,-0.984375 -0.65625,-1.8125 -1.484375,-2.015625 l -1.28125,-0.296875 c -0.625,-0.15625 -1,-0.6875 -1,-1.265625 0,-0.703125 0.53125,-1.3125 1.3125,-1.3125 1.65625,0 1.875,1.640625 1.9375,2.078125 0.015625,0.0625 0.015625,0.125 0.125,0.125 0.125,0 0.125,-0.046875 0.125,-0.234375 v -2 c 0,-0.171875 0,-0.25 -0.109375,-0.25 -0.0625,0 -0.078125,0.015625 -0.140625,0.140625 l -0.359375,0.5625 C 3.796875,-6.625 3.390625,-7.03125 2.5,-7.03125 c -1.109375,0 -1.9375,0.875 -1.9375,1.9375 0,0.828125 0.53125,1.5625 1.296875,1.828125 0.109375,0.03125 0.625,0.15625 1.328125,0.328125 0.265625,0.0625 0.5625,0.140625 0.84375,0.5 0.203125,0.265625 0.3125,0.59375 0.3125,0.921875 0,0.703125 -0.5,1.421875 -1.34375,1.421875 -0.28125,0 -1.046875,-0.046875 -1.578125,-0.53125 C 0.84375,-1.171875 0.8125,-1.796875 0.8125,-2.15625 0.796875,-2.265625 0.71875,-2.265625 0.6875,-2.265625 c -0.125,0 -0.125,0.078125 -0.125,0.25 v 2 c 0,0.171875 0,0.234375 0.109375,0.234375 0.0625,0 0.078125,-0.015625 0.140625,-0.125 0,0 0.03125,-0.046875 0.359375,-0.578125 0.3125,0.34375 0.953125,0.703125 1.84375,0.703125 1.15625,0 1.953125,-0.96875 1.953125,-2.078125 z m 0,0"
             id="id-f5d71fc3-d3ca-444a-8f77-95ea8e35b3cd"
             style="stroke-width:0" />
        </g>
        <g
           transform="translate(154.251, 134.765)"
           id="g1"
           style="stroke-width:0">
          <path
             d="M 7.140625,0 V -0.3125 H 6.96875 C 6.375,-0.3125 6.234375,-0.375 6.125,-0.703125 L 3.96875,-6.9375 c -0.046875,-0.125 -0.078125,-0.203125 -0.234375,-0.203125 -0.15625,0 -0.1875,0.0625 -0.234375,0.203125 L 1.4375,-0.984375 C 1.25,-0.46875 0.859375,-0.3125 0.3125,-0.3125 V 0 L 1.328125,-0.03125 2.484375,0 v -0.3125 c -0.5,0 -0.75,-0.25 -0.75,-0.5 0,-0.03125 0.015625,-0.140625 0.015625,-0.15625 L 2.21875,-2.265625 H 4.671875 L 5.203125,-0.75 c 0.015625,0.046875 0.03125,0.109375 0.03125,0.140625 0,0.296875 -0.5625,0.296875 -0.828125,0.296875 V 0 c 0.359375,-0.03125 1.0625,-0.03125 1.4375,-0.03125 z M 4.5625,-2.578125 H 2.328125 l 1.109375,-3.25 z m 0,0"
             id="id-5174f5ca-f9b2-4981-8042-711adec992ae"
             style="stroke-width:0" />
        </g>
        <g
           transform="translate(161.723, 134.765)"
           id="g5648"
           style="stroke-width:0">
          <path
             d="M 6.21875,-4.953125 C 6.21875,-5.9375 5.234375,-6.8125 3.875,-6.8125 H 0.34375 V -6.5 h 0.25 c 0.765625,0 0.78125,0.109375 0.78125,0.46875 v 5.25 c 0,0.359375 -0.015625,0.46875 -0.78125,0.46875 h -0.25 V 0 c 0.359375,-0.03125 1.09375,-0.03125 1.46875,-0.03125 0.375,0 1.125,0 1.484375,0.03125 v -0.3125 h -0.25 c -0.765625,0 -0.78125,-0.109375 -0.78125,-0.46875 v -2.375 h 1.6875 c 1.1875,0 2.265625,-0.796875 2.265625,-1.796875 z m -1.03125,0 c 0,0.46875 0,1.546875 -1.578125,1.546875 h -1.375 v -2.6875 C 2.234375,-6.4375 2.25,-6.5 2.71875,-6.5 H 3.609375 C 5.1875,-6.5 5.1875,-5.4375 5.1875,-4.953125 Z m 0,0"
             id="id-c957f71b-4a1a-4343-96d1-6ef6cfad3750"
             style="stroke-width:0" />
        </g>
      </g>
    </g>
    <g
       transform="matrix(0.705553 0 0 0.705553 185.855 95.1492)"
       ns1:version="1.10.0"
       ns1:texconverter="xelatex"
       ns1:pdfconverter="inkscape"
       ns1:text="SEP"
       ns1:preamble="C:\Users\Ichinoe\AppData\Roaming\inkscape\extensions\textext\default_packages.tex"
       ns1:scale="2.0"
       ns1:alignment="middle center"
       ns1:stroke-to-path="0"
       ns1:inkscapeversion="1.3.2"
       id="g256"
       ns1:jacobian_sqrt="0.705553"
       style="stroke-width:0">
      <defs
         id="id-1cc211e0-61fa-43b5-9dec-c44de8c6c96a"
         style="stroke-width:0">
        <g
           id="id-eea384b2-2683-4af2-9cc3-ff1b829878b1"
           style="stroke-width:0">
          <g
             id="id-6faa5231-5d6e-4cc3-a560-6e172e3bc577"
             style="stroke-width:0">
            <path
               d="m 4.96875,-1.859375 c 0,-0.984375 -0.65625,-1.8125 -1.484375,-2.015625 l -1.28125,-0.296875 c -0.625,-0.15625 -1,-0.6875 -1,-1.265625 0,-0.703125 0.53125,-1.3125 1.3125,-1.3125 1.65625,0 1.875,1.640625 1.9375,2.078125 0.015625,0.0625 0.015625,0.125 0.125,0.125 0.125,0 0.125,-0.046875 0.125,-0.234375 v -2 c 0,-0.171875 0,-0.25 -0.109375,-0.25 -0.0625,0 -0.078125,0.015625 -0.140625,0.140625 l -0.359375,0.5625 C 3.796875,-6.625 3.390625,-7.03125 2.5,-7.03125 c -1.109375,0 -1.9375,0.875 -1.9375,1.9375 0,0.828125 0.53125,1.5625 1.296875,1.828125 0.109375,0.03125 0.625,0.15625 1.328125,0.328125 0.265625,0.0625 0.5625,0.140625 0.84375,0.5 0.203125,0.265625 0.3125,0.59375 0.3125,0.921875 0,0.703125 -0.5,1.421875 -1.34375,1.421875 -0.28125,0 -1.046875,-0.046875 -1.578125,-0.53125 C 0.84375,-1.171875 0.8125,-1.796875 0.8125,-2.15625 0.796875,-2.265625 0.71875,-2.265625 0.6875,-2.265625 c -0.125,0 -0.125,0.078125 -0.125,0.25 v 2 c 0,0.171875 0,0.234375 0.109375,0.234375 0.0625,0 0.078125,-0.015625 0.140625,-0.125 0,0 0.03125,-0.046875 0.359375,-0.578125 0.3125,0.34375 0.953125,0.703125 1.84375,0.703125 1.15625,0 1.953125,-0.96875 1.953125,-2.078125 z m 0,0"
               id="id-95f17eb6-a786-47a1-a562-ed08066b395c"
               style="stroke-width:0" />
          </g>
          <g
             id="id-5725793d-9a53-4203-a318-02d6687d4d8f"
             style="stroke-width:0">
            <path
               d="M 6.5,-2.578125 H 6.25 C 6,-1.03125 5.765625,-0.3125 4.0625,-0.3125 H 2.734375 C 2.265625,-0.3125 2.25,-0.375 2.25,-0.703125 V -3.375 h 0.890625 c 0.96875,0 1.078125,0.328125 1.078125,1.171875 h 0.25 V -4.84375 h -0.25 c 0,0.859375 -0.109375,1.171875 -1.078125,1.171875 H 2.25 v -2.40625 c 0,-0.328125 0.015625,-0.390625 0.484375,-0.390625 h 1.28125 c 1.53125,0 1.796875,0.546875 1.953125,1.9375 h 0.25 l -0.28125,-2.25 H 0.328125 v 0.3125 H 0.5625 c 0.765625,0 0.796875,0.109375 0.796875,0.46875 v 5.21875 c 0,0.359375 -0.03125,0.46875 -0.796875,0.46875 H 0.328125 V 0 h 5.75 z m 0,0"
               id="id-97ee7f0a-184e-4ddf-b51b-6110193aefbb"
               style="stroke-width:0" />
          </g>
          <g
             id="id-0d86291d-0f7a-4abd-8ec2-718b5b22f580"
             style="stroke-width:0">
            <path
               d="M 6.21875,-4.953125 C 6.21875,-5.9375 5.234375,-6.8125 3.875,-6.8125 H 0.34375 V -6.5 h 0.25 c 0.765625,0 0.78125,0.109375 0.78125,0.46875 v 5.25 c 0,0.359375 -0.015625,0.46875 -0.78125,0.46875 h -0.25 V 0 c 0.359375,-0.03125 1.09375,-0.03125 1.46875,-0.03125 0.375,0 1.125,0 1.484375,0.03125 v -0.3125 h -0.25 c -0.765625,0 -0.78125,-0.109375 -0.78125,-0.46875 v -2.375 h 1.6875 c 1.1875,0 2.265625,-0.796875 2.265625,-1.796875 z m -1.03125,0 c 0,0.46875 0,1.546875 -1.578125,1.546875 h -1.375 v -2.6875 C 2.234375,-6.4375 2.25,-6.5 2.71875,-6.5 H 3.609375 C 5.1875,-6.5 5.1875,-5.4375 5.1875,-4.953125 Z m 0,0"
               id="id-3254d559-862e-45be-a203-e7aabeebb3f3"
               style="stroke-width:0" />
          </g>
        </g>
      </defs>
      <g
         fill="#000000"
         fill-opacity="1"
         id="id-01168d0c-7fbe-4f59-901f-e79d01e5f1a5"
         transform="translate(-149.275, -127.734)"
         style="stroke-width:0">
        <g
           transform="translate(148.712, 134.765)"
           id="g5342"
           style="stroke-width:0">
          <path
             d="m 4.96875,-1.859375 c 0,-0.984375 -0.65625,-1.8125 -1.484375,-2.015625 l -1.28125,-0.296875 c -0.625,-0.15625 -1,-0.6875 -1,-1.265625 0,-0.703125 0.53125,-1.3125 1.3125,-1.3125 1.65625,0 1.875,1.640625 1.9375,2.078125 0.015625,0.0625 0.015625,0.125 0.125,0.125 0.125,0 0.125,-0.046875 0.125,-0.234375 v -2 c 0,-0.171875 0,-0.25 -0.109375,-0.25 -0.0625,0 -0.078125,0.015625 -0.140625,0.140625 l -0.359375,0.5625 C 3.796875,-6.625 3.390625,-7.03125 2.5,-7.03125 c -1.109375,0 -1.9375,0.875 -1.9375,1.9375 0,0.828125 0.53125,1.5625 1.296875,1.828125 0.109375,0.03125 0.625,0.15625 1.328125,0.328125 0.265625,0.0625 0.5625,0.140625 0.84375,0.5 0.203125,0.265625 0.3125,0.59375 0.3125,0.921875 0,0.703125 -0.5,1.421875 -1.34375,1.421875 -0.28125,0 -1.046875,-0.046875 -1.578125,-0.53125 C 0.84375,-1.171875 0.8125,-1.796875 0.8125,-2.15625 0.796875,-2.265625 0.71875,-2.265625 0.6875,-2.265625 c -0.125,0 -0.125,0.078125 -0.125,0.25 v 2 c 0,0.171875 0,0.234375 0.109375,0.234375 0.0625,0 0.078125,-0.015625 0.140625,-0.125 0,0 0.03125,-0.046875 0.359375,-0.578125 0.3125,0.34375 0.953125,0.703125 1.84375,0.703125 1.15625,0 1.953125,-0.96875 1.953125,-2.078125 z m 0,0"
             id="id-7d24ae55-d131-4598-bbd5-30b032cc91a6"
             style="stroke-width:0" />
        </g>
        <g
           transform="translate(154.251, 134.765)"
           id="g4269"
           style="stroke-width:0">
          <path
             d="M 6.5,-2.578125 H 6.25 C 6,-1.03125 5.765625,-0.3125 4.0625,-0.3125 H 2.734375 C 2.265625,-0.3125 2.25,-0.375 2.25,-0.703125 V -3.375 h 0.890625 c 0.96875,0 1.078125,0.328125 1.078125,1.171875 h 0.25 V -4.84375 h -0.25 c 0,0.859375 -0.109375,1.171875 -1.078125,1.171875 H 2.25 v -2.40625 c 0,-0.328125 0.015625,-0.390625 0.484375,-0.390625 h 1.28125 c 1.53125,0 1.796875,0.546875 1.953125,1.9375 h 0.25 l -0.28125,-2.25 H 0.328125 v 0.3125 H 0.5625 c 0.765625,0 0.796875,0.109375 0.796875,0.46875 v 5.21875 c 0,0.359375 -0.03125,0.46875 -0.796875,0.46875 H 0.328125 V 0 h 5.75 z m 0,0"
             id="id-03edc4fa-8aad-431f-9fe2-15695ee5d68c"
             style="stroke-width:0" />
        </g>
        <g
           transform="translate(161.036, 134.765)"
           id="g8140"
           style="stroke-width:0">
          <path
             d="M 6.21875,-4.953125 C 6.21875,-5.9375 5.234375,-6.8125 3.875,-6.8125 H 0.34375 V -6.5 h 0.25 c 0.765625,0 0.78125,0.109375 0.78125,0.46875 v 5.25 c 0,0.359375 -0.015625,0.46875 -0.78125,0.46875 h -0.25 V 0 c 0.359375,-0.03125 1.09375,-0.03125 1.46875,-0.03125 0.375,0 1.125,0 1.484375,0.03125 v -0.3125 h -0.25 c -0.765625,0 -0.78125,-0.109375 -0.78125,-0.46875 v -2.375 h 1.6875 c 1.1875,0 2.265625,-0.796875 2.265625,-1.796875 z m -1.03125,0 c 0,0.46875 0,1.546875 -1.578125,1.546875 h -1.375 v -2.6875 C 2.234375,-6.4375 2.25,-6.5 2.71875,-6.5 H 3.609375 C 5.1875,-6.5 5.1875,-5.4375 5.1875,-4.953125 Z m 0,0"
             id="id-c2b718e1-176f-436a-9e1f-bf3cb4c1c3aa"
             style="stroke-width:0" />
        </g>
      </g>
    </g>
    <g
       transform="matrix(0.705553 0 0 0.705553 86.4393 169.233)"
       ns1:version="1.10.0"
       ns1:texconverter="xelatex"
       ns1:pdfconverter="inkscape"
       ns1:text="SIP"
       ns1:preamble="C:\Users\Ichinoe\AppData\Roaming\inkscape\extensions\textext\default_packages.tex"
       ns1:scale="2.0"
       ns1:alignment="middle center"
       ns1:stroke-to-path="0"
       ns1:inkscapeversion="1.3.2"
       id="g267"
       ns1:jacobian_sqrt="0.705553"
       style="stroke-width:0">
      <defs
         id="id-6bff947f-1481-4b69-a034-d7e199f8459f"
         style="stroke-width:0">
        <g
           id="id-79c566a4-7629-4a10-a2e4-f143b8862004"
           style="stroke-width:0">
          <g
             id="id-7f713965-0449-4501-8854-5c56cbfed913"
             style="stroke-width:0">
            <path
               d="m 4.96875,-1.859375 c 0,-0.984375 -0.65625,-1.8125 -1.484375,-2.015625 l -1.28125,-0.296875 c -0.625,-0.15625 -1,-0.6875 -1,-1.265625 0,-0.703125 0.53125,-1.3125 1.3125,-1.3125 1.65625,0 1.875,1.640625 1.9375,2.078125 0.015625,0.0625 0.015625,0.125 0.125,0.125 0.125,0 0.125,-0.046875 0.125,-0.234375 v -2 c 0,-0.171875 0,-0.25 -0.109375,-0.25 -0.0625,0 -0.078125,0.015625 -0.140625,0.140625 l -0.359375,0.5625 C 3.796875,-6.625 3.390625,-7.03125 2.5,-7.03125 c -1.109375,0 -1.9375,0.875 -1.9375,1.9375 0,0.828125 0.53125,1.5625 1.296875,1.828125 0.109375,0.03125 0.625,0.15625 1.328125,0.328125 0.265625,0.0625 0.5625,0.140625 0.84375,0.5 0.203125,0.265625 0.3125,0.59375 0.3125,0.921875 0,0.703125 -0.5,1.421875 -1.34375,1.421875 -0.28125,0 -1.046875,-0.046875 -1.578125,-0.53125 C 0.84375,-1.171875 0.8125,-1.796875 0.8125,-2.15625 0.796875,-2.265625 0.71875,-2.265625 0.6875,-2.265625 c -0.125,0 -0.125,0.078125 -0.125,0.25 v 2 c 0,0.171875 0,0.234375 0.109375,0.234375 0.0625,0 0.078125,-0.015625 0.140625,-0.125 0,0 0.03125,-0.046875 0.359375,-0.578125 0.3125,0.34375 0.953125,0.703125 1.84375,0.703125 1.15625,0 1.953125,-0.96875 1.953125,-2.078125 z m 0,0"
               id="id-a23a6c2f-ea72-4cc7-9033-016645d83e66"
               style="stroke-width:0" />
          </g>
          <g
             id="id-f6fb9888-6b90-40fe-9b53-50ac07326d90"
             style="stroke-width:0">
            <path
               d="m 3.3125,0 v -0.3125 h -0.25 C 2.265625,-0.3125 2.25,-0.421875 2.25,-0.78125 v -5.25 C 2.25,-6.390625 2.265625,-6.5 3.0625,-6.5 h 0.25 v -0.3125 c -0.34375,0.03125 -1.125,0.03125 -1.515625,0.03125 -0.375,0 -1.171875,0 -1.515625,-0.03125 V -6.5 h 0.25 c 0.796875,0 0.828125,0.109375 0.828125,0.46875 v 5.25 c 0,0.359375 -0.03125,0.46875 -0.828125,0.46875 h -0.25 V 0 c 0.34375,-0.03125 1.140625,-0.03125 1.515625,-0.03125 0.390625,0 1.171875,0 1.515625,0.03125 z m 0,0"
               id="id-0f1574b2-375e-4584-8baf-fdd6597e7d37"
               style="stroke-width:0" />
          </g>
          <g
             id="id-38b498d0-4601-4376-b350-f15d50d74911"
             style="stroke-width:0">
            <path
               d="M 6.21875,-4.953125 C 6.21875,-5.9375 5.234375,-6.8125 3.875,-6.8125 H 0.34375 V -6.5 h 0.25 c 0.765625,0 0.78125,0.109375 0.78125,0.46875 v 5.25 c 0,0.359375 -0.015625,0.46875 -0.78125,0.46875 h -0.25 V 0 c 0.359375,-0.03125 1.09375,-0.03125 1.46875,-0.03125 0.375,0 1.125,0 1.484375,0.03125 v -0.3125 h -0.25 c -0.765625,0 -0.78125,-0.109375 -0.78125,-0.46875 v -2.375 h 1.6875 c 1.1875,0 2.265625,-0.796875 2.265625,-1.796875 z m -1.03125,0 c 0,0.46875 0,1.546875 -1.578125,1.546875 h -1.375 v -2.6875 C 2.234375,-6.4375 2.25,-6.5 2.71875,-6.5 H 3.609375 C 5.1875,-6.5 5.1875,-5.4375 5.1875,-4.953125 Z m 0,0"
               id="id-4b2b46fc-c019-4c85-9ae1-aa88dcb93c06"
               style="stroke-width:0" />
          </g>
        </g>
      </defs>
      <g
         fill="#000000"
         fill-opacity="1"
         id="id-64e1838a-efc6-4be9-a460-5add53301944"
         transform="translate(-149.275, -127.734)"
         style="stroke-width:0">
        <g
           transform="translate(148.712, 134.765)"
           id="g5228"
           style="stroke-width:0">
          <path
             d="m 4.96875,-1.859375 c 0,-0.984375 -0.65625,-1.8125 -1.484375,-2.015625 l -1.28125,-0.296875 c -0.625,-0.15625 -1,-0.6875 -1,-1.265625 0,-0.703125 0.53125,-1.3125 1.3125,-1.3125 1.65625,0 1.875,1.640625 1.9375,2.078125 0.015625,0.0625 0.015625,0.125 0.125,0.125 0.125,0 0.125,-0.046875 0.125,-0.234375 v -2 c 0,-0.171875 0,-0.25 -0.109375,-0.25 -0.0625,0 -0.078125,0.015625 -0.140625,0.140625 l -0.359375,0.5625 C 3.796875,-6.625 3.390625,-7.03125 2.5,-7.03125 c -1.109375,0 -1.9375,0.875 -1.9375,1.9375 0,0.828125 0.53125,1.5625 1.296875,1.828125 0.109375,0.03125 0.625,0.15625 1.328125,0.328125 0.265625,0.0625 0.5625,0.140625 0.84375,0.5 0.203125,0.265625 0.3125,0.59375 0.3125,0.921875 0,0.703125 -0.5,1.421875 -1.34375,1.421875 -0.28125,0 -1.046875,-0.046875 -1.578125,-0.53125 C 0.84375,-1.171875 0.8125,-1.796875 0.8125,-2.15625 0.796875,-2.265625 0.71875,-2.265625 0.6875,-2.265625 c -0.125,0 -0.125,0.078125 -0.125,0.25 v 2 c 0,0.171875 0,0.234375 0.109375,0.234375 0.0625,0 0.078125,-0.015625 0.140625,-0.125 0,0 0.03125,-0.046875 0.359375,-0.578125 0.3125,0.34375 0.953125,0.703125 1.84375,0.703125 1.15625,0 1.953125,-0.96875 1.953125,-2.078125 z m 0,0"
             id="id-5bceadf4-ea79-4e81-aea6-46c71905e665"
             style="stroke-width:0" />
        </g>
        <g
           transform="translate(154.251, 134.765)"
           id="g6395"
           style="stroke-width:0">
          <path
             d="m 3.3125,0 v -0.3125 h -0.25 C 2.265625,-0.3125 2.25,-0.421875 2.25,-0.78125 v -5.25 C 2.25,-6.390625 2.265625,-6.5 3.0625,-6.5 h 0.25 v -0.3125 c -0.34375,0.03125 -1.125,0.03125 -1.515625,0.03125 -0.375,0 -1.171875,0 -1.515625,-0.03125 V -6.5 h 0.25 c 0.796875,0 0.828125,0.109375 0.828125,0.46875 v 5.25 c 0,0.359375 -0.03125,0.46875 -0.828125,0.46875 h -0.25 V 0 c 0.34375,-0.03125 1.140625,-0.03125 1.515625,-0.03125 0.390625,0 1.171875,0 1.515625,0.03125 z m 0,0"
             id="id-998686ba-4593-4281-a5f5-a1ae0f8d6479"
             style="stroke-width:0" />
        </g>
        <g
           transform="translate(157.848, 134.765)"
           id="g8066"
           style="stroke-width:0">
          <path
             d="M 6.21875,-4.953125 C 6.21875,-5.9375 5.234375,-6.8125 3.875,-6.8125 H 0.34375 V -6.5 h 0.25 c 0.765625,0 0.78125,0.109375 0.78125,0.46875 v 5.25 c 0,0.359375 -0.015625,0.46875 -0.78125,0.46875 h -0.25 V 0 c 0.359375,-0.03125 1.09375,-0.03125 1.46875,-0.03125 0.375,0 1.125,0 1.484375,0.03125 v -0.3125 h -0.25 c -0.765625,0 -0.78125,-0.109375 -0.78125,-0.46875 v -2.375 h 1.6875 c 1.1875,0 2.265625,-0.796875 2.265625,-1.796875 z m -1.03125,0 c 0,0.46875 0,1.546875 -1.578125,1.546875 h -1.375 v -2.6875 C 2.234375,-6.4375 2.25,-6.5 2.71875,-6.5 H 3.609375 C 5.1875,-6.5 5.1875,-5.4375 5.1875,-4.953125 Z m 0,0"
             id="id-b66dc531-3cda-48b3-8f43-aed299df5476"
             style="stroke-width:0" />
        </g>
      </g>
    </g>
    <g
       transform="matrix(0.705553 0 0 0.705553 185.515 169.233)"
       ns1:version="1.10.0"
       ns1:texconverter="xelatex"
       ns1:pdfconverter="inkscape"
       ns1:text="SOP"
       ns1:preamble="C:\Users\Ichinoe\AppData\Roaming\inkscape\extensions\textext\default_packages.tex"
       ns1:scale="2.0"
       ns1:alignment="middle center"
       ns1:stroke-to-path="0"
       ns1:inkscapeversion="1.3.2"
       id="g278"
       ns1:jacobian_sqrt="0.705553"
       style="stroke-width:0">
      <defs
         id="id-64664a98-11e2-45ca-96b1-1b6840f87014"
         style="stroke-width:0">
        <g
           id="id-61edc5ed-bd68-467d-a82c-dc37a767dc4e"
           style="stroke-width:0">
          <g
             id="id-faa8aeb4-5596-4a9e-92a7-002a8d2f3a98"
             style="stroke-width:0">
            <path
               d="m 4.96875,-1.859375 c 0,-0.984375 -0.65625,-1.8125 -1.484375,-2.015625 l -1.28125,-0.296875 c -0.625,-0.15625 -1,-0.6875 -1,-1.265625 0,-0.703125 0.53125,-1.3125 1.3125,-1.3125 1.65625,0 1.875,1.640625 1.9375,2.078125 0.015625,0.0625 0.015625,0.125 0.125,0.125 0.125,0 0.125,-0.046875 0.125,-0.234375 v -2 c 0,-0.171875 0,-0.25 -0.109375,-0.25 -0.0625,0 -0.078125,0.015625 -0.140625,0.140625 l -0.359375,0.5625 C 3.796875,-6.625 3.390625,-7.03125 2.5,-7.03125 c -1.109375,0 -1.9375,0.875 -1.9375,1.9375 0,0.828125 0.53125,1.5625 1.296875,1.828125 0.109375,0.03125 0.625,0.15625 1.328125,0.328125 0.265625,0.0625 0.5625,0.140625 0.84375,0.5 0.203125,0.265625 0.3125,0.59375 0.3125,0.921875 0,0.703125 -0.5,1.421875 -1.34375,1.421875 -0.28125,0 -1.046875,-0.046875 -1.578125,-0.53125 C 0.84375,-1.171875 0.8125,-1.796875 0.8125,-2.15625 0.796875,-2.265625 0.71875,-2.265625 0.6875,-2.265625 c -0.125,0 -0.125,0.078125 -0.125,0.25 v 2 c 0,0.171875 0,0.234375 0.109375,0.234375 0.0625,0 0.078125,-0.015625 0.140625,-0.125 0,0 0.03125,-0.046875 0.359375,-0.578125 0.3125,0.34375 0.953125,0.703125 1.84375,0.703125 1.15625,0 1.953125,-0.96875 1.953125,-2.078125 z m 0,0"
               id="id-ddc94ab9-6569-469a-976f-0a802a27662d"
               style="stroke-width:0" />
          </g>
          <g
             id="id-58430365-ebde-4f3c-b80d-444c7ef5fafd"
             style="stroke-width:0">
            <path
               d="m 7.1875,-3.375 c 0,-2.03125 -1.5,-3.65625 -3.3125,-3.65625 -1.796875,0 -3.3125,1.59375 -3.3125,3.65625 0,2.046875 1.53125,3.59375 3.3125,3.59375 1.8125,0 3.3125,-1.578125 3.3125,-3.59375 z M 6.15625,-3.515625 c 0,2.640625 -1.359375,3.46875 -2.28125,3.46875 -0.953125,0 -2.296875,-0.875 -2.296875,-3.46875 0,-2.578125 1.46875,-3.265625 2.296875,-3.265625 0.859375,0 2.28125,0.703125 2.28125,3.265625 z m 0,0"
               id="id-e08dc9a3-0336-4a6a-a90c-aeda31129d14"
               style="stroke-width:0" />
          </g>
          <g
             id="id-04aaad4c-fcbd-4ed6-88f0-b98428c9bf8e"
             style="stroke-width:0">
            <path
               d="M 6.21875,-4.953125 C 6.21875,-5.9375 5.234375,-6.8125 3.875,-6.8125 H 0.34375 V -6.5 h 0.25 c 0.765625,0 0.78125,0.109375 0.78125,0.46875 v 5.25 c 0,0.359375 -0.015625,0.46875 -0.78125,0.46875 h -0.25 V 0 c 0.359375,-0.03125 1.09375,-0.03125 1.46875,-0.03125 0.375,0 1.125,0 1.484375,0.03125 v -0.3125 h -0.25 c -0.765625,0 -0.78125,-0.109375 -0.78125,-0.46875 v -2.375 h 1.6875 c 1.1875,0 2.265625,-0.796875 2.265625,-1.796875 z m -1.03125,0 c 0,0.46875 0,1.546875 -1.578125,1.546875 h -1.375 v -2.6875 C 2.234375,-6.4375 2.25,-6.5 2.71875,-6.5 H 3.609375 C 5.1875,-6.5 5.1875,-5.4375 5.1875,-4.953125 Z m 0,0"
               id="id-b66caa8d-ccda-4586-92cd-9ccb8c95807d"
               style="stroke-width:0" />
          </g>
        </g>
      </defs>
      <g
         fill="#000000"
         fill-opacity="1"
         id="id-c2d55cf7-fc96-4e5b-a432-7c522fec7578"
         transform="translate(-149.275, -127.734)"
         style="stroke-width:0">
        <g
           transform="translate(148.712, 134.765)"
           id="g7329"
           style="stroke-width:0">
          <path
             d="m 4.96875,-1.859375 c 0,-0.984375 -0.65625,-1.8125 -1.484375,-2.015625 l -1.28125,-0.296875 c -0.625,-0.15625 -1,-0.6875 -1,-1.265625 0,-0.703125 0.53125,-1.3125 1.3125,-1.3125 1.65625,0 1.875,1.640625 1.9375,2.078125 0.015625,0.0625 0.015625,0.125 0.125,0.125 0.125,0 0.125,-0.046875 0.125,-0.234375 v -2 c 0,-0.171875 0,-0.25 -0.109375,-0.25 -0.0625,0 -0.078125,0.015625 -0.140625,0.140625 l -0.359375,0.5625 C 3.796875,-6.625 3.390625,-7.03125 2.5,-7.03125 c -1.109375,0 -1.9375,0.875 -1.9375,1.9375 0,0.828125 0.53125,1.5625 1.296875,1.828125 0.109375,0.03125 0.625,0.15625 1.328125,0.328125 0.265625,0.0625 0.5625,0.140625 0.84375,0.5 0.203125,0.265625 0.3125,0.59375 0.3125,0.921875 0,0.703125 -0.5,1.421875 -1.34375,1.421875 -0.28125,0 -1.046875,-0.046875 -1.578125,-0.53125 C 0.84375,-1.171875 0.8125,-1.796875 0.8125,-2.15625 0.796875,-2.265625 0.71875,-2.265625 0.6875,-2.265625 c -0.125,0 -0.125,0.078125 -0.125,0.25 v 2 c 0,0.171875 0,0.234375 0.109375,0.234375 0.0625,0 0.078125,-0.015625 0.140625,-0.125 0,0 0.03125,-0.046875 0.359375,-0.578125 0.3125,0.34375 0.953125,0.703125 1.84375,0.703125 1.15625,0 1.953125,-0.96875 1.953125,-2.078125 z m 0,0"
             id="id-1d9d5b22-b24a-47a0-9937-f04ba41c0b69"
             style="stroke-width:0" />
        </g>
        <g
           transform="translate(154.251, 134.765)"
           id="g5917"
           style="stroke-width:0">
          <path
             d="m 7.1875,-3.375 c 0,-2.03125 -1.5,-3.65625 -3.3125,-3.65625 -1.796875,0 -3.3125,1.59375 -3.3125,3.65625 0,2.046875 1.53125,3.59375 3.3125,3.59375 1.8125,0 3.3125,-1.578125 3.3125,-3.59375 z M 6.15625,-3.515625 c 0,2.640625 -1.359375,3.46875 -2.28125,3.46875 -0.953125,0 -2.296875,-0.875 -2.296875,-3.46875 0,-2.578125 1.46875,-3.265625 2.296875,-3.265625 0.859375,0 2.28125,0.703125 2.28125,3.265625 z m 0,0"
             id="id-98506a3b-9bc5-4e46-a4ea-33b3ffe89fae"
             style="stroke-width:0" />
        </g>
        <g
           transform="translate(162.002, 134.765)"
           id="g459"
           style="stroke-width:0">
          <path
             d="M 6.21875,-4.953125 C 6.21875,-5.9375 5.234375,-6.8125 3.875,-6.8125 H 0.34375 V -6.5 h 0.25 c 0.765625,0 0.78125,0.109375 0.78125,0.46875 v 5.25 c 0,0.359375 -0.015625,0.46875 -0.78125,0.46875 h -0.25 V 0 c 0.359375,-0.03125 1.09375,-0.03125 1.46875,-0.03125 0.375,0 1.125,0 1.484375,0.03125 v -0.3125 h -0.25 c -0.765625,0 -0.78125,-0.109375 -0.78125,-0.46875 v -2.375 h 1.6875 c 1.1875,0 2.265625,-0.796875 2.265625,-1.796875 z m -1.03125,0 c 0,0.46875 0,1.546875 -1.578125,1.546875 h -1.375 v -2.6875 C 2.234375,-6.4375 2.25,-6.5 2.71875,-6.5 H 3.609375 C 5.1875,-6.5 5.1875,-5.4375 5.1875,-4.953125 Z m 0,0"
             id="id-471bbfc7-9885-4f88-a1d0-3f88ed5915aa"
             style="stroke-width:0" />
        </g>
      </g>
    </g>
  </g>
</svg>
