<?xml version="1.0" encoding="UTF-8" standalone="no"?>
<!-- Created with Inkscape (http://www.inkscape.org/) -->

<svg
   width="68mm"
   height="30mm"
   viewBox="0 0 68 30"
   version="1.1"
   id="svg1"
   inkscape:version="1.3.2 (091e20e, 2023-11-25, custom)"
   sodipodi:docname="prod_1.svg"
   xmlns:inkscape="http://www.inkscape.org/namespaces/inkscape"
   xmlns:sodipodi="http://sodipodi.sourceforge.net/DTD/sodipodi-0.dtd"
   xmlns="http://www.w3.org/2000/svg"
   xmlns:svg="http://www.w3.org/2000/svg"
   xmlns:ns1="http://www.iki.fi/pav/software/textext/">
  <sodipodi:namedview
     id="namedview1"
     pagecolor="#ffffff"
     bordercolor="#000000"
     borderopacity="0.25"
     inkscape:showpageshadow="2"
     inkscape:pageopacity="0.0"
     inkscape:pagecheckerboard="0"
     inkscape:deskcolor="#d1d1d1"
     inkscape:document-units="mm"
     inkscape:zoom="2.1095398"
     inkscape:cx="113.53187"
     inkscape:cy="54.514259"
     inkscape:window-width="1440"
     inkscape:window-height="830"
     inkscape:window-x="-6"
     inkscape:window-y="-6"
     inkscape:window-maximized="1"
     inkscape:current-layer="layer1"
     showguides="true" />
  <defs
     id="defs1">
    <inkscape:path-effect
       effect="bspline"
       id="path-effect60"
       is_visible="true"
       lpeversion="1.3"
       weight="33.333333"
       steps="2"
       helper_size="0"
       apply_no_weight="true"
       apply_with_weight="true"
       only_selected="false"
       uniform="false" />
    <inkscape:path-effect
       effect="bspline"
       id="path-effect58"
       is_visible="true"
       lpeversion="1.3"
       weight="33.333333"
       steps="2"
       helper_size="0"
       apply_no_weight="true"
       apply_with_weight="true"
       only_selected="false"
       uniform="false" />
    <inkscape:path-effect
       effect="bspline"
       id="path-effect19"
       is_visible="true"
       lpeversion="1.3"
       weight="33.333333"
       steps="2"
       helper_size="0"
       apply_no_weight="true"
       apply_with_weight="true"
       only_selected="false"
       uniform="false" />
    <inkscape:path-effect
       effect="bspline"
       id="path-effect38"
       is_visible="true"
       lpeversion="1.3"
       weight="33.333333"
       steps="2"
       helper_size="0"
       apply_no_weight="true"
       apply_with_weight="true"
       only_selected="false"
       uniform="false" />
    <inkscape:path-effect
       effect="bspline"
       id="path-effect36"
       is_visible="true"
       lpeversion="1.3"
       weight="33.333333"
       steps="2"
       helper_size="0"
       apply_no_weight="true"
       apply_with_weight="true"
       only_selected="false"
       uniform="false" />
    <inkscape:path-effect
       effect="bspline"
       id="path-effect34"
       is_visible="true"
       lpeversion="1.3"
       weight="33.333333"
       steps="2"
       helper_size="0"
       apply_no_weight="true"
       apply_with_weight="true"
       only_selected="false"
       uniform="false" />
    <inkscape:path-effect
       effect="bspline"
       id="path-effect32"
       is_visible="true"
       lpeversion="1.3"
       weight="33.333333"
       steps="2"
       helper_size="0"
       apply_no_weight="true"
       apply_with_weight="true"
       only_selected="false"
       uniform="false" />
    <inkscape:path-effect
       effect="bspline"
       id="path-effect30"
       is_visible="true"
       lpeversion="1.3"
       weight="33.333333"
       steps="2"
       helper_size="0"
       apply_no_weight="true"
       apply_with_weight="true"
       only_selected="false"
       uniform="false" />
    <inkscape:path-effect
       effect="bspline"
       id="path-effect28"
       is_visible="true"
       lpeversion="1.3"
       weight="33.333333"
       steps="2"
       helper_size="0"
       apply_no_weight="true"
       apply_with_weight="true"
       only_selected="false"
       uniform="false" />
    <marker
       style="overflow:visible"
       id="ArrowWide"
       refX="0"
       refY="0"
       orient="auto-start-reverse"
       inkscape:stockid="Wide arrow"
       markerWidth="1"
       markerHeight="1"
       viewBox="0 0 1 1"
       inkscape:isstock="true"
       inkscape:collect="always"
       preserveAspectRatio="xMidYMid">
      <path
         style="fill:none;stroke:context-stroke;stroke-width:1;stroke-linecap:butt"
         d="M 3,-3 0,0 3,3"
         transform="rotate(180,0.125,0)"
         sodipodi:nodetypes="ccc"
         id="path1" />
    </marker>
    <inkscape:path-effect
       effect="bspline"
       id="path-effect26"
       is_visible="true"
       lpeversion="1.3"
       weight="33.333333"
       steps="2"
       helper_size="0"
       apply_no_weight="true"
       apply_with_weight="true"
       only_selected="false"
       uniform="false" />
    <inkscape:path-effect
       effect="simplify"
       id="path-effect25"
       is_visible="true"
       lpeversion="1.3"
       threshold="142.857"
       steps="1"
       smooth_angles="360"
       helper_size="0"
       simplify_individual_paths="false"
       simplify_just_coalesce="false" />
    <defs
       id="defs22">
      <g
         id="g22">
        <g
           id="g21">
          <path
             d="m 7.578125,-6.921875 c 0,-0.03125 -0.015625,-0.109375 -0.109375,-0.109375 -0.03125,0 -0.046875,0.015625 -0.15625,0.125 L 6.625,-6.140625 C 6.53125,-6.28125 6.078125,-7.03125 4.96875,-7.03125 2.734375,-7.03125 0.5,-4.828125 0.5,-2.515625 0.5,-0.875 1.671875,0.21875 3.203125,0.21875 c 0.859375,0 1.625,-0.390625 2.15625,-0.859375 0.921875,-0.8125 1.09375,-1.71875 1.09375,-1.75 C 6.453125,-2.5 6.34375,-2.5 6.328125,-2.5 c -0.0625,0 -0.109375,0.03125 -0.125,0.109375 -0.09375,0.28125 -0.328125,1 -1.015625,1.578125 -0.6875,0.546875 -1.3125,0.71875 -1.828125,0.71875 -0.890625,0 -1.953125,-0.515625 -1.953125,-2.0625 0,-0.578125 0.203125,-2.1875 1.203125,-3.359375 0.609375,-0.703125 1.546875,-1.203125 2.4375,-1.203125 1.015625,0 1.609375,0.765625 1.609375,1.921875 0,0.40625 -0.03125,0.40625 -0.03125,0.515625 0,0.09375 0.109375,0.09375 0.140625,0.09375 0.125,0 0.125,-0.015625 0.1875,-0.203125 z m 0,0"
             id="path20" />
        </g>
      </g>
    </defs>
    <defs
       id="id-9f34e22a-378e-4bec-8b4f-9263aa40f6c2">
      <g
         id="id-0dcb04aa-6a16-4f23-9c87-32a5dfe8f0e3">
        <g
           id="id-772470c6-57a8-4611-b686-3b461bc47125">
          <path
             d="m 1.578125,-0.78125 c -0.09375,0.390625 -0.109375,0.46875 -0.90625,0.46875 -0.15625,0 -0.265625,0 -0.265625,0.1875 C 0.40625,0 0.484375,0 0.671875,0 h 3.3125 c 2.0625,0 4.03125,-2.109375 4.03125,-4.28125 0,-1.40625 -0.84375,-2.53125 -2.34375,-2.53125 h -3.34375 c -0.1875,0 -0.296875,0 -0.296875,0.1875 0,0.125 0.078125,0.125 0.28125,0.125 0.125,0 0.3125,0.015625 0.421875,0.015625 0.171875,0.03125 0.21875,0.046875 0.21875,0.171875 0,0.03125 0,0.0625 -0.03125,0.1875 z M 3.734375,-6.125 C 3.828125,-6.46875 3.84375,-6.5 4.28125,-6.5 h 1.0625 c 0.96875,0 1.796875,0.53125 1.796875,1.84375 0,0.484375 -0.1875,2.125 -1.046875,3.21875 -0.28125,0.375 -1.0625,1.125 -2.296875,1.125 h -1.125 c -0.140625,0 -0.15625,0 -0.21875,0 -0.09375,-0.015625 -0.125,-0.03125 -0.125,-0.109375 0,-0.03125 0,-0.046875 0.046875,-0.21875 z m 0,0"
             id="id-4804d0c4-4307-45cc-b02f-d9297f745ad5" />
        </g>
      </g>
    </defs>
    <defs
       id="defs39">
      <g
         id="g39">
        <g
           id="g38">
          <path
             d="m 3.65625,-3.984375 h 0.859375 c 0.203125,0 0.296875,0 0.296875,-0.203125 0,-0.109375 -0.09375,-0.109375 -0.265625,-0.109375 H 3.71875 L 3.921875,-5.4375 c 0.046875,-0.203125 0.1875,-0.90625 0.25,-1.03125 0.078125,-0.1875 0.25,-0.34375 0.46875,-0.34375 0.03125,0 0.296875,0 0.484375,0.1875 -0.4375,0.03125 -0.546875,0.390625 -0.546875,0.53125 0,0.234375 0.1875,0.359375 0.375,0.359375 C 5.21875,-5.734375 5.5,-5.96875 5.5,-6.34375 c 0,-0.453125 -0.453125,-0.6875 -0.859375,-0.6875 -0.34375,0 -0.96875,0.1875 -1.265625,1.171875 -0.0625,0.203125 -0.09375,0.3125 -0.328125,1.5625 h -0.6875 c -0.203125,0 -0.3125,0 -0.3125,0.1875 0,0.125 0.09375,0.125 0.28125,0.125 h 0.65625 L 2.25,-0.046875 c -0.1875,0.96875 -0.359375,1.875 -0.875,1.875 -0.046875,0 -0.28125,0 -0.484375,-0.1875 C 1.359375,1.609375 1.453125,1.25 1.453125,1.109375 1.453125,0.875 1.265625,0.75 1.078125,0.75 0.8125,0.75 0.53125,0.984375 0.53125,1.359375 c 0,0.4375 0.4375,0.6875 0.84375,0.6875 0.546875,0 0.953125,-0.59375 1.125,-0.96875 0.328125,-0.625 0.546875,-1.828125 0.5625,-1.90625 z m 0,0"
             id="path38" />
        </g>
      </g>
    </defs>
  </defs>
  <g
     inkscape:label="Layer 1"
     inkscape:groupmode="layer"
     id="layer1"
     transform="translate(-138.05221,-109.94635)">
    <path
       style="fill:none;fill-opacity:0.08;stroke:#000000;stroke-width:0.711373;stroke-dasharray:none;marker-end:url(#ArrowWide)"
       d="m -208.05774,-22.54399 c 17.43552,0 34.87103,0 52.30654,0"
       id="path30"
       inkscape:path-effect="#path-effect32"
       inkscape:original-d="m -208.05774,-22.54399 c 17.43552,0 34.87103,0 52.30654,0"
       transform="matrix(0,0.31764681,-0.24884069,0,152.17677,183.18848)" />
    <path
       style="fill:none;fill-opacity:0.08;stroke:#000000;stroke-width:0.711373;stroke-dasharray:none;marker-end:url(#ArrowWide)"
       d="m -208.05774,-22.54399 c 17.43552,0 34.87103,0 52.30654,0"
       id="path32"
       inkscape:path-effect="#path-effect34"
       inkscape:original-d="m -208.05774,-22.54399 c 17.43552,0 34.87103,0 52.30654,0"
       transform="matrix(0,0.31764681,-0.24884069,0,181.80715,183.18848)" />
    <path
       style="fill:none;fill-opacity:0.08;stroke:#000000;stroke-width:0.504093;stroke-dasharray:none;marker-end:url(#ArrowWide)"
       d="m -208.05774,-22.54399 c 17.43552,0 34.87103,0 52.30654,0"
       id="path26"
       inkscape:path-effect="#path-effect28"
       inkscape:original-d="m -208.05774,-22.54399 c 17.43552,0 34.87103,0 52.30654,0"
       transform="matrix(0.39675244,0,0,0.39675244,230.57112,123.75848)" />
    <path
       style="fill:none;fill-opacity:0.08;stroke:#000000;stroke-width:0.504093;stroke-dasharray:none;marker-end:url(#ArrowWide)"
       d="m -208.05774,-22.54399 c 17.43552,0 34.87103,0 52.30654,0"
       id="path9"
       inkscape:path-effect="#path-effect19"
       inkscape:original-d="m -208.05774,-22.54399 c 17.43552,0 34.87103,0 52.30654,0"
       transform="matrix(0.39675244,0,0,0.39675244,259.67532,123.75848)" />
    <g
       transform="matrix(0.437445,0,0,0.437445,141.22734,112.80481)"
       ns1:version="1.10.0"
       ns1:texconverter="xelatex"
       ns1:pdfconverter="inkscape"
       ns1:text="$\\mathscr{A}$"
       ns1:preamble="C:\Users\Ichinoe\Downloads\scr.tex"
       ns1:scale="1.24"
       ns1:alignment="middle center"
       ns1:stroke-to-path="0"
       ns1:inkscapeversion="1.3.2"
       id="g10"
       ns1:jacobian_sqrt="0.437445">
      <defs
         id="id-fcae5f25-5b95-4e84-bb74-f29f4de67227">
        <g
           id="id-19776b95-c477-4dd6-87b9-bc1090cd42d2">
          <g
             id="id-468ae346-cc71-4f52-a4e9-ad83ee9ab0c2">
            <path
               d="m 7.359375,-1.46875 c -0.375,0.375 -0.875,0.671875 -1.3125,0.765625 l 3.90625,-6.3125 C 9.96875,-7.03125 9.96875,-7.046875 9.96875,-7.0625 9.96875,-7.09375 9.953125,-7.125 9.9375,-7.125 9.921875,-7.140625 9.90625,-7.140625 9.890625,-7.140625 H 9.78125 c -0.03125,0 -0.046875,0.015625 -0.078125,0.03125 l -0.09375,0.140625 c -0.609375,0.421875 -1.21875,0.875 -1.8125,1.3125 -0.765625,0.578125 -1.53125,1.1875 -2.21875,1.8125 -0.359375,-0.4375 -0.9375,-0.6875 -1.796875,-0.6875 -0.421875,0 -1,0.1875 -1.28125,0.578125 C 2.078125,-3.34375 1.890625,-2.8125 1.890625,-2.375 c 0,0.640625 0.390625,1.109375 1.03125,1.421875 -0.546875,0.46875 -1.1875,0.8125 -1.6875,0.8125 -0.390625,0 -0.640625,-0.15625 -0.640625,-0.40625 0,-0.078125 0,-0.15625 0.046875,-0.234375 0.0625,0.078125 0.15625,0.125 0.265625,0.125 0.265625,0 0.5625,-0.203125 0.5625,-0.390625 0,-0.25 -0.15625,-0.34375 -0.328125,-0.34375 -0.21875,0 -0.453125,0.125 -0.578125,0.296875 -0.140625,0.21875 -0.21875,0.40625 -0.21875,0.578125 0,0.359375 0.34375,0.59375 0.859375,0.59375 0.59375,0 1.34375,-0.390625 1.953125,-0.921875 0.515625,0.203125 1.15625,0.328125 1.859375,0.375 L 4.78125,-0.125 c -0.015625,0 -0.03125,0.03125 -0.03125,0.046875 0,0.015625 0.03125,0.046875 0.046875,0.0625 C 4.8125,0 4.828125,0 4.84375,0 H 5.5625 C 5.59375,0 5.625,-0.015625 5.625,-0.046875 l 0.265625,-0.40625 C 6.40625,-0.53125 7.03125,-0.859375 7.46875,-1.3125 7.484375,-1.328125 7.5,-1.359375 7.5,-1.390625 v -0.03125 c 0,-0.03125 -0.015625,-0.0625 -0.046875,-0.078125 0,0 -0.015625,0 -0.03125,0 -0.015625,0 -0.046875,0 -0.0625,0.03125 z M 6.0625,-1.953125 c 0.015625,-0.09375 0.015625,-0.203125 0.015625,-0.3125 0,-0.53125 -0.109375,-1.015625 -0.359375,-1.390625 C 6.421875,-4.3125 7.203125,-4.921875 8,-5.515625 c 0.390625,-0.28125 0.78125,-0.5625 1.1875,-0.84375 z M 2.90625,-3.734375 C 3.125,-4.03125 3.5,-4.3125 3.75,-4.3125 c 0.78125,0 1.296875,0.234375 1.640625,0.640625 -0.671875,0.59375 -1.25,1.234375 -1.703125,1.875 -0.15625,0.21875 -0.34375,0.4375 -0.53125,0.625 -0.5,-0.265625 -0.796875,-0.65625 -0.796875,-1.15625 0,-0.390625 0.171875,-0.859375 0.546875,-1.40625 z M 3.921875,-1.6875 c 0.4375,-0.625 0.984375,-1.21875 1.59375,-1.796875 0.203125,0.34375 0.28125,0.765625 0.28125,1.25 C 5.796875,-2 5.78125,-1.75 5.734375,-1.5 L 5.15625,-0.6875 C 4.46875,-0.734375 3.859375,-0.84375 3.375,-1.0625 3.59375,-1.25 3.78125,-1.46875 3.921875,-1.6875 Z m 0,0"
               id="id-1d9244e9-f384-409b-960c-2ad596776803" />
          </g>
        </g>
      </defs>
      <g
         fill="#000000"
         fill-opacity="1"
         id="id-0593cfa8-3510-4b0f-88a4-24336e7554f3"
         transform="translate(-149.056,-127.624)">
        <g
           transform="translate(148.712,134.765)"
           id="g628">
          <path
             d="m 7.359375,-1.46875 c -0.375,0.375 -0.875,0.671875 -1.3125,0.765625 l 3.90625,-6.3125 C 9.96875,-7.03125 9.96875,-7.046875 9.96875,-7.0625 9.96875,-7.09375 9.953125,-7.125 9.9375,-7.125 9.921875,-7.140625 9.90625,-7.140625 9.890625,-7.140625 H 9.78125 c -0.03125,0 -0.046875,0.015625 -0.078125,0.03125 l -0.09375,0.140625 c -0.609375,0.421875 -1.21875,0.875 -1.8125,1.3125 -0.765625,0.578125 -1.53125,1.1875 -2.21875,1.8125 -0.359375,-0.4375 -0.9375,-0.6875 -1.796875,-0.6875 -0.421875,0 -1,0.1875 -1.28125,0.578125 C 2.078125,-3.34375 1.890625,-2.8125 1.890625,-2.375 c 0,0.640625 0.390625,1.109375 1.03125,1.421875 -0.546875,0.46875 -1.1875,0.8125 -1.6875,0.8125 -0.390625,0 -0.640625,-0.15625 -0.640625,-0.40625 0,-0.078125 0,-0.15625 0.046875,-0.234375 0.0625,0.078125 0.15625,0.125 0.265625,0.125 0.265625,0 0.5625,-0.203125 0.5625,-0.390625 0,-0.25 -0.15625,-0.34375 -0.328125,-0.34375 -0.21875,0 -0.453125,0.125 -0.578125,0.296875 -0.140625,0.21875 -0.21875,0.40625 -0.21875,0.578125 0,0.359375 0.34375,0.59375 0.859375,0.59375 0.59375,0 1.34375,-0.390625 1.953125,-0.921875 0.515625,0.203125 1.15625,0.328125 1.859375,0.375 L 4.78125,-0.125 c -0.015625,0 -0.03125,0.03125 -0.03125,0.046875 0,0.015625 0.03125,0.046875 0.046875,0.0625 C 4.8125,0 4.828125,0 4.84375,0 H 5.5625 C 5.59375,0 5.625,-0.015625 5.625,-0.046875 l 0.265625,-0.40625 C 6.40625,-0.53125 7.03125,-0.859375 7.46875,-1.3125 7.484375,-1.328125 7.5,-1.359375 7.5,-1.390625 v -0.03125 c 0,-0.03125 -0.015625,-0.0625 -0.046875,-0.078125 0,0 -0.015625,0 -0.03125,0 -0.015625,0 -0.046875,0 -0.0625,0.03125 z M 6.0625,-1.953125 c 0.015625,-0.09375 0.015625,-0.203125 0.015625,-0.3125 0,-0.53125 -0.109375,-1.015625 -0.359375,-1.390625 C 6.421875,-4.3125 7.203125,-4.921875 8,-5.515625 c 0.390625,-0.28125 0.78125,-0.5625 1.1875,-0.84375 z M 2.90625,-3.734375 C 3.125,-4.03125 3.5,-4.3125 3.75,-4.3125 c 0.78125,0 1.296875,0.234375 1.640625,0.640625 -0.671875,0.59375 -1.25,1.234375 -1.703125,1.875 -0.15625,0.21875 -0.34375,0.4375 -0.53125,0.625 -0.5,-0.265625 -0.796875,-0.65625 -0.796875,-1.15625 0,-0.390625 0.171875,-0.859375 0.546875,-1.40625 z M 3.921875,-1.6875 c 0.4375,-0.625 0.984375,-1.21875 1.59375,-1.796875 0.203125,0.34375 0.28125,0.765625 0.28125,1.25 C 5.796875,-2 5.78125,-1.75 5.734375,-1.5 L 5.15625,-0.6875 C 4.46875,-0.734375 3.859375,-0.84375 3.375,-1.0625 3.59375,-1.25 3.78125,-1.46875 3.921875,-1.6875 Z m 0,0"
             id="id-ab0f4f1f-f9c4-4cb0-b936-f45ff70828d8" />
        </g>
      </g>
    </g>
    <g
       transform="matrix(0.43744499,0,0,0.43744499,171.62634,113.09281)"
       ns1:version="1.10.0"
       ns1:texconverter="xelatex"
       ns1:pdfconverter="inkscape"
       ns1:text="$B$"
       ns1:preamble="C:\Users\Ichinoe\AppData\Roaming\inkscape\extensions\textext\default_packages.tex"
       ns1:scale="1.24"
       ns1:alignment="middle center"
       ns1:stroke-to-path="0"
       id="g15"
       ns1:jacobian_sqrt="0.437445"
       inkscape:label="g15">
      <defs
         id="defs12">
        <g
           id="g12">
          <g
             id="g11">
            <path
               d="M 1.59375,-0.78125 C 1.5,-0.390625 1.46875,-0.3125 0.6875,-0.3125 c -0.171875,0 -0.265625,0 -0.265625,0.203125 C 0.421875,0 0.515625,0 0.6875,0 H 4.25 C 5.828125,0 7,-1.171875 7,-2.15625 7,-2.875 6.421875,-3.453125 5.453125,-3.5625 6.484375,-3.75 7.53125,-4.484375 7.53125,-5.4375 c 0,-0.734375 -0.65625,-1.375 -1.84375,-1.375 H 2.328125 c -0.1875,0 -0.28125,0 -0.28125,0.203125 0,0.109375 0.09375,0.109375 0.28125,0.109375 0.015625,0 0.203125,0 0.375,0.015625 0.171875,0.03125 0.265625,0.03125 0.265625,0.171875 0,0.03125 -0.015625,0.0625 -0.03125,0.1875 z m 1.5,-2.875 0.625,-2.46875 C 3.8125,-6.46875 3.828125,-6.5 4.25,-6.5 h 1.296875 c 0.875,0 1.078125,0.59375 1.078125,1.03125 0,0.875 -0.859375,1.8125 -2.0625,1.8125 z m -0.4375,3.34375 c -0.140625,0 -0.15625,0 -0.21875,0 -0.109375,-0.015625 -0.140625,-0.03125 -0.140625,-0.109375 0,-0.03125 0,-0.046875 0.0625,-0.21875 l 0.6875,-2.78125 h 1.875 c 0.953125,0 1.15625,0.734375 1.15625,1.15625 C 6.078125,-1.28125 5.1875,-0.3125 4,-0.3125 Z m 0,0"
               id="path10" />
          </g>
        </g>
      </defs>
      <g
         transform="translate(-1.7563441,-0.28756283)"
         ns1:version="1.10.0"
         ns1:texconverter="xelatex"
         ns1:pdfconverter="inkscape"
         ns1:text="$\\mathscr{B}$"
         ns1:preamble="C:\Users\Ichinoe\Downloads\scr.tex"
         ns1:scale="1.24"
         ns1:alignment="middle center"
         ns1:stroke-to-path="0"
         ns1:inkscapeversion="1.3.2"
         id="g4349"
         ns1:jacobian_sqrt="1.0">
        <defs
           id="id-3ae53de9-461d-4e56-aafe-658096fafb80">
          <g
             id="id-5b3fc3e9-5395-4016-a38b-915e65dd55c1">
            <g
               id="id-6df4882e-7dc3-4926-a32e-5421baba8c80">
              <path
                 d="m 6.40625,-7.0625 c -0.703125,0 -1.515625,0.1875 -2.375,0.625 -0.71875,0.359375 -1.421875,0.90625 -1.859375,1.5 -0.34375,0.484375 -0.546875,0.96875 -0.546875,1.375 0,0.078125 0.015625,0.140625 0.015625,0.1875 0.078125,0.4375 0.40625,0.6875 0.953125,0.6875 0.34375,0 0.765625,-0.109375 1.171875,-0.3125 0.375,-0.203125 0.734375,-0.484375 0.953125,-0.78125 0.390625,-0.5625 0.5625,-1.09375 0.5625,-1.546875 0,-0.09375 -0.015625,-0.1875 -0.03125,-0.28125 C 5.25,-5.65625 5.203125,-5.6875 5.15625,-5.6875 5.140625,-5.671875 5.109375,-5.65625 5.078125,-5.640625 5.046875,-5.625 5.03125,-5.609375 5.03125,-5.578125 V -5.5 c 0,0.421875 -0.40625,1 -0.828125,1.609375 C 4.015625,-3.625 3.78125,-3.375 3.484375,-3.1875 3.1875,-2.984375 2.875,-2.90625 2.625,-2.90625 c -0.4375,0 -0.6875,-0.203125 -0.734375,-0.515625 0,-0.046875 0,-0.09375 0,-0.125 0,-0.359375 0.1875,-0.8125 0.53125,-1.28125 0.390625,-0.5625 1.03125,-1.078125 1.734375,-1.4375 0.78125,-0.390625 1.5625,-0.578125 2.203125,-0.578125 0.75,0 1.390625,0.109375 1.828125,0.390625 -1.625,1.203125 -2.765625,2.828125 -3.828125,4.3125 -0.71875,1.03125 -1.78125,2.0625 -2.609375,2.0625 -0.6875,0 -1.203125,-0.1875 -1.203125,-0.578125 0,-0.09375 0.03125,-0.1875 0.078125,-0.296875 0.0625,0.109375 0.171875,0.15625 0.296875,0.15625 0.25,0 0.546875,-0.203125 0.546875,-0.390625 0,-0.25 -0.140625,-0.34375 -0.328125,-0.34375 -0.203125,0 -0.4375,0.125 -0.5625,0.296875 C 0.40625,-1 0.34375,-0.796875 0.34375,-0.625 c 0,0.53125 0.640625,0.765625 1.359375,0.765625 1.140625,0 2.703125,-1.03125 3.515625,-2.1875 0.21875,-0.3125 0.453125,-0.640625 0.703125,-0.96875 0.140625,0.046875 0.296875,0.0625 0.453125,0.0625 0.359375,0 0.796875,-0.140625 1.21875,-0.375 0.15625,0.09375 0.265625,0.234375 0.328125,0.390625 0.015625,0.078125 0.03125,0.15625 0.03125,0.25 0,0.328125 -0.171875,0.78125 -0.5,1.234375 -0.25,0.34375 -0.515625,0.671875 -0.890625,0.9375 -0.3125,0.234375 -0.65625,0.375 -0.90625,0.375 -0.328125,0 -0.546875,-0.125 -0.59375,-0.328125 -0.015625,-0.046875 -0.015625,-0.09375 -0.015625,-0.140625 0,-0.203125 0.09375,-0.453125 0.296875,-0.734375 0.125,-0.1875 0.375,-0.34375 0.609375,-0.453125 0.3125,-0.140625 0.59375,-0.1875 0.84375,-0.1875 0.03125,0 0.046875,-0.015625 0.078125,-0.03125 l 0.03125,-0.0625 c 0.015625,0 0.015625,-0.03125 0.015625,-0.046875 0,-0.03125 -0.046875,-0.078125 -0.078125,-0.078125 -0.296875,0 -0.625,0.0625 -0.96875,0.21875 -0.265625,0.125 -0.5625,0.3125 -0.71875,0.53125 -0.21875,0.3125 -0.328125,0.609375 -0.328125,0.875 0,0.0625 0,0.125 0.015625,0.1875 0.09375,0.3125 0.375,0.46875 0.765625,0.46875 0.375,0 0.828125,-0.15625 1.265625,-0.421875 0.4375,-0.265625 0.828125,-0.640625 1.09375,-1 0.296875,-0.4375 0.453125,-0.84375 0.453125,-1.203125 0,-0.171875 -0.03125,-0.34375 -0.109375,-0.484375 C 8.21875,-3.234375 8.0625,-3.390625 7.859375,-3.515625 8.28125,-3.78125 8.640625,-4.125 8.890625,-4.484375 9.140625,-4.84375 9.25,-5.171875 9.25,-5.46875 9.25,-5.796875 9.109375,-6.09375 8.875,-6.3125 8.828125,-6.375 8.78125,-6.421875 8.71875,-6.46875 8.859375,-6.59375 8.984375,-6.671875 9.09375,-6.75 9.109375,-6.765625 9.125,-6.78125 9.125,-6.8125 L 9.109375,-6.921875 c -0.015625,-0.03125 -0.046875,-0.0625 -0.09375,-0.0625 0,0 -0.03125,0 -0.03125,0.015625 L 8.46875,-6.640625 C 7.921875,-6.953125 7.203125,-7.0625 6.40625,-7.0625 Z m 0.40625,3.328125 c -0.125,0 -0.25,0 -0.390625,0.03125 0.703125,-0.96875 1.4375,-1.921875 2.046875,-2.53125 0.171875,0.171875 0.265625,0.40625 0.265625,0.671875 0,0.28125 -0.109375,0.609375 -0.375,0.984375 C 8.140625,-4.25 7.859375,-3.921875 7.5,-3.65625 7.3125,-3.703125 7.0625,-3.734375 6.8125,-3.734375 Z m -0.421875,0.4375 c 0.078125,-0.125 0.125,-0.15625 0.125,-0.15625 0.078125,-0.0625 0.171875,-0.0625 0.265625,-0.0625 0.171875,0 0.328125,0.015625 0.46875,0.046875 -0.296875,0.171875 -0.59375,0.28125 -0.828125,0.28125 -0.046875,0 -0.09375,0 -0.109375,0 0.015625,-0.03125 0.046875,-0.0625 0.078125,-0.109375 z m 0,0"
                 id="id-72dce44e-6685-4823-8052-56a61ec22d01" />
            </g>
          </g>
        </defs>
        <g
           fill="#000000"
           fill-opacity="1"
           id="id-a42b3cd8-08dc-4ee7-baf9-b0e634b6dcdf"
           transform="translate(-149.056,-127.703)">
          <g
             transform="translate(148.712,134.765)"
             id="g60">
            <path
               d="m 6.40625,-7.0625 c -0.703125,0 -1.515625,0.1875 -2.375,0.625 -0.71875,0.359375 -1.421875,0.90625 -1.859375,1.5 -0.34375,0.484375 -0.546875,0.96875 -0.546875,1.375 0,0.078125 0.015625,0.140625 0.015625,0.1875 0.078125,0.4375 0.40625,0.6875 0.953125,0.6875 0.34375,0 0.765625,-0.109375 1.171875,-0.3125 0.375,-0.203125 0.734375,-0.484375 0.953125,-0.78125 0.390625,-0.5625 0.5625,-1.09375 0.5625,-1.546875 0,-0.09375 -0.015625,-0.1875 -0.03125,-0.28125 C 5.25,-5.65625 5.203125,-5.6875 5.15625,-5.6875 5.140625,-5.671875 5.109375,-5.65625 5.078125,-5.640625 5.046875,-5.625 5.03125,-5.609375 5.03125,-5.578125 V -5.5 c 0,0.421875 -0.40625,1 -0.828125,1.609375 C 4.015625,-3.625 3.78125,-3.375 3.484375,-3.1875 3.1875,-2.984375 2.875,-2.90625 2.625,-2.90625 c -0.4375,0 -0.6875,-0.203125 -0.734375,-0.515625 0,-0.046875 0,-0.09375 0,-0.125 0,-0.359375 0.1875,-0.8125 0.53125,-1.28125 0.390625,-0.5625 1.03125,-1.078125 1.734375,-1.4375 0.78125,-0.390625 1.5625,-0.578125 2.203125,-0.578125 0.75,0 1.390625,0.109375 1.828125,0.390625 -1.625,1.203125 -2.765625,2.828125 -3.828125,4.3125 -0.71875,1.03125 -1.78125,2.0625 -2.609375,2.0625 -0.6875,0 -1.203125,-0.1875 -1.203125,-0.578125 0,-0.09375 0.03125,-0.1875 0.078125,-0.296875 0.0625,0.109375 0.171875,0.15625 0.296875,0.15625 0.25,0 0.546875,-0.203125 0.546875,-0.390625 0,-0.25 -0.140625,-0.34375 -0.328125,-0.34375 -0.203125,0 -0.4375,0.125 -0.5625,0.296875 C 0.40625,-1 0.34375,-0.796875 0.34375,-0.625 c 0,0.53125 0.640625,0.765625 1.359375,0.765625 1.140625,0 2.703125,-1.03125 3.515625,-2.1875 0.21875,-0.3125 0.453125,-0.640625 0.703125,-0.96875 0.140625,0.046875 0.296875,0.0625 0.453125,0.0625 0.359375,0 0.796875,-0.140625 1.21875,-0.375 0.15625,0.09375 0.265625,0.234375 0.328125,0.390625 0.015625,0.078125 0.03125,0.15625 0.03125,0.25 0,0.328125 -0.171875,0.78125 -0.5,1.234375 -0.25,0.34375 -0.515625,0.671875 -0.890625,0.9375 -0.3125,0.234375 -0.65625,0.375 -0.90625,0.375 -0.328125,0 -0.546875,-0.125 -0.59375,-0.328125 -0.015625,-0.046875 -0.015625,-0.09375 -0.015625,-0.140625 0,-0.203125 0.09375,-0.453125 0.296875,-0.734375 0.125,-0.1875 0.375,-0.34375 0.609375,-0.453125 0.3125,-0.140625 0.59375,-0.1875 0.84375,-0.1875 0.03125,0 0.046875,-0.015625 0.078125,-0.03125 l 0.03125,-0.0625 c 0.015625,0 0.015625,-0.03125 0.015625,-0.046875 0,-0.03125 -0.046875,-0.078125 -0.078125,-0.078125 -0.296875,0 -0.625,0.0625 -0.96875,0.21875 -0.265625,0.125 -0.5625,0.3125 -0.71875,0.53125 -0.21875,0.3125 -0.328125,0.609375 -0.328125,0.875 0,0.0625 0,0.125 0.015625,0.1875 0.09375,0.3125 0.375,0.46875 0.765625,0.46875 0.375,0 0.828125,-0.15625 1.265625,-0.421875 0.4375,-0.265625 0.828125,-0.640625 1.09375,-1 0.296875,-0.4375 0.453125,-0.84375 0.453125,-1.203125 0,-0.171875 -0.03125,-0.34375 -0.109375,-0.484375 C 8.21875,-3.234375 8.0625,-3.390625 7.859375,-3.515625 8.28125,-3.78125 8.640625,-4.125 8.890625,-4.484375 9.140625,-4.84375 9.25,-5.171875 9.25,-5.46875 9.25,-5.796875 9.109375,-6.09375 8.875,-6.3125 8.828125,-6.375 8.78125,-6.421875 8.71875,-6.46875 8.859375,-6.59375 8.984375,-6.671875 9.09375,-6.75 9.109375,-6.765625 9.125,-6.78125 9.125,-6.8125 L 9.109375,-6.921875 c -0.015625,-0.03125 -0.046875,-0.0625 -0.09375,-0.0625 0,0 -0.03125,0 -0.03125,0.015625 L 8.46875,-6.640625 C 7.921875,-6.953125 7.203125,-7.0625 6.40625,-7.0625 Z m 0.40625,3.328125 c -0.125,0 -0.25,0 -0.390625,0.03125 0.703125,-0.96875 1.4375,-1.921875 2.046875,-2.53125 0.171875,0.171875 0.265625,0.40625 0.265625,0.671875 0,0.28125 -0.109375,0.609375 -0.375,0.984375 C 8.140625,-4.25 7.859375,-3.921875 7.5,-3.65625 7.3125,-3.703125 7.0625,-3.734375 6.8125,-3.734375 Z m -0.421875,0.4375 c 0.078125,-0.125 0.125,-0.15625 0.125,-0.15625 0.078125,-0.0625 0.171875,-0.0625 0.265625,-0.0625 0.171875,0 0.328125,0.015625 0.46875,0.046875 -0.296875,0.171875 -0.59375,0.28125 -0.828125,0.28125 -0.046875,0 -0.09375,0 -0.109375,0 0.015625,-0.03125 0.046875,-0.0625 0.078125,-0.109375 z m 0,0"
               id="id-5b3cfea8-d9e5-48dd-97a1-8d73612d576f" />
          </g>
        </g>
      </g>
    </g>
    <g
       transform="matrix(0.437445,0,0,0.437445,200.19779,112.94265)"
       ns1:version="1.10.0"
       ns1:texconverter="xelatex"
       ns1:pdfconverter="inkscape"
       ns1:text="$\\mathscr{C}$"
       ns1:preamble="C:\Users\Ichinoe\Downloads\scr.tex"
       ns1:scale="1.24"
       ns1:alignment="middle center"
       ns1:stroke-to-path="0"
       ns1:inkscapeversion="1.3.2"
       id="g9"
       ns1:jacobian_sqrt="0.437445">
      <defs
         id="id-cd9d95f6-2a45-48fb-bf94-d9c30d3b13eb">
        <g
           id="id-d755097e-5271-4f0d-8bbd-3a48732708dc">
          <g
             id="id-9d3153fb-d885-4075-a984-5dd51ff0cf8c">
            <path
               d="m 3.4375,-0.875 c -0.078125,-0.078125 -0.125,-0.171875 -0.125,-0.296875 0,-0.15625 0.0625,-0.375 0.234375,-0.609375 0.15625,-0.234375 0.359375,-0.46875 0.625,-0.65625 0.21875,-0.140625 0.4375,-0.25 0.609375,-0.25 0.34375,0 0.53125,0.171875 0.546875,0.421875 v 0.046875 c 0,0.3125 -0.203125,0.703125 -0.5,1.125 C 4.625,-0.8125 4.390625,-0.53125 4.0625,-0.328125 3.765625,-0.125 3.4375,-0.03125 3.203125,-0.03125 2.609375,-0.03125 2.34375,-0.375 2.34375,-0.859375 V -0.96875 c 0.0625,-0.75 0.625,-1.6875 1.28125,-2.59375 0.609375,-0.09375 1.265625,-0.25 1.953125,-0.53125 C 6.375,-4.390625 7.25,-4.875 7.71875,-5.546875 c 0.234375,-0.328125 0.375,-0.65625 0.375,-0.9375 0,-0.046875 0,-0.09375 -0.015625,-0.140625 -0.046875,-0.3125 -0.3125,-0.5 -0.703125,-0.5 -0.671875,0 -1.546875,0.5 -2.28125,1.0625 -0.921875,0.703125 -1.6875,1.53125 -2.28125,2.34375 -0.109375,0.015625 -0.21875,0.015625 -0.328125,0.015625 -0.71875,0 -1.3125,-0.171875 -1.59375,-0.546875 -0.078125,-0.109375 -0.125,-0.25 -0.125,-0.421875 0,-0.25 0.109375,-0.546875 0.328125,-0.859375 C 1.28125,-5.796875 1.5625,-6.0625 1.875,-6.234375 2.25,-6.4375 2.625,-6.515625 2.9375,-6.515625 2.953125,-6.515625 2.984375,-6.53125 3,-6.546875 3.015625,-6.59375 3.046875,-6.625 3.046875,-6.65625 c 0,-0.046875 -0.03125,-0.078125 -0.078125,-0.078125 -0.40625,0 -0.875,0.078125 -1.375,0.3125 -0.390625,0.1875 -0.796875,0.453125 -1.03125,0.796875 -0.21875,0.296875 -0.296875,0.59375 -0.296875,0.84375 0,0.25 0.09375,0.5 0.25,0.671875 0.40625,0.453125 1.125,0.625 1.921875,0.625 h 0.21875 c -0.578125,0.8125 -0.9375,1.640625 -0.9375,2.328125 0,0.078125 0,0.15625 0.015625,0.21875 0.0625,0.6875 0.5625,1.125 1.421875,1.125 0.359375,0 0.78125,-0.125 1.203125,-0.34375 C 4.75,-0.375 5.109375,-0.671875 5.34375,-1 c 0.265625,-0.390625 0.421875,-0.78125 0.421875,-1.109375 0,-0.078125 0,-0.140625 -0.03125,-0.21875 -0.09375,-0.375 -0.4375,-0.578125 -0.921875,-0.578125 -0.234375,0 -0.53125,0.140625 -0.78125,0.296875 -0.296875,0.21875 -0.546875,0.46875 -0.734375,0.734375 -0.171875,0.25 -0.265625,0.5 -0.265625,0.703125 0,0.1875 0.078125,0.359375 0.25,0.46875 0.015625,0 0.015625,0 0.03125,0 0,0 0.03125,0 0.03125,0 L 3.421875,-0.734375 3.453125,-0.75 c 0,-0.03125 0.015625,-0.03125 0.015625,-0.0625 0,-0.03125 -0.015625,-0.046875 -0.03125,-0.0625 z m 0.015625,0.125 c 0,-0.015625 0.015625,-0.03125 0.015625,-0.0625 0,0 0,-0.015625 -0.015625,-0.03125 0,0 0,0.015625 0,0.09375 z M 7.34375,-6.890625 c 0.296875,0 0.453125,0.125 0.484375,0.328125 v 0.09375 c 0,0.234375 -0.125,0.515625 -0.34375,0.84375 -0.4375,0.59375 -1.25,1.0625 -2.015625,1.359375 -0.578125,0.21875 -1.140625,0.375 -1.671875,0.453125 C 4.3125,-4.53125 4.859375,-5.25 5.609375,-5.90625 6.1875,-6.421875 6.84375,-6.890625 7.34375,-6.890625 Z m 0,0"
               id="id-dd1e20ea-3d69-4210-9b3c-58344c6474c6" />
          </g>
        </g>
      </defs>
      <g
         fill="#000000"
         fill-opacity="1"
         id="id-77286fae-e745-4127-94dd-be5d1da43abf"
         transform="translate(-148.978,-127.64)">
        <g
           transform="translate(148.712,134.765)"
           id="g9786">
          <path
             d="m 3.4375,-0.875 c -0.078125,-0.078125 -0.125,-0.171875 -0.125,-0.296875 0,-0.15625 0.0625,-0.375 0.234375,-0.609375 0.15625,-0.234375 0.359375,-0.46875 0.625,-0.65625 0.21875,-0.140625 0.4375,-0.25 0.609375,-0.25 0.34375,0 0.53125,0.171875 0.546875,0.421875 v 0.046875 c 0,0.3125 -0.203125,0.703125 -0.5,1.125 C 4.625,-0.8125 4.390625,-0.53125 4.0625,-0.328125 3.765625,-0.125 3.4375,-0.03125 3.203125,-0.03125 2.609375,-0.03125 2.34375,-0.375 2.34375,-0.859375 V -0.96875 c 0.0625,-0.75 0.625,-1.6875 1.28125,-2.59375 0.609375,-0.09375 1.265625,-0.25 1.953125,-0.53125 C 6.375,-4.390625 7.25,-4.875 7.71875,-5.546875 c 0.234375,-0.328125 0.375,-0.65625 0.375,-0.9375 0,-0.046875 0,-0.09375 -0.015625,-0.140625 -0.046875,-0.3125 -0.3125,-0.5 -0.703125,-0.5 -0.671875,0 -1.546875,0.5 -2.28125,1.0625 -0.921875,0.703125 -1.6875,1.53125 -2.28125,2.34375 -0.109375,0.015625 -0.21875,0.015625 -0.328125,0.015625 -0.71875,0 -1.3125,-0.171875 -1.59375,-0.546875 -0.078125,-0.109375 -0.125,-0.25 -0.125,-0.421875 0,-0.25 0.109375,-0.546875 0.328125,-0.859375 C 1.28125,-5.796875 1.5625,-6.0625 1.875,-6.234375 2.25,-6.4375 2.625,-6.515625 2.9375,-6.515625 2.953125,-6.515625 2.984375,-6.53125 3,-6.546875 3.015625,-6.59375 3.046875,-6.625 3.046875,-6.65625 c 0,-0.046875 -0.03125,-0.078125 -0.078125,-0.078125 -0.40625,0 -0.875,0.078125 -1.375,0.3125 -0.390625,0.1875 -0.796875,0.453125 -1.03125,0.796875 -0.21875,0.296875 -0.296875,0.59375 -0.296875,0.84375 0,0.25 0.09375,0.5 0.25,0.671875 0.40625,0.453125 1.125,0.625 1.921875,0.625 h 0.21875 c -0.578125,0.8125 -0.9375,1.640625 -0.9375,2.328125 0,0.078125 0,0.15625 0.015625,0.21875 0.0625,0.6875 0.5625,1.125 1.421875,1.125 0.359375,0 0.78125,-0.125 1.203125,-0.34375 C 4.75,-0.375 5.109375,-0.671875 5.34375,-1 c 0.265625,-0.390625 0.421875,-0.78125 0.421875,-1.109375 0,-0.078125 0,-0.140625 -0.03125,-0.21875 -0.09375,-0.375 -0.4375,-0.578125 -0.921875,-0.578125 -0.234375,0 -0.53125,0.140625 -0.78125,0.296875 -0.296875,0.21875 -0.546875,0.46875 -0.734375,0.734375 -0.171875,0.25 -0.265625,0.5 -0.265625,0.703125 0,0.1875 0.078125,0.359375 0.25,0.46875 0.015625,0 0.015625,0 0.03125,0 0,0 0.03125,0 0.03125,0 L 3.421875,-0.734375 3.453125,-0.75 c 0,-0.03125 0.015625,-0.03125 0.015625,-0.0625 0,-0.03125 -0.015625,-0.046875 -0.03125,-0.0625 z m 0.015625,0.125 c 0,-0.015625 0.015625,-0.03125 0.015625,-0.0625 0,0 0,-0.015625 -0.015625,-0.03125 0,0 0,0.015625 0,0.09375 z M 7.34375,-6.890625 c 0.296875,0 0.453125,0.125 0.484375,0.328125 v 0.09375 c 0,0.234375 -0.125,0.515625 -0.34375,0.84375 -0.4375,0.59375 -1.25,1.0625 -2.015625,1.359375 -0.578125,0.21875 -1.140625,0.375 -1.671875,0.453125 C 4.3125,-4.53125 4.859375,-5.25 5.609375,-5.90625 6.1875,-6.421875 6.84375,-6.890625 7.34375,-6.890625 Z m 0,0"
             id="id-cc01deef-a0f1-4f8d-b408-8ab5022100a6" />
        </g>
      </g>
    </g>
    <g
       transform="matrix(0.3175,0,0,0.3175,157.02274,112.06819)"
       ns1:version="1.10.0"
       ns1:texconverter="xelatex"
       ns1:pdfconverter="inkscape"
       ns1:text="$F$"
       ns1:preamble="C:\Users\Ichinoe\Downloads\scr.tex"
       ns1:scale="0.9"
       ns1:alignment="middle center"
       ns1:stroke-to-path="0"
       ns1:inkscapeversion="1.3.2"
       id="g86"
       ns1:jacobian_sqrt="0.3175"
       style="fill:#000000;fill-opacity:1;stroke-width:0">
      <defs
         id="id-e2348ccf-aad6-4606-b739-b5f6184abc59"
         style="fill:#000000;fill-opacity:1;stroke-width:0">
        <g
           id="id-551cff2b-3fcd-43b2-af69-c8104e903a7a"
           style="fill:#000000;fill-opacity:1;stroke-width:0">
          <g
             id="id-94d84157-6c3f-4b93-9592-a0703c191371"
             style="fill:#000000;fill-opacity:1;stroke-width:0">
            <path
               d="m 3.015625,-3.234375 h 0.96875 c 0.75,0 0.828125,0.15625 0.828125,0.4375 0,0.078125 0,0.1875 -0.0625,0.5 C 4.71875,-2.25 4.71875,-2.21875 4.71875,-2.1875 c 0,0.078125 0.0625,0.109375 0.109375,0.109375 0.109375,0 0.109375,-0.03125 0.15625,-0.203125 L 5.53125,-4.453125 C 5.5625,-4.5625 5.5625,-4.578125 5.5625,-4.609375 5.5625,-4.625 5.546875,-4.71875 5.4375,-4.71875 5.34375,-4.71875 5.328125,-4.671875 5.296875,-4.5 5.078125,-3.734375 4.859375,-3.546875 4,-3.546875 H 3.09375 l 0.640625,-2.53125 C 3.828125,-6.4375 3.84375,-6.46875 4.28125,-6.46875 h 1.3125 c 1.21875,0 1.453125,0.328125 1.453125,1.09375 0,0.234375 0,0.265625 -0.03125,0.546875 C 7,-4.703125 7,-4.6875 7,-4.65625 c 0,0.046875 0.03125,0.125 0.125,0.125 0.109375,0 0.109375,-0.0625 0.125,-0.25 L 7.453125,-6.515625 C 7.484375,-6.78125 7.4375,-6.78125 7.1875,-6.78125 H 2.296875 c -0.1875,0 -0.296875,0 -0.296875,0.203125 0,0.109375 0.09375,0.109375 0.28125,0.109375 0.375,0 0.65625,0 0.65625,0.171875 0,0.046875 0,0.0625 -0.0625,0.25 L 1.5625,-0.78125 c -0.09375,0.390625 -0.109375,0.46875 -0.90625,0.46875 -0.171875,0 -0.28125,0 -0.28125,0.1875 C 0.375,0 0.5,0 0.53125,0 0.8125,0 1.5625,-0.03125 1.84375,-0.03125 2.171875,-0.03125 3,0 3.328125,0 3.421875,0 3.53125,0 3.53125,-0.1875 3.53125,-0.265625 3.484375,-0.296875 3.484375,-0.296875 3.453125,-0.3125 3.421875,-0.3125 3.203125,-0.3125 c -0.21875,0 -0.265625,0 -0.515625,-0.015625 -0.296875,-0.03125 -0.328125,-0.078125 -0.328125,-0.203125 0,-0.015625 0,-0.078125 0.046875,-0.21875 z m 0,0"
               id="id-49004d24-8417-4eae-b811-2366467ccde3"
               style="fill:#000000;fill-opacity:1;stroke-width:0" />
          </g>
        </g>
      </defs>
      <g
         fill-opacity="1"
         id="id-cdc8be3b-8194-45b8-9031-92abef5cefab"
         transform="translate(-149.087,-127.984)"
         style="fill:#000000;fill-opacity:1;stroke-width:0">
        <g
           transform="translate(148.712,134.765)"
           id="g1818"
           style="fill:#000000;fill-opacity:1;stroke-width:0">
          <path
             d="m 3.015625,-3.234375 h 0.96875 c 0.75,0 0.828125,0.15625 0.828125,0.4375 0,0.078125 0,0.1875 -0.0625,0.5 C 4.71875,-2.25 4.71875,-2.21875 4.71875,-2.1875 c 0,0.078125 0.0625,0.109375 0.109375,0.109375 0.109375,0 0.109375,-0.03125 0.15625,-0.203125 L 5.53125,-4.453125 C 5.5625,-4.5625 5.5625,-4.578125 5.5625,-4.609375 5.5625,-4.625 5.546875,-4.71875 5.4375,-4.71875 5.34375,-4.71875 5.328125,-4.671875 5.296875,-4.5 5.078125,-3.734375 4.859375,-3.546875 4,-3.546875 H 3.09375 l 0.640625,-2.53125 C 3.828125,-6.4375 3.84375,-6.46875 4.28125,-6.46875 h 1.3125 c 1.21875,0 1.453125,0.328125 1.453125,1.09375 0,0.234375 0,0.265625 -0.03125,0.546875 C 7,-4.703125 7,-4.6875 7,-4.65625 c 0,0.046875 0.03125,0.125 0.125,0.125 0.109375,0 0.109375,-0.0625 0.125,-0.25 L 7.453125,-6.515625 C 7.484375,-6.78125 7.4375,-6.78125 7.1875,-6.78125 H 2.296875 c -0.1875,0 -0.296875,0 -0.296875,0.203125 0,0.109375 0.09375,0.109375 0.28125,0.109375 0.375,0 0.65625,0 0.65625,0.171875 0,0.046875 0,0.0625 -0.0625,0.25 L 1.5625,-0.78125 c -0.09375,0.390625 -0.109375,0.46875 -0.90625,0.46875 -0.171875,0 -0.28125,0 -0.28125,0.1875 C 0.375,0 0.5,0 0.53125,0 0.8125,0 1.5625,-0.03125 1.84375,-0.03125 2.171875,-0.03125 3,0 3.328125,0 3.421875,0 3.53125,0 3.53125,-0.1875 3.53125,-0.265625 3.484375,-0.296875 3.484375,-0.296875 3.453125,-0.3125 3.421875,-0.3125 3.203125,-0.3125 c -0.21875,0 -0.265625,0 -0.515625,-0.015625 -0.296875,-0.03125 -0.328125,-0.078125 -0.328125,-0.203125 0,-0.015625 0,-0.078125 0.046875,-0.21875 z m 0,0"
             id="id-f3d6212c-e3c7-4e5a-a91f-5789456fbe03"
             style="fill:#000000;fill-opacity:1;stroke-width:0" />
        </g>
      </g>
    </g>
    <g
       transform="matrix(0.3175,0,0,0.3175,185.91874,112.06319)"
       ns1:version="1.10.0"
       ns1:texconverter="xelatex"
       ns1:pdfconverter="inkscape"
       ns1:text="$H$"
       ns1:preamble="C:\Users\Ichinoe\Downloads\scr.tex"
       ns1:scale="0.9"
       ns1:alignment="middle center"
       ns1:stroke-to-path="0"
       ns1:inkscapeversion="1.3.2"
       id="g18"
       ns1:jacobian_sqrt="0.3175"
       style="fill:#000000;fill-opacity:1;stroke-width:0">
      <defs
         id="id-4ae69f87-259b-41c4-8a5d-ae6b4a53b56a"
         style="fill:#000000;fill-opacity:1;stroke-width:0">
        <g
           id="id-ef84c0bc-f68b-40c2-af78-08edd3f3ab3c"
           style="fill:#000000;fill-opacity:1;stroke-width:0">
          <g
             id="id-c7571325-bf1a-4f00-a617-c44c86dfd002"
             style="fill:#000000;fill-opacity:1;stroke-width:0">
            <path
               d="M 7.609375,-6.046875 C 7.703125,-6.40625 7.71875,-6.5 8.4375,-6.5 c 0.265625,0 0.34375,0 0.34375,-0.203125 0,-0.109375 -0.109375,-0.109375 -0.140625,-0.109375 -0.28125,0 -1,0.03125 -1.28125,0.03125 -0.28125,0 -0.984375,-0.03125 -1.28125,-0.03125 -0.078125,0 -0.1875,0 -0.1875,0.203125 0,0.109375 0.09375,0.109375 0.28125,0.109375 0.015625,0 0.203125,0 0.375,0.015625 0.1875,0.03125 0.265625,0.03125 0.265625,0.171875 0,0.03125 0,0.046875 -0.03125,0.1875 L 6.1875,-3.703125 H 3.140625 l 0.59375,-2.34375 C 3.8125,-6.40625 3.84375,-6.5 4.5625,-6.5 c 0.265625,0 0.34375,0 0.34375,-0.203125 0,-0.109375 -0.109375,-0.109375 -0.140625,-0.109375 -0.28125,0 -1,0.03125 -1.28125,0.03125 -0.28125,0 -0.984375,-0.03125 -1.28125,-0.03125 -0.078125,0 -0.1875,0 -0.1875,0.203125 0,0.109375 0.09375,0.109375 0.28125,0.109375 0.015625,0 0.203125,0 0.375,0.015625 0.171875,0.03125 0.265625,0.03125 0.265625,0.171875 0,0.03125 0,0.0625 -0.03125,0.1875 L 1.5625,-0.78125 c -0.09375,0.390625 -0.109375,0.46875 -0.90625,0.46875 -0.171875,0 -0.265625,0 -0.265625,0.203125 C 0.390625,0 0.515625,0 0.53125,0 0.8125,0 1.515625,-0.03125 1.796875,-0.03125 2,-0.03125 2.21875,-0.015625 2.4375,-0.015625 2.65625,-0.015625 2.875,0 3.078125,0 3.15625,0 3.28125,0 3.28125,-0.203125 3.28125,-0.3125 3.1875,-0.3125 3,-0.3125 c -0.375,0 -0.640625,0 -0.640625,-0.171875 0,-0.0625 0.015625,-0.109375 0.015625,-0.171875 l 0.6875,-2.734375 h 3.03125 c -0.40625,1.65625 -0.640625,2.609375 -0.6875,2.75 C 5.3125,-0.3125 5.125,-0.3125 4.5,-0.3125 c -0.140625,0 -0.234375,0 -0.234375,0.203125 C 4.265625,0 4.390625,0 4.40625,0 4.6875,0 5.390625,-0.03125 5.671875,-0.03125 5.875,-0.03125 6.09375,-0.015625 6.3125,-0.015625 6.53125,-0.015625 6.75,0 6.953125,0 7.03125,0 7.15625,0 7.15625,-0.203125 7.15625,-0.3125 7.0625,-0.3125 6.875,-0.3125 c -0.359375,0 -0.640625,0 -0.640625,-0.171875 0,-0.0625 0.015625,-0.109375 0.03125,-0.171875 z m 0,0"
               id="id-3fd6f82f-821c-483f-803a-91e862154e4a"
               style="fill:#000000;fill-opacity:1;stroke-width:0" />
          </g>
        </g>
      </defs>
      <g
         fill-opacity="1"
         id="id-eca5f5db-ddac-402d-8d8e-c21d2e0c8ce0"
         transform="translate(-149.103,-127.953)"
         style="fill:#000000;fill-opacity:1;stroke-width:0">
        <g
           transform="translate(148.712,134.765)"
           id="g4816"
           style="fill:#000000;fill-opacity:1;stroke-width:0">
          <path
             d="M 7.609375,-6.046875 C 7.703125,-6.40625 7.71875,-6.5 8.4375,-6.5 c 0.265625,0 0.34375,0 0.34375,-0.203125 0,-0.109375 -0.109375,-0.109375 -0.140625,-0.109375 -0.28125,0 -1,0.03125 -1.28125,0.03125 -0.28125,0 -0.984375,-0.03125 -1.28125,-0.03125 -0.078125,0 -0.1875,0 -0.1875,0.203125 0,0.109375 0.09375,0.109375 0.28125,0.109375 0.015625,0 0.203125,0 0.375,0.015625 0.1875,0.03125 0.265625,0.03125 0.265625,0.171875 0,0.03125 0,0.046875 -0.03125,0.1875 L 6.1875,-3.703125 H 3.140625 l 0.59375,-2.34375 C 3.8125,-6.40625 3.84375,-6.5 4.5625,-6.5 c 0.265625,0 0.34375,0 0.34375,-0.203125 0,-0.109375 -0.109375,-0.109375 -0.140625,-0.109375 -0.28125,0 -1,0.03125 -1.28125,0.03125 -0.28125,0 -0.984375,-0.03125 -1.28125,-0.03125 -0.078125,0 -0.1875,0 -0.1875,0.203125 0,0.109375 0.09375,0.109375 0.28125,0.109375 0.015625,0 0.203125,0 0.375,0.015625 0.171875,0.03125 0.265625,0.03125 0.265625,0.171875 0,0.03125 0,0.0625 -0.03125,0.1875 L 1.5625,-0.78125 c -0.09375,0.390625 -0.109375,0.46875 -0.90625,0.46875 -0.171875,0 -0.265625,0 -0.265625,0.203125 C 0.390625,0 0.515625,0 0.53125,0 0.8125,0 1.515625,-0.03125 1.796875,-0.03125 2,-0.03125 2.21875,-0.015625 2.4375,-0.015625 2.65625,-0.015625 2.875,0 3.078125,0 3.15625,0 3.28125,0 3.28125,-0.203125 3.28125,-0.3125 3.1875,-0.3125 3,-0.3125 c -0.375,0 -0.640625,0 -0.640625,-0.171875 0,-0.0625 0.015625,-0.109375 0.015625,-0.171875 l 0.6875,-2.734375 h 3.03125 c -0.40625,1.65625 -0.640625,2.609375 -0.6875,2.75 C 5.3125,-0.3125 5.125,-0.3125 4.5,-0.3125 c -0.140625,0 -0.234375,0 -0.234375,0.203125 C 4.265625,0 4.390625,0 4.40625,0 4.6875,0 5.390625,-0.03125 5.671875,-0.03125 5.875,-0.03125 6.09375,-0.015625 6.3125,-0.015625 6.53125,-0.015625 6.75,0 6.953125,0 7.03125,0 7.15625,0 7.15625,-0.203125 7.15625,-0.3125 7.0625,-0.3125 6.875,-0.3125 c -0.359375,0 -0.640625,0 -0.640625,-0.171875 0,-0.0625 0.015625,-0.109375 0.03125,-0.171875 z m 0,0"
             id="id-0dee4a24-df66-44d9-8ca6-5d9900a3ddee"
             style="fill:#000000;fill-opacity:1;stroke-width:0" />
        </g>
      </g>
    </g>
    <path
       style="fill:none;fill-opacity:0.08;stroke:#000000;stroke-width:0.504093;stroke-dasharray:none;marker-end:url(#ArrowWide)"
       d="m -208.05774,-22.54399 c 17.43552,0 34.87103,0 52.30654,0"
       id="path19"
       inkscape:path-effect="#path-effect58"
       inkscape:original-d="m -208.05774,-22.54399 c 17.43552,0 34.87103,0 52.30654,0"
       transform="matrix(0.39675244,0,0,0.39675244,230.57112,144.92516)" />
    <path
       style="fill:none;fill-opacity:0.08;stroke:#000000;stroke-width:0.504093;stroke-dasharray:none;marker-end:url(#ArrowWide)"
       d="m -208.05774,-22.54399 c 17.43552,0 34.87103,0 52.30654,0"
       id="path21"
       inkscape:path-effect="#path-effect60"
       inkscape:original-d="m -208.05774,-22.54399 c 17.43552,0 34.87103,0 52.30654,0"
       transform="matrix(0.39675244,0,0,0.39675244,259.67532,144.92516)" />
    <g
       transform="matrix(0.437445,0,0,0.437445,141.22734,133.97149)"
       ns1:version="1.10.0"
       ns1:texconverter="xelatex"
       ns1:pdfconverter="inkscape"
       ns1:text="$\\mathscr{A}$"
       ns1:preamble="C:\Users\Ichinoe\Downloads\scr.tex"
       ns1:scale="1.24"
       ns1:alignment="middle center"
       ns1:stroke-to-path="0"
       ns1:inkscapeversion="1.3.2"
       id="g27"
       ns1:jacobian_sqrt="0.437445">
      <defs
         id="defs24">
        <g
           id="g24">
          <g
             id="g23">
            <path
               d="m 7.359375,-1.46875 c -0.375,0.375 -0.875,0.671875 -1.3125,0.765625 l 3.90625,-6.3125 C 9.96875,-7.03125 9.96875,-7.046875 9.96875,-7.0625 9.96875,-7.09375 9.953125,-7.125 9.9375,-7.125 9.921875,-7.140625 9.90625,-7.140625 9.890625,-7.140625 H 9.78125 c -0.03125,0 -0.046875,0.015625 -0.078125,0.03125 l -0.09375,0.140625 c -0.609375,0.421875 -1.21875,0.875 -1.8125,1.3125 -0.765625,0.578125 -1.53125,1.1875 -2.21875,1.8125 -0.359375,-0.4375 -0.9375,-0.6875 -1.796875,-0.6875 -0.421875,0 -1,0.1875 -1.28125,0.578125 C 2.078125,-3.34375 1.890625,-2.8125 1.890625,-2.375 c 0,0.640625 0.390625,1.109375 1.03125,1.421875 -0.546875,0.46875 -1.1875,0.8125 -1.6875,0.8125 -0.390625,0 -0.640625,-0.15625 -0.640625,-0.40625 0,-0.078125 0,-0.15625 0.046875,-0.234375 0.0625,0.078125 0.15625,0.125 0.265625,0.125 0.265625,0 0.5625,-0.203125 0.5625,-0.390625 0,-0.25 -0.15625,-0.34375 -0.328125,-0.34375 -0.21875,0 -0.453125,0.125 -0.578125,0.296875 -0.140625,0.21875 -0.21875,0.40625 -0.21875,0.578125 0,0.359375 0.34375,0.59375 0.859375,0.59375 0.59375,0 1.34375,-0.390625 1.953125,-0.921875 0.515625,0.203125 1.15625,0.328125 1.859375,0.375 L 4.78125,-0.125 c -0.015625,0 -0.03125,0.03125 -0.03125,0.046875 0,0.015625 0.03125,0.046875 0.046875,0.0625 C 4.8125,0 4.828125,0 4.84375,0 H 5.5625 C 5.59375,0 5.625,-0.015625 5.625,-0.046875 l 0.265625,-0.40625 C 6.40625,-0.53125 7.03125,-0.859375 7.46875,-1.3125 7.484375,-1.328125 7.5,-1.359375 7.5,-1.390625 v -0.03125 c 0,-0.03125 -0.015625,-0.0625 -0.046875,-0.078125 0,0 -0.015625,0 -0.03125,0 -0.015625,0 -0.046875,0 -0.0625,0.03125 z M 6.0625,-1.953125 c 0.015625,-0.09375 0.015625,-0.203125 0.015625,-0.3125 0,-0.53125 -0.109375,-1.015625 -0.359375,-1.390625 C 6.421875,-4.3125 7.203125,-4.921875 8,-5.515625 c 0.390625,-0.28125 0.78125,-0.5625 1.1875,-0.84375 z M 2.90625,-3.734375 C 3.125,-4.03125 3.5,-4.3125 3.75,-4.3125 c 0.78125,0 1.296875,0.234375 1.640625,0.640625 -0.671875,0.59375 -1.25,1.234375 -1.703125,1.875 -0.15625,0.21875 -0.34375,0.4375 -0.53125,0.625 -0.5,-0.265625 -0.796875,-0.65625 -0.796875,-1.15625 0,-0.390625 0.171875,-0.859375 0.546875,-1.40625 z M 3.921875,-1.6875 c 0.4375,-0.625 0.984375,-1.21875 1.59375,-1.796875 0.203125,0.34375 0.28125,0.765625 0.28125,1.25 C 5.796875,-2 5.78125,-1.75 5.734375,-1.5 L 5.15625,-0.6875 C 4.46875,-0.734375 3.859375,-0.84375 3.375,-1.0625 3.59375,-1.25 3.78125,-1.46875 3.921875,-1.6875 Z m 0,0"
               id="path22" />
          </g>
        </g>
      </defs>
      <g
         fill="#000000"
         fill-opacity="1"
         id="g26"
         transform="translate(-149.056,-127.624)">
        <g
           transform="translate(148.712,134.765)"
           id="g25">
          <path
             d="m 7.359375,-1.46875 c -0.375,0.375 -0.875,0.671875 -1.3125,0.765625 l 3.90625,-6.3125 C 9.96875,-7.03125 9.96875,-7.046875 9.96875,-7.0625 9.96875,-7.09375 9.953125,-7.125 9.9375,-7.125 9.921875,-7.140625 9.90625,-7.140625 9.890625,-7.140625 H 9.78125 c -0.03125,0 -0.046875,0.015625 -0.078125,0.03125 l -0.09375,0.140625 c -0.609375,0.421875 -1.21875,0.875 -1.8125,1.3125 -0.765625,0.578125 -1.53125,1.1875 -2.21875,1.8125 -0.359375,-0.4375 -0.9375,-0.6875 -1.796875,-0.6875 -0.421875,0 -1,0.1875 -1.28125,0.578125 C 2.078125,-3.34375 1.890625,-2.8125 1.890625,-2.375 c 0,0.640625 0.390625,1.109375 1.03125,1.421875 -0.546875,0.46875 -1.1875,0.8125 -1.6875,0.8125 -0.390625,0 -0.640625,-0.15625 -0.640625,-0.40625 0,-0.078125 0,-0.15625 0.046875,-0.234375 0.0625,0.078125 0.15625,0.125 0.265625,0.125 0.265625,0 0.5625,-0.203125 0.5625,-0.390625 0,-0.25 -0.15625,-0.34375 -0.328125,-0.34375 -0.21875,0 -0.453125,0.125 -0.578125,0.296875 -0.140625,0.21875 -0.21875,0.40625 -0.21875,0.578125 0,0.359375 0.34375,0.59375 0.859375,0.59375 0.59375,0 1.34375,-0.390625 1.953125,-0.921875 0.515625,0.203125 1.15625,0.328125 1.859375,0.375 L 4.78125,-0.125 c -0.015625,0 -0.03125,0.03125 -0.03125,0.046875 0,0.015625 0.03125,0.046875 0.046875,0.0625 C 4.8125,0 4.828125,0 4.84375,0 H 5.5625 C 5.59375,0 5.625,-0.015625 5.625,-0.046875 l 0.265625,-0.40625 C 6.40625,-0.53125 7.03125,-0.859375 7.46875,-1.3125 7.484375,-1.328125 7.5,-1.359375 7.5,-1.390625 v -0.03125 c 0,-0.03125 -0.015625,-0.0625 -0.046875,-0.078125 0,0 -0.015625,0 -0.03125,0 -0.015625,0 -0.046875,0 -0.0625,0.03125 z M 6.0625,-1.953125 c 0.015625,-0.09375 0.015625,-0.203125 0.015625,-0.3125 0,-0.53125 -0.109375,-1.015625 -0.359375,-1.390625 C 6.421875,-4.3125 7.203125,-4.921875 8,-5.515625 c 0.390625,-0.28125 0.78125,-0.5625 1.1875,-0.84375 z M 2.90625,-3.734375 C 3.125,-4.03125 3.5,-4.3125 3.75,-4.3125 c 0.78125,0 1.296875,0.234375 1.640625,0.640625 -0.671875,0.59375 -1.25,1.234375 -1.703125,1.875 -0.15625,0.21875 -0.34375,0.4375 -0.53125,0.625 -0.5,-0.265625 -0.796875,-0.65625 -0.796875,-1.15625 0,-0.390625 0.171875,-0.859375 0.546875,-1.40625 z M 3.921875,-1.6875 c 0.4375,-0.625 0.984375,-1.21875 1.59375,-1.796875 0.203125,0.34375 0.28125,0.765625 0.28125,1.25 C 5.796875,-2 5.78125,-1.75 5.734375,-1.5 L 5.15625,-0.6875 C 4.46875,-0.734375 3.859375,-0.84375 3.375,-1.0625 3.59375,-1.25 3.78125,-1.46875 3.921875,-1.6875 Z m 0,0"
             id="path24" />
        </g>
      </g>
    </g>
    <g
       transform="matrix(0.43744499,0,0,0.43744499,171.62634,134.25949)"
       ns1:version="1.10.0"
       ns1:texconverter="xelatex"
       ns1:pdfconverter="inkscape"
       ns1:text="$B$"
       ns1:preamble="C:\Users\Ichinoe\AppData\Roaming\inkscape\extensions\textext\default_packages.tex"
       ns1:scale="1.24"
       ns1:alignment="middle center"
       ns1:stroke-to-path="0"
       id="g35"
       ns1:jacobian_sqrt="0.437445"
       inkscape:label="g15">
      <defs
         id="defs29">
        <g
           id="g29">
          <g
             id="g28">
            <path
               d="M 1.59375,-0.78125 C 1.5,-0.390625 1.46875,-0.3125 0.6875,-0.3125 c -0.171875,0 -0.265625,0 -0.265625,0.203125 C 0.421875,0 0.515625,0 0.6875,0 H 4.25 C 5.828125,0 7,-1.171875 7,-2.15625 7,-2.875 6.421875,-3.453125 5.453125,-3.5625 6.484375,-3.75 7.53125,-4.484375 7.53125,-5.4375 c 0,-0.734375 -0.65625,-1.375 -1.84375,-1.375 H 2.328125 c -0.1875,0 -0.28125,0 -0.28125,0.203125 0,0.109375 0.09375,0.109375 0.28125,0.109375 0.015625,0 0.203125,0 0.375,0.015625 0.171875,0.03125 0.265625,0.03125 0.265625,0.171875 0,0.03125 -0.015625,0.0625 -0.03125,0.1875 z m 1.5,-2.875 0.625,-2.46875 C 3.8125,-6.46875 3.828125,-6.5 4.25,-6.5 h 1.296875 c 0.875,0 1.078125,0.59375 1.078125,1.03125 0,0.875 -0.859375,1.8125 -2.0625,1.8125 z m -0.4375,3.34375 c -0.140625,0 -0.15625,0 -0.21875,0 -0.109375,-0.015625 -0.140625,-0.03125 -0.140625,-0.109375 0,-0.03125 0,-0.046875 0.0625,-0.21875 l 0.6875,-2.78125 h 1.875 c 0.953125,0 1.15625,0.734375 1.15625,1.15625 C 6.078125,-1.28125 5.1875,-0.3125 4,-0.3125 Z m 0,0"
               id="path27" />
          </g>
        </g>
      </defs>
      <g
         transform="translate(-1.7563441,-0.28756283)"
         ns1:version="1.10.0"
         ns1:texconverter="xelatex"
         ns1:pdfconverter="inkscape"
         ns1:text="$\\mathscr{B}$"
         ns1:preamble="C:\Users\Ichinoe\Downloads\scr.tex"
         ns1:scale="1.24"
         ns1:alignment="middle center"
         ns1:stroke-to-path="0"
         ns1:inkscapeversion="1.3.2"
         id="g34"
         ns1:jacobian_sqrt="1.0">
        <defs
           id="defs31">
          <g
             id="g31">
            <g
               id="g30">
              <path
                 d="m 6.40625,-7.0625 c -0.703125,0 -1.515625,0.1875 -2.375,0.625 -0.71875,0.359375 -1.421875,0.90625 -1.859375,1.5 -0.34375,0.484375 -0.546875,0.96875 -0.546875,1.375 0,0.078125 0.015625,0.140625 0.015625,0.1875 0.078125,0.4375 0.40625,0.6875 0.953125,0.6875 0.34375,0 0.765625,-0.109375 1.171875,-0.3125 0.375,-0.203125 0.734375,-0.484375 0.953125,-0.78125 0.390625,-0.5625 0.5625,-1.09375 0.5625,-1.546875 0,-0.09375 -0.015625,-0.1875 -0.03125,-0.28125 C 5.25,-5.65625 5.203125,-5.6875 5.15625,-5.6875 5.140625,-5.671875 5.109375,-5.65625 5.078125,-5.640625 5.046875,-5.625 5.03125,-5.609375 5.03125,-5.578125 V -5.5 c 0,0.421875 -0.40625,1 -0.828125,1.609375 C 4.015625,-3.625 3.78125,-3.375 3.484375,-3.1875 3.1875,-2.984375 2.875,-2.90625 2.625,-2.90625 c -0.4375,0 -0.6875,-0.203125 -0.734375,-0.515625 0,-0.046875 0,-0.09375 0,-0.125 0,-0.359375 0.1875,-0.8125 0.53125,-1.28125 0.390625,-0.5625 1.03125,-1.078125 1.734375,-1.4375 0.78125,-0.390625 1.5625,-0.578125 2.203125,-0.578125 0.75,0 1.390625,0.109375 1.828125,0.390625 -1.625,1.203125 -2.765625,2.828125 -3.828125,4.3125 -0.71875,1.03125 -1.78125,2.0625 -2.609375,2.0625 -0.6875,0 -1.203125,-0.1875 -1.203125,-0.578125 0,-0.09375 0.03125,-0.1875 0.078125,-0.296875 0.0625,0.109375 0.171875,0.15625 0.296875,0.15625 0.25,0 0.546875,-0.203125 0.546875,-0.390625 0,-0.25 -0.140625,-0.34375 -0.328125,-0.34375 -0.203125,0 -0.4375,0.125 -0.5625,0.296875 C 0.40625,-1 0.34375,-0.796875 0.34375,-0.625 c 0,0.53125 0.640625,0.765625 1.359375,0.765625 1.140625,0 2.703125,-1.03125 3.515625,-2.1875 0.21875,-0.3125 0.453125,-0.640625 0.703125,-0.96875 0.140625,0.046875 0.296875,0.0625 0.453125,0.0625 0.359375,0 0.796875,-0.140625 1.21875,-0.375 0.15625,0.09375 0.265625,0.234375 0.328125,0.390625 0.015625,0.078125 0.03125,0.15625 0.03125,0.25 0,0.328125 -0.171875,0.78125 -0.5,1.234375 -0.25,0.34375 -0.515625,0.671875 -0.890625,0.9375 -0.3125,0.234375 -0.65625,0.375 -0.90625,0.375 -0.328125,0 -0.546875,-0.125 -0.59375,-0.328125 -0.015625,-0.046875 -0.015625,-0.09375 -0.015625,-0.140625 0,-0.203125 0.09375,-0.453125 0.296875,-0.734375 0.125,-0.1875 0.375,-0.34375 0.609375,-0.453125 0.3125,-0.140625 0.59375,-0.1875 0.84375,-0.1875 0.03125,0 0.046875,-0.015625 0.078125,-0.03125 l 0.03125,-0.0625 c 0.015625,0 0.015625,-0.03125 0.015625,-0.046875 0,-0.03125 -0.046875,-0.078125 -0.078125,-0.078125 -0.296875,0 -0.625,0.0625 -0.96875,0.21875 -0.265625,0.125 -0.5625,0.3125 -0.71875,0.53125 -0.21875,0.3125 -0.328125,0.609375 -0.328125,0.875 0,0.0625 0,0.125 0.015625,0.1875 0.09375,0.3125 0.375,0.46875 0.765625,0.46875 0.375,0 0.828125,-0.15625 1.265625,-0.421875 0.4375,-0.265625 0.828125,-0.640625 1.09375,-1 0.296875,-0.4375 0.453125,-0.84375 0.453125,-1.203125 0,-0.171875 -0.03125,-0.34375 -0.109375,-0.484375 C 8.21875,-3.234375 8.0625,-3.390625 7.859375,-3.515625 8.28125,-3.78125 8.640625,-4.125 8.890625,-4.484375 9.140625,-4.84375 9.25,-5.171875 9.25,-5.46875 9.25,-5.796875 9.109375,-6.09375 8.875,-6.3125 8.828125,-6.375 8.78125,-6.421875 8.71875,-6.46875 8.859375,-6.59375 8.984375,-6.671875 9.09375,-6.75 9.109375,-6.765625 9.125,-6.78125 9.125,-6.8125 L 9.109375,-6.921875 c -0.015625,-0.03125 -0.046875,-0.0625 -0.09375,-0.0625 0,0 -0.03125,0 -0.03125,0.015625 L 8.46875,-6.640625 C 7.921875,-6.953125 7.203125,-7.0625 6.40625,-7.0625 Z m 0.40625,3.328125 c -0.125,0 -0.25,0 -0.390625,0.03125 0.703125,-0.96875 1.4375,-1.921875 2.046875,-2.53125 0.171875,0.171875 0.265625,0.40625 0.265625,0.671875 0,0.28125 -0.109375,0.609375 -0.375,0.984375 C 8.140625,-4.25 7.859375,-3.921875 7.5,-3.65625 7.3125,-3.703125 7.0625,-3.734375 6.8125,-3.734375 Z m -0.421875,0.4375 c 0.078125,-0.125 0.125,-0.15625 0.125,-0.15625 0.078125,-0.0625 0.171875,-0.0625 0.265625,-0.0625 0.171875,0 0.328125,0.015625 0.46875,0.046875 -0.296875,0.171875 -0.59375,0.28125 -0.828125,0.28125 -0.046875,0 -0.09375,0 -0.109375,0 0.015625,-0.03125 0.046875,-0.0625 0.078125,-0.109375 z m 0,0"
                 id="path29" />
            </g>
          </g>
        </defs>
        <g
           fill="#000000"
           fill-opacity="1"
           id="g33"
           transform="translate(-149.056,-127.703)">
          <g
             transform="translate(148.712,134.765)"
             id="g32">
            <path
               d="m 6.40625,-7.0625 c -0.703125,0 -1.515625,0.1875 -2.375,0.625 -0.71875,0.359375 -1.421875,0.90625 -1.859375,1.5 -0.34375,0.484375 -0.546875,0.96875 -0.546875,1.375 0,0.078125 0.015625,0.140625 0.015625,0.1875 0.078125,0.4375 0.40625,0.6875 0.953125,0.6875 0.34375,0 0.765625,-0.109375 1.171875,-0.3125 0.375,-0.203125 0.734375,-0.484375 0.953125,-0.78125 0.390625,-0.5625 0.5625,-1.09375 0.5625,-1.546875 0,-0.09375 -0.015625,-0.1875 -0.03125,-0.28125 C 5.25,-5.65625 5.203125,-5.6875 5.15625,-5.6875 5.140625,-5.671875 5.109375,-5.65625 5.078125,-5.640625 5.046875,-5.625 5.03125,-5.609375 5.03125,-5.578125 V -5.5 c 0,0.421875 -0.40625,1 -0.828125,1.609375 C 4.015625,-3.625 3.78125,-3.375 3.484375,-3.1875 3.1875,-2.984375 2.875,-2.90625 2.625,-2.90625 c -0.4375,0 -0.6875,-0.203125 -0.734375,-0.515625 0,-0.046875 0,-0.09375 0,-0.125 0,-0.359375 0.1875,-0.8125 0.53125,-1.28125 0.390625,-0.5625 1.03125,-1.078125 1.734375,-1.4375 0.78125,-0.390625 1.5625,-0.578125 2.203125,-0.578125 0.75,0 1.390625,0.109375 1.828125,0.390625 -1.625,1.203125 -2.765625,2.828125 -3.828125,4.3125 -0.71875,1.03125 -1.78125,2.0625 -2.609375,2.0625 -0.6875,0 -1.203125,-0.1875 -1.203125,-0.578125 0,-0.09375 0.03125,-0.1875 0.078125,-0.296875 0.0625,0.109375 0.171875,0.15625 0.296875,0.15625 0.25,0 0.546875,-0.203125 0.546875,-0.390625 0,-0.25 -0.140625,-0.34375 -0.328125,-0.34375 -0.203125,0 -0.4375,0.125 -0.5625,0.296875 C 0.40625,-1 0.34375,-0.796875 0.34375,-0.625 c 0,0.53125 0.640625,0.765625 1.359375,0.765625 1.140625,0 2.703125,-1.03125 3.515625,-2.1875 0.21875,-0.3125 0.453125,-0.640625 0.703125,-0.96875 0.140625,0.046875 0.296875,0.0625 0.453125,0.0625 0.359375,0 0.796875,-0.140625 1.21875,-0.375 0.15625,0.09375 0.265625,0.234375 0.328125,0.390625 0.015625,0.078125 0.03125,0.15625 0.03125,0.25 0,0.328125 -0.171875,0.78125 -0.5,1.234375 -0.25,0.34375 -0.515625,0.671875 -0.890625,0.9375 -0.3125,0.234375 -0.65625,0.375 -0.90625,0.375 -0.328125,0 -0.546875,-0.125 -0.59375,-0.328125 -0.015625,-0.046875 -0.015625,-0.09375 -0.015625,-0.140625 0,-0.203125 0.09375,-0.453125 0.296875,-0.734375 0.125,-0.1875 0.375,-0.34375 0.609375,-0.453125 0.3125,-0.140625 0.59375,-0.1875 0.84375,-0.1875 0.03125,0 0.046875,-0.015625 0.078125,-0.03125 l 0.03125,-0.0625 c 0.015625,0 0.015625,-0.03125 0.015625,-0.046875 0,-0.03125 -0.046875,-0.078125 -0.078125,-0.078125 -0.296875,0 -0.625,0.0625 -0.96875,0.21875 -0.265625,0.125 -0.5625,0.3125 -0.71875,0.53125 -0.21875,0.3125 -0.328125,0.609375 -0.328125,0.875 0,0.0625 0,0.125 0.015625,0.1875 0.09375,0.3125 0.375,0.46875 0.765625,0.46875 0.375,0 0.828125,-0.15625 1.265625,-0.421875 0.4375,-0.265625 0.828125,-0.640625 1.09375,-1 0.296875,-0.4375 0.453125,-0.84375 0.453125,-1.203125 0,-0.171875 -0.03125,-0.34375 -0.109375,-0.484375 C 8.21875,-3.234375 8.0625,-3.390625 7.859375,-3.515625 8.28125,-3.78125 8.640625,-4.125 8.890625,-4.484375 9.140625,-4.84375 9.25,-5.171875 9.25,-5.46875 9.25,-5.796875 9.109375,-6.09375 8.875,-6.3125 8.828125,-6.375 8.78125,-6.421875 8.71875,-6.46875 8.859375,-6.59375 8.984375,-6.671875 9.09375,-6.75 9.109375,-6.765625 9.125,-6.78125 9.125,-6.8125 L 9.109375,-6.921875 c -0.015625,-0.03125 -0.046875,-0.0625 -0.09375,-0.0625 0,0 -0.03125,0 -0.03125,0.015625 L 8.46875,-6.640625 C 7.921875,-6.953125 7.203125,-7.0625 6.40625,-7.0625 Z m 0.40625,3.328125 c -0.125,0 -0.25,0 -0.390625,0.03125 0.703125,-0.96875 1.4375,-1.921875 2.046875,-2.53125 0.171875,0.171875 0.265625,0.40625 0.265625,0.671875 0,0.28125 -0.109375,0.609375 -0.375,0.984375 C 8.140625,-4.25 7.859375,-3.921875 7.5,-3.65625 7.3125,-3.703125 7.0625,-3.734375 6.8125,-3.734375 Z m -0.421875,0.4375 c 0.078125,-0.125 0.125,-0.15625 0.125,-0.15625 0.078125,-0.0625 0.171875,-0.0625 0.265625,-0.0625 0.171875,0 0.328125,0.015625 0.46875,0.046875 -0.296875,0.171875 -0.59375,0.28125 -0.828125,0.28125 -0.046875,0 -0.09375,0 -0.109375,0 0.015625,-0.03125 0.046875,-0.0625 0.078125,-0.109375 z m 0,0"
               id="path31" />
          </g>
        </g>
      </g>
    </g>
    <g
       transform="matrix(0.437445,0,0,0.437445,200.19779,134.10933)"
       ns1:version="1.10.0"
       ns1:texconverter="xelatex"
       ns1:pdfconverter="inkscape"
       ns1:text="$\\mathscr{C}$"
       ns1:preamble="C:\Users\Ichinoe\Downloads\scr.tex"
       ns1:scale="1.24"
       ns1:alignment="middle center"
       ns1:stroke-to-path="0"
       ns1:inkscapeversion="1.3.2"
       id="g42"
       ns1:jacobian_sqrt="0.437445">
      <defs
         id="defs37">
        <g
           id="g37">
          <g
             id="g36">
            <path
               d="m 3.4375,-0.875 c -0.078125,-0.078125 -0.125,-0.171875 -0.125,-0.296875 0,-0.15625 0.0625,-0.375 0.234375,-0.609375 0.15625,-0.234375 0.359375,-0.46875 0.625,-0.65625 0.21875,-0.140625 0.4375,-0.25 0.609375,-0.25 0.34375,0 0.53125,0.171875 0.546875,0.421875 v 0.046875 c 0,0.3125 -0.203125,0.703125 -0.5,1.125 C 4.625,-0.8125 4.390625,-0.53125 4.0625,-0.328125 3.765625,-0.125 3.4375,-0.03125 3.203125,-0.03125 2.609375,-0.03125 2.34375,-0.375 2.34375,-0.859375 V -0.96875 c 0.0625,-0.75 0.625,-1.6875 1.28125,-2.59375 0.609375,-0.09375 1.265625,-0.25 1.953125,-0.53125 C 6.375,-4.390625 7.25,-4.875 7.71875,-5.546875 c 0.234375,-0.328125 0.375,-0.65625 0.375,-0.9375 0,-0.046875 0,-0.09375 -0.015625,-0.140625 -0.046875,-0.3125 -0.3125,-0.5 -0.703125,-0.5 -0.671875,0 -1.546875,0.5 -2.28125,1.0625 -0.921875,0.703125 -1.6875,1.53125 -2.28125,2.34375 -0.109375,0.015625 -0.21875,0.015625 -0.328125,0.015625 -0.71875,0 -1.3125,-0.171875 -1.59375,-0.546875 -0.078125,-0.109375 -0.125,-0.25 -0.125,-0.421875 0,-0.25 0.109375,-0.546875 0.328125,-0.859375 C 1.28125,-5.796875 1.5625,-6.0625 1.875,-6.234375 2.25,-6.4375 2.625,-6.515625 2.9375,-6.515625 2.953125,-6.515625 2.984375,-6.53125 3,-6.546875 3.015625,-6.59375 3.046875,-6.625 3.046875,-6.65625 c 0,-0.046875 -0.03125,-0.078125 -0.078125,-0.078125 -0.40625,0 -0.875,0.078125 -1.375,0.3125 -0.390625,0.1875 -0.796875,0.453125 -1.03125,0.796875 -0.21875,0.296875 -0.296875,0.59375 -0.296875,0.84375 0,0.25 0.09375,0.5 0.25,0.671875 0.40625,0.453125 1.125,0.625 1.921875,0.625 h 0.21875 c -0.578125,0.8125 -0.9375,1.640625 -0.9375,2.328125 0,0.078125 0,0.15625 0.015625,0.21875 0.0625,0.6875 0.5625,1.125 1.421875,1.125 0.359375,0 0.78125,-0.125 1.203125,-0.34375 C 4.75,-0.375 5.109375,-0.671875 5.34375,-1 c 0.265625,-0.390625 0.421875,-0.78125 0.421875,-1.109375 0,-0.078125 0,-0.140625 -0.03125,-0.21875 -0.09375,-0.375 -0.4375,-0.578125 -0.921875,-0.578125 -0.234375,0 -0.53125,0.140625 -0.78125,0.296875 -0.296875,0.21875 -0.546875,0.46875 -0.734375,0.734375 -0.171875,0.25 -0.265625,0.5 -0.265625,0.703125 0,0.1875 0.078125,0.359375 0.25,0.46875 0.015625,0 0.015625,0 0.03125,0 0,0 0.03125,0 0.03125,0 L 3.421875,-0.734375 3.453125,-0.75 c 0,-0.03125 0.015625,-0.03125 0.015625,-0.0625 0,-0.03125 -0.015625,-0.046875 -0.03125,-0.0625 z m 0.015625,0.125 c 0,-0.015625 0.015625,-0.03125 0.015625,-0.0625 0,0 0,-0.015625 -0.015625,-0.03125 0,0 0,0.015625 0,0.09375 z M 7.34375,-6.890625 c 0.296875,0 0.453125,0.125 0.484375,0.328125 v 0.09375 c 0,0.234375 -0.125,0.515625 -0.34375,0.84375 -0.4375,0.59375 -1.25,1.0625 -2.015625,1.359375 -0.578125,0.21875 -1.140625,0.375 -1.671875,0.453125 C 4.3125,-4.53125 4.859375,-5.25 5.609375,-5.90625 6.1875,-6.421875 6.84375,-6.890625 7.34375,-6.890625 Z m 0,0"
               id="path35" />
          </g>
        </g>
      </defs>
      <g
         fill="#000000"
         fill-opacity="1"
         id="g41"
         transform="translate(-148.978,-127.64)">
        <g
           transform="translate(148.712,134.765)"
           id="g40">
          <path
             d="m 3.4375,-0.875 c -0.078125,-0.078125 -0.125,-0.171875 -0.125,-0.296875 0,-0.15625 0.0625,-0.375 0.234375,-0.609375 0.15625,-0.234375 0.359375,-0.46875 0.625,-0.65625 0.21875,-0.140625 0.4375,-0.25 0.609375,-0.25 0.34375,0 0.53125,0.171875 0.546875,0.421875 v 0.046875 c 0,0.3125 -0.203125,0.703125 -0.5,1.125 C 4.625,-0.8125 4.390625,-0.53125 4.0625,-0.328125 3.765625,-0.125 3.4375,-0.03125 3.203125,-0.03125 2.609375,-0.03125 2.34375,-0.375 2.34375,-0.859375 V -0.96875 c 0.0625,-0.75 0.625,-1.6875 1.28125,-2.59375 0.609375,-0.09375 1.265625,-0.25 1.953125,-0.53125 C 6.375,-4.390625 7.25,-4.875 7.71875,-5.546875 c 0.234375,-0.328125 0.375,-0.65625 0.375,-0.9375 0,-0.046875 0,-0.09375 -0.015625,-0.140625 -0.046875,-0.3125 -0.3125,-0.5 -0.703125,-0.5 -0.671875,0 -1.546875,0.5 -2.28125,1.0625 -0.921875,0.703125 -1.6875,1.53125 -2.28125,2.34375 -0.109375,0.015625 -0.21875,0.015625 -0.328125,0.015625 -0.71875,0 -1.3125,-0.171875 -1.59375,-0.546875 -0.078125,-0.109375 -0.125,-0.25 -0.125,-0.421875 0,-0.25 0.109375,-0.546875 0.328125,-0.859375 C 1.28125,-5.796875 1.5625,-6.0625 1.875,-6.234375 2.25,-6.4375 2.625,-6.515625 2.9375,-6.515625 2.953125,-6.515625 2.984375,-6.53125 3,-6.546875 3.015625,-6.59375 3.046875,-6.625 3.046875,-6.65625 c 0,-0.046875 -0.03125,-0.078125 -0.078125,-0.078125 -0.40625,0 -0.875,0.078125 -1.375,0.3125 -0.390625,0.1875 -0.796875,0.453125 -1.03125,0.796875 -0.21875,0.296875 -0.296875,0.59375 -0.296875,0.84375 0,0.25 0.09375,0.5 0.25,0.671875 0.40625,0.453125 1.125,0.625 1.921875,0.625 h 0.21875 c -0.578125,0.8125 -0.9375,1.640625 -0.9375,2.328125 0,0.078125 0,0.15625 0.015625,0.21875 0.0625,0.6875 0.5625,1.125 1.421875,1.125 0.359375,0 0.78125,-0.125 1.203125,-0.34375 C 4.75,-0.375 5.109375,-0.671875 5.34375,-1 c 0.265625,-0.390625 0.421875,-0.78125 0.421875,-1.109375 0,-0.078125 0,-0.140625 -0.03125,-0.21875 -0.09375,-0.375 -0.4375,-0.578125 -0.921875,-0.578125 -0.234375,0 -0.53125,0.140625 -0.78125,0.296875 -0.296875,0.21875 -0.546875,0.46875 -0.734375,0.734375 -0.171875,0.25 -0.265625,0.5 -0.265625,0.703125 0,0.1875 0.078125,0.359375 0.25,0.46875 0.015625,0 0.015625,0 0.03125,0 0,0 0.03125,0 0.03125,0 L 3.421875,-0.734375 3.453125,-0.75 c 0,-0.03125 0.015625,-0.03125 0.015625,-0.0625 0,-0.03125 -0.015625,-0.046875 -0.03125,-0.0625 z m 0.015625,0.125 c 0,-0.015625 0.015625,-0.03125 0.015625,-0.0625 0,0 0,-0.015625 -0.015625,-0.03125 0,0 0,0.015625 0,0.09375 z M 7.34375,-6.890625 c 0.296875,0 0.453125,0.125 0.484375,0.328125 v 0.09375 c 0,0.234375 -0.125,0.515625 -0.34375,0.84375 -0.4375,0.59375 -1.25,1.0625 -2.015625,1.359375 -0.578125,0.21875 -1.140625,0.375 -1.671875,0.453125 C 4.3125,-4.53125 4.859375,-5.25 5.609375,-5.90625 6.1875,-6.421875 6.84375,-6.890625 7.34375,-6.890625 Z m 0,0"
             id="path37" />
        </g>
      </g>
    </g>
    <g
       transform="matrix(0.3175,0,0,0.3175,157.02374,136.73935)"
       ns1:version="1.10.0"
       ns1:texconverter="xelatex"
       ns1:pdfconverter="inkscape"
       ns1:text="$G$"
       ns1:preamble="C:\Users\Ichinoe\Downloads\scr.tex"
       ns1:scale="0.9"
       ns1:alignment="middle center"
       ns1:stroke-to-path="0"
       ns1:inkscapeversion="1.3.2"
       id="g47"
       ns1:jacobian_sqrt="0.3175"
       style="fill:#000000;fill-opacity:1;stroke-width:0">
      <defs
         id="id-5ac46596-e118-4db4-9d64-0fd3aa7b646d"
         style="fill:#000000;fill-opacity:1;stroke-width:0">
        <g
           id="id-b2332d2a-7768-4f73-bcc3-7a351fb9f503"
           style="fill:#000000;fill-opacity:1;stroke-width:0">
          <g
             id="id-6dfe57b3-fe16-4fbf-ba86-24e6433ec67f"
             style="fill:#000000;fill-opacity:1;stroke-width:0">
            <path
               d="m 7.578125,-6.921875 c 0,-0.03125 -0.015625,-0.109375 -0.109375,-0.109375 -0.03125,0 -0.046875,0.015625 -0.15625,0.125 L 6.625,-6.140625 C 6.53125,-6.28125 6.078125,-7.03125 4.96875,-7.03125 2.734375,-7.03125 0.5,-4.828125 0.5,-2.515625 c 0,1.59375 1.109375,2.734375 2.71875,2.734375 0.4375,0 0.890625,-0.09375 1.25,-0.234375 0.5,-0.203125 0.6875,-0.40625 0.859375,-0.609375 0.09375,0.25 0.359375,0.609375 0.453125,0.609375 0.046875,0 0.078125,-0.03125 0.078125,-0.03125 C 5.875,-0.0625 5.96875,-0.453125 6.015625,-0.65625 l 0.1875,-0.765625 C 6.25,-1.59375 6.296875,-1.765625 6.34375,-1.9375 c 0.109375,-0.4375 0.109375,-0.46875 0.6875,-0.46875 0.046875,0 0.15625,-0.015625 0.15625,-0.203125 0,-0.078125 -0.046875,-0.109375 -0.125,-0.109375 -0.234375,0 -0.828125,0.03125 -1.046875,0.03125 -0.3125,0 -1.09375,-0.03125 -1.40625,-0.03125 -0.078125,0 -0.203125,0 -0.203125,0.203125 0,0.109375 0.078125,0.109375 0.296875,0.109375 0.015625,0 0.296875,0 0.53125,0.015625 0.265625,0.03125 0.3125,0.0625 0.3125,0.1875 0,0.09375 -0.109375,0.53125 -0.21875,0.90625 -0.28125,1.09375 -1.5625,1.203125 -1.921875,1.203125 -0.953125,0 -2,-0.5625 -2,-2.09375 0,-0.3125 0.09375,-1.953125 1.140625,-3.25 0.546875,-0.671875 1.515625,-1.28125 2.5,-1.28125 1.015625,0 1.609375,0.765625 1.609375,1.921875 0,0.40625 -0.03125,0.40625 -0.03125,0.515625 0,0.09375 0.109375,0.09375 0.140625,0.09375 0.125,0 0.125,-0.015625 0.1875,-0.203125 z m 0,0"
               id="id-f1c66c4a-21e3-481d-8f3b-06ef65ce5499"
               style="fill:#000000;fill-opacity:1;stroke-width:0" />
          </g>
        </g>
      </defs>
      <g
         fill-opacity="1"
         id="id-27d1cb57-c9cb-4c66-a6bf-95f943a7722d"
         transform="translate(-149.212,-127.734)"
         style="fill:#000000;fill-opacity:1;stroke-width:0">
        <g
           transform="translate(148.712,134.765)"
           id="g7216"
           style="fill:#000000;fill-opacity:1;stroke-width:0">
          <path
             d="m 7.578125,-6.921875 c 0,-0.03125 -0.015625,-0.109375 -0.109375,-0.109375 -0.03125,0 -0.046875,0.015625 -0.15625,0.125 L 6.625,-6.140625 C 6.53125,-6.28125 6.078125,-7.03125 4.96875,-7.03125 2.734375,-7.03125 0.5,-4.828125 0.5,-2.515625 c 0,1.59375 1.109375,2.734375 2.71875,2.734375 0.4375,0 0.890625,-0.09375 1.25,-0.234375 0.5,-0.203125 0.6875,-0.40625 0.859375,-0.609375 0.09375,0.25 0.359375,0.609375 0.453125,0.609375 0.046875,0 0.078125,-0.03125 0.078125,-0.03125 C 5.875,-0.0625 5.96875,-0.453125 6.015625,-0.65625 l 0.1875,-0.765625 C 6.25,-1.59375 6.296875,-1.765625 6.34375,-1.9375 c 0.109375,-0.4375 0.109375,-0.46875 0.6875,-0.46875 0.046875,0 0.15625,-0.015625 0.15625,-0.203125 0,-0.078125 -0.046875,-0.109375 -0.125,-0.109375 -0.234375,0 -0.828125,0.03125 -1.046875,0.03125 -0.3125,0 -1.09375,-0.03125 -1.40625,-0.03125 -0.078125,0 -0.203125,0 -0.203125,0.203125 0,0.109375 0.078125,0.109375 0.296875,0.109375 0.015625,0 0.296875,0 0.53125,0.015625 0.265625,0.03125 0.3125,0.0625 0.3125,0.1875 0,0.09375 -0.109375,0.53125 -0.21875,0.90625 -0.28125,1.09375 -1.5625,1.203125 -1.921875,1.203125 -0.953125,0 -2,-0.5625 -2,-2.09375 0,-0.3125 0.09375,-1.953125 1.140625,-3.25 0.546875,-0.671875 1.515625,-1.28125 2.5,-1.28125 1.015625,0 1.609375,0.765625 1.609375,1.921875 0,0.40625 -0.03125,0.40625 -0.03125,0.515625 0,0.09375 0.109375,0.09375 0.140625,0.09375 0.125,0 0.125,-0.015625 0.1875,-0.203125 z m 0,0"
             id="id-34f1e2b0-61f0-469c-8c0b-7788ea43c5c3"
             style="fill:#000000;fill-opacity:1;stroke-width:0" />
        </g>
      </g>
    </g>
    <g
       transform="matrix(0.3175,0,0,0.3175,185.90374,136.80835)"
       ns1:version="1.10.0"
       ns1:texconverter="xelatex"
       ns1:pdfconverter="inkscape"
       ns1:text="$K$"
       ns1:preamble="C:\Users\Ichinoe\Downloads\scr.tex"
       ns1:scale="0.9"
       ns1:alignment="middle center"
       ns1:stroke-to-path="0"
       ns1:inkscapeversion="1.3.2"
       id="g57"
       ns1:jacobian_sqrt="0.3175"
       style="fill:#000000;fill-opacity:1;stroke-width:0">
      <defs
         id="id-e960969f-8eab-4c13-aa1c-f5f4fd60ca9c"
         style="fill:#000000;fill-opacity:1;stroke-width:0">
        <g
           id="id-ad1a0d78-9286-4444-97e5-98c1f067b894"
           style="fill:#000000;fill-opacity:1;stroke-width:0">
          <g
             id="id-de65b74e-1363-4aa1-b8ec-5ec436aadc80"
             style="fill:#000000;fill-opacity:1;stroke-width:0">
            <path
               d="M 5.078125,-4.03125 C 5.0625,-4.0625 5.03125,-4.140625 5.03125,-4.171875 c 0,0 0.171875,-0.140625 0.28125,-0.21875 l 1.75,-1.34375 C 8,-6.4375 8.390625,-6.46875 8.6875,-6.5 8.765625,-6.515625 8.859375,-6.515625 8.859375,-6.703125 8.859375,-6.734375 8.828125,-6.8125 8.75,-6.8125 c -0.21875,0 -0.46875,0.03125 -0.703125,0.03125 -0.359375,0 -0.75,-0.03125 -1.109375,-0.03125 -0.0625,0 -0.1875,0 -0.1875,0.203125 0,0.0625 0.046875,0.09375 0.125,0.109375 0.21875,0.015625 0.296875,0.0625 0.296875,0.203125 0,0.1875 -0.296875,0.421875 -0.359375,0.46875 L 2.9375,-2.84375 3.734375,-6.046875 C 3.8125,-6.40625 3.84375,-6.5 4.5625,-6.5 c 0.25,0 0.34375,0 0.34375,-0.203125 0,-0.078125 -0.078125,-0.109375 -0.140625,-0.109375 -0.28125,0 -1,0.03125 -1.28125,0.03125 C 3.203125,-6.78125 2.5,-6.8125 2.203125,-6.8125 2.140625,-6.8125 2,-6.8125 2,-6.625 2,-6.5 2.09375,-6.5 2.296875,-6.5 c 0.125,0 0.3125,0.015625 0.421875,0.015625 0.15625,0.03125 0.21875,0.046875 0.21875,0.171875 0,0.03125 0,0.0625 -0.03125,0.1875 L 1.5625,-0.78125 c -0.09375,0.390625 -0.109375,0.46875 -0.90625,0.46875 -0.171875,0 -0.28125,0 -0.28125,0.1875 C 0.375,0 0.5,0 0.53125,0 0.8125,0 1.515625,-0.03125 1.796875,-0.03125 2,-0.03125 2.21875,-0.015625 2.4375,-0.015625 2.65625,-0.015625 2.875,0 3.078125,0 3.15625,0 3.28125,0 3.28125,-0.203125 3.28125,-0.3125 3.1875,-0.3125 3,-0.3125 c -0.375,0 -0.640625,0 -0.640625,-0.171875 0,-0.078125 0.046875,-0.296875 0.078125,-0.4375 C 2.578125,-1.453125 2.71875,-1.96875 2.84375,-2.5 l 1.484375,-1.15625 1.15625,2.6875 c 0.125,0.265625 0.125,0.296875 0.125,0.34375 0,0.3125 -0.4375,0.3125 -0.53125,0.3125 -0.109375,0 -0.21875,0 -0.21875,0.203125 C 4.859375,0 4.984375,0 5,0 5.40625,0 5.828125,-0.03125 6.21875,-0.03125 6.4375,-0.03125 6.984375,0 7.203125,0 7.25,0 7.375,0 7.375,-0.203125 7.375,-0.3125 7.265625,-0.3125 7.171875,-0.3125 c -0.40625,0 -0.53125,-0.09375 -0.6875,-0.4375 z m 0,0"
               id="id-ce96437a-4e52-41fc-8be1-cb764f79eec4"
               style="fill:#000000;fill-opacity:1;stroke-width:0" />
          </g>
        </g>
      </defs>
      <g
         fill-opacity="1"
         id="id-bf517e48-5652-45bb-ae1d-9c7f59d63854"
         transform="translate(-149.087,-127.953)"
         style="fill:#000000;fill-opacity:1;stroke-width:0">
        <g
           transform="translate(148.712,134.765)"
           id="g6113"
           style="fill:#000000;fill-opacity:1;stroke-width:0">
          <path
             d="M 5.078125,-4.03125 C 5.0625,-4.0625 5.03125,-4.140625 5.03125,-4.171875 c 0,0 0.171875,-0.140625 0.28125,-0.21875 l 1.75,-1.34375 C 8,-6.4375 8.390625,-6.46875 8.6875,-6.5 8.765625,-6.515625 8.859375,-6.515625 8.859375,-6.703125 8.859375,-6.734375 8.828125,-6.8125 8.75,-6.8125 c -0.21875,0 -0.46875,0.03125 -0.703125,0.03125 -0.359375,0 -0.75,-0.03125 -1.109375,-0.03125 -0.0625,0 -0.1875,0 -0.1875,0.203125 0,0.0625 0.046875,0.09375 0.125,0.109375 0.21875,0.015625 0.296875,0.0625 0.296875,0.203125 0,0.1875 -0.296875,0.421875 -0.359375,0.46875 L 2.9375,-2.84375 3.734375,-6.046875 C 3.8125,-6.40625 3.84375,-6.5 4.5625,-6.5 c 0.25,0 0.34375,0 0.34375,-0.203125 0,-0.078125 -0.078125,-0.109375 -0.140625,-0.109375 -0.28125,0 -1,0.03125 -1.28125,0.03125 C 3.203125,-6.78125 2.5,-6.8125 2.203125,-6.8125 2.140625,-6.8125 2,-6.8125 2,-6.625 2,-6.5 2.09375,-6.5 2.296875,-6.5 c 0.125,0 0.3125,0.015625 0.421875,0.015625 0.15625,0.03125 0.21875,0.046875 0.21875,0.171875 0,0.03125 0,0.0625 -0.03125,0.1875 L 1.5625,-0.78125 c -0.09375,0.390625 -0.109375,0.46875 -0.90625,0.46875 -0.171875,0 -0.28125,0 -0.28125,0.1875 C 0.375,0 0.5,0 0.53125,0 0.8125,0 1.515625,-0.03125 1.796875,-0.03125 2,-0.03125 2.21875,-0.015625 2.4375,-0.015625 2.65625,-0.015625 2.875,0 3.078125,0 3.15625,0 3.28125,0 3.28125,-0.203125 3.28125,-0.3125 3.1875,-0.3125 3,-0.3125 c -0.375,0 -0.640625,0 -0.640625,-0.171875 0,-0.078125 0.046875,-0.296875 0.078125,-0.4375 C 2.578125,-1.453125 2.71875,-1.96875 2.84375,-2.5 l 1.484375,-1.15625 1.15625,2.6875 c 0.125,0.265625 0.125,0.296875 0.125,0.34375 0,0.3125 -0.4375,0.3125 -0.53125,0.3125 -0.109375,0 -0.21875,0 -0.21875,0.203125 C 4.859375,0 4.984375,0 5,0 5.40625,0 5.828125,-0.03125 6.21875,-0.03125 6.4375,-0.03125 6.984375,0 7.203125,0 7.25,0 7.375,0 7.375,-0.203125 7.375,-0.3125 7.265625,-0.3125 7.171875,-0.3125 c -0.40625,0 -0.53125,-0.09375 -0.6875,-0.4375 z m 0,0"
             id="id-3248498b-b08e-47f8-bc5b-f7d248d80143"
             style="fill:#000000;fill-opacity:1;stroke-width:0" />
        </g>
      </g>
    </g>
    <g
       transform="matrix(0.352778,0,0,0.352778,155.16574,123.99335)"
       ns1:version="1.10.0"
       ns1:texconverter="xelatex"
       ns1:pdfconverter="inkscape"
       ns1:text="$\\alpha$"
       ns1:preamble="C:\Users\Ichinoe\AppData\Roaming\inkscape\extensions\textext\default_packages.tex"
       ns1:scale="0.43744500602639713"
       ns1:alignment="middle center"
       ns1:stroke-to-path="0"
       ns1:inkscapeversion="1.3.2"
       id="g62"
       ns1:jacobian_sqrt="0.352778"
       style="fill:#000000;fill-opacity:1;stroke-width:0">
      <defs
         id="id-d8ec30ea-e661-499d-b1e6-f67c419ff50e"
         style="fill:#000000;fill-opacity:1;stroke-width:0">
        <g
           id="id-e86b9818-849d-46a9-b2fc-d15abb31eb7b"
           style="fill:#000000;fill-opacity:1;stroke-width:0">
          <g
             id="id-ad526e80-4c12-40dd-ba6f-33606b9bf61a"
             style="fill:#000000;fill-opacity:1;stroke-width:0">
            <path
               d="m 4.75,-2.359375 c 0,-1.5625 -0.921875,-2.046875 -1.65625,-2.046875 -1.375,0 -2.6875,1.421875 -2.6875,2.828125 0,0.9375 0.59375,1.6875 1.625,1.6875 0.625,0 1.34375,-0.234375 2.09375,-0.84375 0.125,0.53125 0.453125,0.84375 0.90625,0.84375 0.53125,0 0.84375,-0.546875 0.84375,-0.703125 0,-0.078125 -0.0625,-0.109375 -0.125,-0.109375 -0.0625,0 -0.09375,0.03125 -0.125,0.109375 -0.1875,0.484375 -0.546875,0.484375 -0.5625,0.484375 -0.3125,0 -0.3125,-0.78125 -0.3125,-1.015625 0,-0.203125 0,-0.234375 0.109375,-0.34375 C 5.796875,-2.65625 6,-3.8125 6,-3.8125 6,-3.84375 5.984375,-3.921875 5.875,-3.921875 c -0.09375,0 -0.09375,0.03125 -0.140625,0.21875 -0.1875,0.625 -0.515625,1.375 -0.984375,1.96875 z m -0.65625,1.375 c -0.890625,0.765625 -1.65625,0.875 -2.046875,0.875 -0.59375,0 -0.90625,-0.453125 -0.90625,-1.09375 0,-0.484375 0.265625,-1.5625 0.578125,-2.0625 C 2.1875,-4 2.734375,-4.1875 3.078125,-4.1875 c 0.984375,0 0.984375,1.3125 0.984375,2.078125 0,0.375 0,0.953125 0.03125,1.125 z m 0,0"
               id="id-9de936ee-59f2-444b-b20d-a144fa59c9b8"
               style="fill:#000000;fill-opacity:1;stroke-width:0" />
          </g>
        </g>
      </defs>
      <g
         fill-opacity="1"
         id="id-f04ea6a8-ea59-40c3-82d9-a594492fbdef"
         transform="translate(-149.118,-130.359)"
         style="fill:#000000;fill-opacity:1;stroke-width:0">
        <g
           transform="translate(148.712,134.765)"
           id="g5122"
           style="fill:#000000;fill-opacity:1;stroke-width:0">
          <path
             d="m 4.75,-2.359375 c 0,-1.5625 -0.921875,-2.046875 -1.65625,-2.046875 -1.375,0 -2.6875,1.421875 -2.6875,2.828125 0,0.9375 0.59375,1.6875 1.625,1.6875 0.625,0 1.34375,-0.234375 2.09375,-0.84375 0.125,0.53125 0.453125,0.84375 0.90625,0.84375 0.53125,0 0.84375,-0.546875 0.84375,-0.703125 0,-0.078125 -0.0625,-0.109375 -0.125,-0.109375 -0.0625,0 -0.09375,0.03125 -0.125,0.109375 -0.1875,0.484375 -0.546875,0.484375 -0.5625,0.484375 -0.3125,0 -0.3125,-0.78125 -0.3125,-1.015625 0,-0.203125 0,-0.234375 0.109375,-0.34375 C 5.796875,-2.65625 6,-3.8125 6,-3.8125 6,-3.84375 5.984375,-3.921875 5.875,-3.921875 c -0.09375,0 -0.09375,0.03125 -0.140625,0.21875 -0.1875,0.625 -0.515625,1.375 -0.984375,1.96875 z m -0.65625,1.375 c -0.890625,0.765625 -1.65625,0.875 -2.046875,0.875 -0.59375,0 -0.90625,-0.453125 -0.90625,-1.09375 0,-0.484375 0.265625,-1.5625 0.578125,-2.0625 C 2.1875,-4 2.734375,-4.1875 3.078125,-4.1875 c 0.984375,0 0.984375,1.3125 0.984375,2.078125 0,0.375 0,0.953125 0.03125,1.125 z m 0,0"
             id="id-57d3583c-ac39-49b0-bae7-028969a1ee69"
             style="fill:#000000;fill-opacity:1;stroke-width:0" />
        </g>
      </g>
    </g>
    <g
       transform="matrix(0.352778,0,0,0.352778,184.79932,123.20735)"
       ns1:version="1.10.0"
       ns1:texconverter="xelatex"
       ns1:pdfconverter="inkscape"
       ns1:text="$\\beta$"
       ns1:preamble="C:\Users\Ichinoe\AppData\Roaming\inkscape\extensions\textext\default_packages.tex"
       ns1:scale="0.43744500602639713"
       ns1:alignment="middle center"
       ns1:stroke-to-path="0"
       ns1:inkscapeversion="1.3.2"
       id="g52"
       ns1:jacobian_sqrt="0.352778"
       style="fill:#000000;fill-opacity:1;stroke-width:0">
      <defs
         id="id-bf79a229-5c27-4445-a949-a31b4b5bc858"
         style="fill:#000000;fill-opacity:1;stroke-width:0">
        <g
           id="id-ce08c87e-4698-42fc-b134-1856728c9188"
           style="fill:#000000;fill-opacity:1;stroke-width:0">
          <g
             id="id-7171af75-cc0d-474b-838c-fada21caec2f"
             style="fill:#000000;fill-opacity:1;stroke-width:0">
            <path
               d="m 5.734375,-5.671875 c 0,-0.75 -0.546875,-1.359375 -1.359375,-1.359375 -0.578125,0 -0.859375,0.15625 -1.203125,0.40625 C 2.625,-6.21875 2.078125,-5.25 1.890625,-4.5 L 0.296875,1.828125 C 0.296875,1.875 0.34375,1.9375 0.421875,1.9375 0.5,1.9375 0.53125,1.90625 0.53125,1.890625 L 1.234375,-0.875 c 0.1875,0.609375 0.625,0.96875 1.359375,0.96875 C 3.3125,0.09375 4.0625,-0.25 4.515625,-0.6875 5,-1.140625 5.3125,-1.78125 5.3125,-2.515625 c 0,-0.71875 -0.375,-1.25 -0.734375,-1.484375 0.578125,-0.34375 1.15625,-0.953125 1.15625,-1.671875 z M 3.9375,-4.015625 c -0.125,0.046875 -0.234375,0.0625 -0.484375,0.0625 -0.140625,0 -0.328125,0.015625 -0.4375,-0.03125 0.03125,-0.109375 0.390625,-0.078125 0.5,-0.078125 0.203125,0 0.296875,0 0.421875,0.046875 z M 5.171875,-5.90625 c 0,0.703125 -0.375,1.421875 -0.890625,1.734375 C 4,-4.28125 3.8125,-4.296875 3.515625,-4.296875 c -0.21875,0 -0.78125,-0.015625 -0.78125,0.3125 0,0.28125 0.515625,0.25 0.6875,0.25 0.375,0 0.53125,0 0.828125,-0.125 0.375,0.359375 0.421875,0.671875 0.4375,1.125 0.015625,0.578125 -0.21875,1.328125 -0.5,1.71875 C 3.796875,-0.484375 3.125,-0.125 2.5625,-0.125 c -0.765625,0 -1.140625,-0.578125 -1.140625,-1.28125 0,-0.09375 0,-0.25 0.046875,-0.4375 L 2.109375,-4.359375 C 2.328125,-5.21875 3.046875,-6.8125 4.25,-6.8125 c 0.578125,0 0.921875,0.3125 0.921875,0.90625 z m 0,0"
               id="id-98ed41bd-cf84-4e43-9aa2-5c340c27c267"
               style="fill:#000000;fill-opacity:1;stroke-width:0" />
          </g>
        </g>
      </defs>
      <g
         fill-opacity="1"
         id="id-fb79f5ed-6975-4619-9831-ee1ce546329f"
         transform="translate(-149.009,-127.734)"
         style="fill:#000000;fill-opacity:1;stroke-width:0">
        <g
           transform="translate(148.712,134.765)"
           id="g5401"
           style="fill:#000000;fill-opacity:1;stroke-width:0">
          <path
             d="m 5.734375,-5.671875 c 0,-0.75 -0.546875,-1.359375 -1.359375,-1.359375 -0.578125,0 -0.859375,0.15625 -1.203125,0.40625 C 2.625,-6.21875 2.078125,-5.25 1.890625,-4.5 L 0.296875,1.828125 C 0.296875,1.875 0.34375,1.9375 0.421875,1.9375 0.5,1.9375 0.53125,1.90625 0.53125,1.890625 L 1.234375,-0.875 c 0.1875,0.609375 0.625,0.96875 1.359375,0.96875 C 3.3125,0.09375 4.0625,-0.25 4.515625,-0.6875 5,-1.140625 5.3125,-1.78125 5.3125,-2.515625 c 0,-0.71875 -0.375,-1.25 -0.734375,-1.484375 0.578125,-0.34375 1.15625,-0.953125 1.15625,-1.671875 z M 3.9375,-4.015625 c -0.125,0.046875 -0.234375,0.0625 -0.484375,0.0625 -0.140625,0 -0.328125,0.015625 -0.4375,-0.03125 0.03125,-0.109375 0.390625,-0.078125 0.5,-0.078125 0.203125,0 0.296875,0 0.421875,0.046875 z M 5.171875,-5.90625 c 0,0.703125 -0.375,1.421875 -0.890625,1.734375 C 4,-4.28125 3.8125,-4.296875 3.515625,-4.296875 c -0.21875,0 -0.78125,-0.015625 -0.78125,0.3125 0,0.28125 0.515625,0.25 0.6875,0.25 0.375,0 0.53125,0 0.828125,-0.125 0.375,0.359375 0.421875,0.671875 0.4375,1.125 0.015625,0.578125 -0.21875,1.328125 -0.5,1.71875 C 3.796875,-0.484375 3.125,-0.125 2.5625,-0.125 c -0.765625,0 -1.140625,-0.578125 -1.140625,-1.28125 0,-0.09375 0,-0.25 0.046875,-0.4375 L 2.109375,-4.359375 C 2.328125,-5.21875 3.046875,-6.8125 4.25,-6.8125 c 0.578125,0 0.921875,0.3125 0.921875,0.90625 z m 0,0"
             id="id-8d2c9b02-776e-4315-b9cd-b3b6a14fb4f4"
             style="fill:#000000;fill-opacity:1;stroke-width:0" />
        </g>
      </g>
    </g>
  </g>
</svg>
